<?xml version="1.0" encoding="UTF-8" standalone="no"?>
<!DOCTYPE svg PUBLIC "-//W3C//DTD SVG 1.1//EN"
 "http://www.w3.org/Graphics/SVG/1.1/DTD/svg11.dtd">
<!-- Generated by graphviz version 7.0.4 (20221203.1631)
 -->
<!-- Title: pastafarianism Pages: 1 -->
<svg width="1755pt" height="476pt"
 viewBox="0.00 0.00 1754.78 476.00" xmlns="http://www.w3.org/2000/svg" xmlns:xlink="http://www.w3.org/1999/xlink">
<g id="graph0" class="graph" transform="scale(1 1) rotate(0) translate(4 472)">
<title>pastafarianism</title>
<polygon fill="white" stroke="none" points="-4,4 -4,-472 1750.78,-472 1750.78,4 -4,4"/>
<!-- Daily Jobs -->
<g id="node1" class="node">
<title>Daily Jobs</title>
<polygon fill="orange" stroke="black" points="978.01,-468 903.01,-468 903.01,-432 978.01,-432 978.01,-468"/>
<text text-anchor="middle" x="940.51" y="-447.8" font-family="Times New Roman,serif" font-size="9.00">Ⓜ Daily Jobs</text>
</g>
<!-- Go to medical room -->
<g id="node2" class="node">
<title>Go to medical room</title>
<polygon fill="orange" stroke="black" points="390.01,-396 283.01,-396 283.01,-360 390.01,-360 390.01,-396"/>
<text text-anchor="middle" x="336.51" y="-375.8" font-family="Times New Roman,serif" font-size="9.00">Ⓜ Go to medical room</text>
</g>
<!-- Daily Jobs&#45;&gt;Go to medical room -->
<g id="edge1" class="edge">
<title>Daily Jobs&#45;&gt;Go to medical room</title>
<path fill="none" stroke="black" d="M902.73,-444.62C802.3,-432.98 527.81,-401.17 401.58,-386.54"/>
<polygon fill="black" stroke="black" points="402.04,-383.07 391.71,-385.4 401.24,-390.03 402.04,-383.07"/>
</g>
<!-- Visiting Bob -->
<g id="node8" class="node">
<title>Visiting Bob</title>
<polygon fill="orange" stroke="black" points="859.01,-396 778.01,-396 778.01,-360 859.01,-360 859.01,-396"/>
<text text-anchor="middle" x="818.51" y="-375.8" font-family="Times New Roman,serif" font-size="9.00">Ⓜ Visiting Bob</text>
</g>
<!-- Daily Jobs&#45;&gt;Visiting Bob -->
<g id="edge7" class="edge">
<title>Daily Jobs&#45;&gt;Visiting Bob</title>
<path fill="none" stroke="black" d="M910.04,-431.52C894.34,-422.51 875.02,-411.42 858.18,-401.76"/>
<polygon fill="black" stroke="black" points="860.32,-398.95 849.9,-397.01 856.84,-405.03 860.32,-398.95"/>
</g>
<!-- Visiting Alice -->
<g id="node25" class="node">
<title>Visiting Alice</title>
<polygon fill="orange" stroke="black" points="1106.01,-396 1021.01,-396 1021.01,-360 1106.01,-360 1106.01,-396"/>
<text text-anchor="middle" x="1063.51" y="-375.8" font-family="Times New Roman,serif" font-size="9.00">Ⓜ Visiting Alice</text>
</g>
<!-- Daily Jobs&#45;&gt;Visiting Alice -->
<g id="edge24" class="edge">
<title>Daily Jobs&#45;&gt;Visiting Alice</title>
<path fill="none" stroke="black" d="M971.23,-431.52C987.05,-422.51 1006.54,-411.42 1023.52,-401.76"/>
<polygon fill="black" stroke="black" points="1024.9,-405 1031.86,-397.01 1021.44,-398.91 1024.9,-405"/>
</g>
<!-- Daily tasks completed -->
<g id="node42" class="node">
<title>Daily tasks completed</title>
<polygon fill="orange" stroke="black" points="1425.01,-396 1308.01,-396 1308.01,-360 1425.01,-360 1425.01,-396"/>
<text text-anchor="middle" x="1366.51" y="-375.8" font-family="Times New Roman,serif" font-size="9.00">Ⓜ Daily tasks completed</text>
</g>
<!-- Daily Jobs&#45;&gt;Daily tasks completed -->
<g id="edge41" class="edge">
<title>Daily Jobs&#45;&gt;Daily tasks completed</title>
<path fill="none" stroke="black" d="M978.31,-442.79C1049.69,-431.06 1205.27,-405.49 1296.31,-390.53"/>
<polygon fill="black" stroke="black" points="1296.84,-394 1306.14,-388.92 1295.7,-387.09 1296.84,-394"/>
</g>
<!-- Moving to Medical Room -->
<g id="node3" class="node">
<title>Moving to Medical Room</title>
<ellipse fill="gray" stroke="black" cx="63.51" cy="-306" rx="63.52" ry="18"/>
<text text-anchor="middle" x="63.51" y="-303.8" font-family="Times New Roman,serif" font-size="9.00">Moving to Medical Room</text>
</g>
<!-- Go to medical room&#45;&gt;Moving to Medical Room -->
<g id="edge2" class="edge">
<title>Go to medical room&#45;&gt;Moving to Medical Room</title>
<path fill="none" stroke="black" d="M282.57,-363.17C235.82,-351.18 168.36,-333.89 120.68,-321.66"/>
<polygon fill="black" stroke="black" points="121.64,-318.29 111.09,-319.2 119.9,-325.07 121.64,-318.29"/>
</g>
<!-- Taking the Pills -->
<g id="node4" class="node">
<title>Taking the Pills</title>
<ellipse fill="gray" stroke="black" cx="187.51" cy="-306" rx="42.29" ry="18"/>
<text text-anchor="middle" x="187.51" y="-303.8" font-family="Times New Roman,serif" font-size="9.00">Taking the Pills</text>
</g>
<!-- Go to medical room&#45;&gt;Taking the Pills -->
<g id="edge3" class="edge">
<title>Go to medical room&#45;&gt;Taking the Pills</title>
<path fill="none" stroke="black" d="M299.29,-359.52C276.67,-348.89 247.87,-335.36 225.17,-324.69"/>
<polygon fill="black" stroke="black" points="226.8,-321.59 216.26,-320.51 223.82,-327.93 226.8,-321.59"/>
</g>
<!-- Take Pills -->
<g id="node5" class="node">
<title>Take Pills</title>
<ellipse fill="gray" stroke="black" cx="278.51" cy="-306" rx="30.7" ry="18"/>
<text text-anchor="middle" x="278.51" y="-303.8" font-family="Times New Roman,serif" font-size="9.00">Take Pills</text>
</g>
<!-- Go to medical room&#45;&gt;Take Pills -->
<g id="edge4" class="edge">
<title>Go to medical room&#45;&gt;Take Pills</title>
<path fill="none" stroke="black" d="M322.17,-359.7C315.13,-351.19 306.52,-340.8 298.81,-331.5"/>
<polygon fill="black" stroke="black" points="301.53,-329.3 292.46,-323.84 296.14,-333.77 301.53,-329.3"/>
</g>
<!-- Exiting from Medical Room -->
<g id="node6" class="node">
<title>Exiting from Medical Room</title>
<ellipse fill="gray" stroke="black" cx="394.51" cy="-306" rx="66.95" ry="18"/>
<text text-anchor="middle" x="394.51" y="-303.8" font-family="Times New Roman,serif" font-size="9.00">Exiting from Medical Room</text>
</g>
<!-- Go to medical room&#45;&gt;Exiting from Medical Room -->
<g id="edge5" class="edge">
<title>Go to medical room&#45;&gt;Exiting from Medical Room</title>
<path fill="none" stroke="black" d="M350.85,-359.7C357.69,-351.44 366.01,-341.39 373.55,-332.3"/>
<polygon fill="black" stroke="black" points="376.08,-334.72 379.77,-324.79 370.69,-330.25 376.08,-334.72"/>
</g>
<!-- Going back to base -->
<g id="node7" class="node">
<title>Going back to base</title>
<ellipse fill="gray" stroke="black" cx="528.51" cy="-306" rx="49.15" ry="18"/>
<text text-anchor="middle" x="528.51" y="-303.8" font-family="Times New Roman,serif" font-size="9.00">Going back to base</text>
</g>
<!-- Go to medical room&#45;&gt;Going back to base -->
<g id="edge6" class="edge">
<title>Go to medical room&#45;&gt;Going back to base</title>
<path fill="none" stroke="black" d="M384.46,-359.52C414.93,-348.41 454.1,-334.13 483.9,-323.26"/>
<polygon fill="black" stroke="black" points="484.8,-326.66 493,-319.95 482.41,-320.08 484.8,-326.66"/>
</g>
<!-- Going to Bob Room -->
<g id="node9" class="node">
<title>Going to Bob Room</title>
<ellipse fill="gray" stroke="black" cx="646.51" cy="-306" rx="51.27" ry="18"/>
<text text-anchor="middle" x="646.51" y="-303.8" font-family="Times New Roman,serif" font-size="9.00">Going to Bob Room</text>
</g>
<!-- Visiting Bob&#45;&gt;Going to Bob Room -->
<g id="edge8" class="edge">
<title>Visiting Bob&#45;&gt;Going to Bob Room</title>
<path fill="none" stroke="black" d="M777.75,-360.41C751.17,-349.6 716.55,-335.5 689.53,-324.51"/>
<polygon fill="black" stroke="black" points="691.2,-321.41 680.61,-320.88 688.56,-327.89 691.2,-321.41"/>
</g>
<!-- Bob, can I enter? -->
<g id="node10" class="node">
<title>Bob, can I enter?</title>
<ellipse fill="gray" stroke="black" cx="760.51" cy="-306" rx="44.41" ry="18"/>
<text text-anchor="middle" x="760.51" y="-303.8" font-family="Times New Roman,serif" font-size="9.00">Bob, can I enter?</text>
</g>
<!-- Visiting Bob&#45;&gt;Bob, can I enter? -->
<g id="edge9" class="edge">
<title>Visiting Bob&#45;&gt;Bob, can I enter?</title>
<path fill="none" stroke="black" d="M804.17,-359.7C797.23,-351.32 788.76,-341.1 781.14,-331.9"/>
<polygon fill="black" stroke="black" points="783.93,-329.78 774.85,-324.31 778.54,-334.24 783.93,-329.78"/>
</g>
<!-- Interacting with Bob -->
<g id="node11" class="node">
<title>Interacting with Bob</title>
<polygon fill="orange" stroke="black" points="932.51,-324 822.51,-324 822.51,-288 932.51,-288 932.51,-324"/>
<text text-anchor="middle" x="877.51" y="-303.8" font-family="Times New Roman,serif" font-size="9.00">Ⓜ Interacting with Bob</text>
</g>
<!-- Visiting Bob&#45;&gt;Interacting with Bob -->
<g id="edge10" class="edge">
<title>Visiting Bob&#45;&gt;Interacting with Bob</title>
<path fill="none" stroke="black" d="M833.09,-359.7C839.95,-351.56 848.27,-341.69 855.85,-332.7"/>
<polygon fill="black" stroke="black" points="858.35,-335.16 862.12,-325.26 853,-330.65 858.35,-335.16"/>
</g>
<!-- XOR -->
<g id="node12" class="node">
<title>XOR</title>
<ellipse fill="gray" stroke="black" cx="804.51" cy="-234" rx="27" ry="18"/>
<text text-anchor="middle" x="804.51" y="-231.8" font-family="Times New Roman,serif" font-size="9.00">XOR</text>
</g>
<!-- Interacting with Bob&#45;&gt;XOR -->
<g id="edge11" class="edge">
<title>Interacting with Bob&#45;&gt;XOR</title>
<path fill="none" stroke="black" d="M859.46,-287.7C849.83,-278.46 837.87,-266.99 827.57,-257.12"/>
<polygon fill="black" stroke="black" points="830.13,-254.72 820.49,-250.33 825.29,-259.77 830.13,-254.72"/>
</g>
<!-- Chooser -->
<g id="node13" class="node">
<title>Chooser</title>
<polygon fill="cyan" stroke="black" points="907.75,-226.54 907.75,-241.46 890.62,-252 866.4,-252 849.27,-241.46 849.27,-226.54 866.4,-216 890.62,-216 907.75,-226.54"/>
<text text-anchor="middle" x="878.51" y="-231.8" font-family="Times New Roman,serif" font-size="9.00">Chooser</text>
</g>
<!-- Interacting with Bob&#45;&gt;Chooser -->
<g id="edge12" class="edge">
<title>Interacting with Bob&#45;&gt;Chooser</title>
<path fill="none" stroke="black" d="M877.76,-287.7C877.86,-280.41 877.98,-271.73 878.1,-263.54"/>
<polygon fill="black" stroke="black" points="881.6,-263.67 878.24,-253.62 874.6,-263.57 881.6,-263.67"/>
</g>
<!-- Option 1 -->
<g id="node14" class="node">
<title>Option 1</title>
<polygon fill="orange" stroke="black" points="792.01,-180 723.01,-180 723.01,-144 792.01,-144 792.01,-180"/>
<text text-anchor="middle" x="757.51" y="-159.8" font-family="Times New Roman,serif" font-size="9.00">Ⓜ Option 1</text>
</g>
<!-- Chooser&#45;&gt;Option 1 -->
<g id="edge13" class="edge">
<title>Chooser&#45;&gt;Option 1</title>
<path fill="none" stroke="black" d="M857.71,-220.97C841.18,-211.4 817.56,-197.74 797.41,-186.08"/>
<polygon fill="black" stroke="black" points="799.26,-183.11 788.86,-181.14 795.76,-189.17 799.26,-183.11"/>
</g>
<!-- Option 2 -->
<g id="node20" class="node">
<title>Option 2</title>
<polygon fill="orange" stroke="black" points="913.01,-180 844.01,-180 844.01,-144 913.01,-144 913.01,-180"/>
<text text-anchor="middle" x="878.51" y="-159.8" font-family="Times New Roman,serif" font-size="9.00">Ⓜ Option 2</text>
</g>
<!-- Chooser&#45;&gt;Option 2 -->
<g id="edge19" class="edge">
<title>Chooser&#45;&gt;Option 2</title>
<path fill="none" stroke="black" d="M878.51,-215.7C878.51,-208.41 878.51,-199.73 878.51,-191.54"/>
<polygon fill="black" stroke="black" points="882.01,-191.62 878.51,-181.62 875.01,-191.62 882.01,-191.62"/>
</g>
<!-- Enabled? -->
<g id="node15" class="node">
<title>Enabled?</title>
<ellipse fill="gray" stroke="black" cx="668.51" cy="-90" rx="28.08" ry="18"/>
<text text-anchor="middle" x="668.51" y="-87.8" font-family="Times New Roman,serif" font-size="9.00">Enabled?</text>
</g>
<!-- Option 1&#45;&gt;Enabled? -->
<g id="edge14" class="edge">
<title>Option 1&#45;&gt;Enabled?</title>
<path fill="none" stroke="black" d="M735.51,-143.7C723.16,-133.99 707.69,-121.81 694.72,-111.61"/>
<polygon fill="black" stroke="black" points="697.01,-108.97 686.99,-105.53 692.68,-114.47 697.01,-108.97"/>
</g>
<!-- Visiting Bob* -->
<g id="node16" class="node">
<title>Visiting Bob*</title>
<polygon fill="orange" stroke="black" points="800.51,-108 714.51,-108 714.51,-72 800.51,-72 800.51,-108"/>
<text text-anchor="middle" x="757.51" y="-87.8" font-family="Times New Roman,serif" font-size="9.00">Ⓜ Visiting Bob*</text>
</g>
<!-- Option 1&#45;&gt;Visiting Bob* -->
<g id="edge15" class="edge">
<title>Option 1&#45;&gt;Visiting Bob*</title>
<path fill="none" stroke="black" d="M757.51,-143.7C757.51,-136.41 757.51,-127.73 757.51,-119.54"/>
<polygon fill="black" stroke="black" points="761.01,-119.62 757.51,-109.62 754.01,-119.62 761.01,-119.62"/>
</g>
<!-- Give pill to Bob -->
<g id="node17" class="node">
<title>Give pill to Bob</title>
<ellipse fill="gray" stroke="black" cx="623.51" cy="-18" rx="43.1" ry="18"/>
<text text-anchor="middle" x="623.51" y="-15.8" font-family="Times New Roman,serif" font-size="9.00">Give pill to Bob</text>
</g>
<!-- Visiting Bob*&#45;&gt;Give pill to Bob -->
<g id="edge16" class="edge">
<title>Visiting Bob*&#45;&gt;Give pill to Bob</title>
<path fill="none" stroke="black" d="M724.04,-71.52C704.37,-61.24 679.5,-48.25 659.42,-37.76"/>
<polygon fill="black" stroke="black" points="661.23,-34.76 650.75,-33.23 657.99,-40.96 661.23,-34.76"/>
</g>
<!-- Bob takes the pill -->
<g id="node18" class="node">
<title>Bob takes the pill</title>
<ellipse fill="gray" stroke="black" cx="730.51" cy="-18" rx="46.38" ry="18"/>
<text text-anchor="middle" x="730.51" y="-15.8" font-family="Times New Roman,serif" font-size="9.00">Bob takes the pill</text>
</g>
<!-- Visiting Bob*&#45;&gt;Bob takes the pill -->
<g id="edge17" class="edge">
<title>Visiting Bob*&#45;&gt;Bob takes the pill</title>
<path fill="none" stroke="black" d="M750.83,-71.7C747.92,-64.15 744.44,-55.12 741.19,-46.68"/>
<polygon fill="black" stroke="black" points="744.51,-45.59 737.65,-37.52 737.98,-48.11 744.51,-45.59"/>
</g>
<!-- Exiting from Bob Room -->
<g id="node19" class="node">
<title>Exiting from Bob Room</title>
<ellipse fill="gray" stroke="black" cx="853.51" cy="-18" rx="58.78" ry="18"/>
<text text-anchor="middle" x="853.51" y="-15.8" font-family="Times New Roman,serif" font-size="9.00">Exiting from Bob Room</text>
</g>
<!-- Visiting Bob*&#45;&gt;Exiting from Bob Room -->
<g id="edge18" class="edge">
<title>Visiting Bob*&#45;&gt;Exiting from Bob Room</title>
<path fill="none" stroke="black" d="M781.24,-71.7C793.57,-62.7 808.8,-51.6 822.1,-41.9"/>
<polygon fill="black" stroke="black" points="824.13,-44.76 830.14,-36.04 820,-39.1 824.13,-44.76"/>
</g>
<!-- Enabled?* -->
<g id="node21" class="node">
<title>Enabled?*</title>
<ellipse fill="gray" stroke="black" cx="878.51" cy="-90" rx="30.7" ry="18"/>
<text text-anchor="middle" x="878.51" y="-87.8" font-family="Times New Roman,serif" font-size="9.00">Enabled?*</text>
</g>
<!-- Option 2&#45;&gt;Enabled?* -->
<g id="edge20" class="edge">
<title>Option 2&#45;&gt;Enabled?*</title>
<path fill="none" stroke="black" d="M878.51,-143.7C878.51,-136.41 878.51,-127.73 878.51,-119.54"/>
<polygon fill="black" stroke="black" points="882.01,-119.62 878.51,-109.62 875.01,-119.62 882.01,-119.62"/>
</g>
<!-- Visiting Bob** -->
<g id="node22" class="node">
<title>Visiting Bob**</title>
<polygon fill="orange" stroke="black" points="1019.51,-108 929.51,-108 929.51,-72 1019.51,-72 1019.51,-108"/>
<text text-anchor="middle" x="974.51" y="-87.8" font-family="Times New Roman,serif" font-size="9.00">Ⓜ Visiting Bob**</text>
</g>
<!-- Option 2&#45;&gt;Visiting Bob** -->
<g id="edge21" class="edge">
<title>Option 2&#45;&gt;Visiting Bob**</title>
<path fill="none" stroke="black" d="M902.24,-143.7C914.12,-135.03 928.7,-124.4 941.65,-114.96"/>
<polygon fill="black" stroke="black" points="943.48,-117.96 949.5,-109.24 939.35,-112.3 943.48,-117.96"/>
</g>
<!-- Calling the nurse -->
<g id="node23" class="node">
<title>Calling the nurse</title>
<ellipse fill="gray" stroke="black" cx="974.51" cy="-18" rx="44.41" ry="18"/>
<text text-anchor="middle" x="974.51" y="-15.8" font-family="Times New Roman,serif" font-size="9.00">Calling the nurse</text>
</g>
<!-- Visiting Bob**&#45;&gt;Calling the nurse -->
<g id="edge22" class="edge">
<title>Visiting Bob**&#45;&gt;Calling the nurse</title>
<path fill="none" stroke="black" d="M974.51,-71.7C974.51,-64.41 974.51,-55.73 974.51,-47.54"/>
<polygon fill="black" stroke="black" points="978.01,-47.62 974.51,-37.62 971.01,-47.62 978.01,-47.62"/>
</g>
<!-- Going back to base* -->
<g id="node24" class="node">
<title>Going back to base*</title>
<ellipse fill="gray" stroke="black" cx="1088.51" cy="-18" rx="51.27" ry="18"/>
<text text-anchor="middle" x="1088.51" y="-15.8" font-family="Times New Roman,serif" font-size="9.00">Going back to base*</text>
</g>
<!-- Visiting Bob**&#45;&gt;Going back to base* -->
<g id="edge23" class="edge">
<title>Visiting Bob**&#45;&gt;Going back to base*</title>
<path fill="none" stroke="black" d="M1002.98,-71.52C1018.49,-61.99 1037.8,-50.14 1054.14,-40.1"/>
<polygon fill="black" stroke="black" points="1055.9,-43.13 1062.59,-34.92 1052.23,-37.17 1055.9,-43.13"/>
</g>
<!-- Going to Alice Room -->
<g id="node26" class="node">
<title>Going to Alice Room</title>
<ellipse fill="gray" stroke="black" cx="1004.51" cy="-306" rx="53.89" ry="18"/>
<text text-anchor="middle" x="1004.51" y="-303.8" font-family="Times New Roman,serif" font-size="9.00">Going to Alice Room</text>
</g>
<!-- Visiting Alice&#45;&gt;Going to Alice Room -->
<g id="edge25" class="edge">
<title>Visiting Alice&#45;&gt;Going to Alice Room</title>
<path fill="none" stroke="black" d="M1048.92,-359.7C1041.96,-351.44 1033.5,-341.39 1025.83,-332.3"/>
<polygon fill="black" stroke="black" points="1028.62,-330.17 1019.49,-324.78 1023.26,-334.68 1028.62,-330.17"/>
</g>
<!-- Alice, can I enter? -->
<g id="node27" class="node">
<title>Alice, can I enter?</title>
<ellipse fill="gray" stroke="black" cx="1122.51" cy="-306" rx="46.53" ry="18"/>
<text text-anchor="middle" x="1122.51" y="-303.8" font-family="Times New Roman,serif" font-size="9.00">Alice, can I enter?</text>
</g>
<!-- Visiting Alice&#45;&gt;Alice, can I enter? -->
<g id="edge26" class="edge">
<title>Visiting Alice&#45;&gt;Alice, can I enter?</title>
<path fill="none" stroke="black" d="M1078.09,-359.7C1085.05,-351.44 1093.52,-341.39 1101.18,-332.3"/>
<polygon fill="black" stroke="black" points="1103.75,-334.68 1107.52,-324.78 1098.4,-330.17 1103.75,-334.68"/>
</g>
<!-- Interacting with Alice -->
<g id="node28" class="node">
<title>Interacting with Alice</title>
<polygon fill="orange" stroke="black" points="1301.51,-324 1187.51,-324 1187.51,-288 1301.51,-288 1301.51,-324"/>
<text text-anchor="middle" x="1244.51" y="-303.8" font-family="Times New Roman,serif" font-size="9.00">Ⓜ Interacting with Alice</text>
</g>
<!-- Visiting Alice&#45;&gt;Interacting with Alice -->
<g id="edge27" class="edge">
<title>Visiting Alice&#45;&gt;Interacting with Alice</title>
<path fill="none" stroke="black" d="M1106.4,-360.41C1131.03,-350.89 1162.22,-338.82 1188.73,-328.57"/>
<polygon fill="black" stroke="black" points="1189.92,-331.86 1197.98,-324.99 1187.4,-325.34 1189.92,-331.86"/>
</g>
<!-- XOR* -->
<g id="node29" class="node">
<title>XOR*</title>
<ellipse fill="gray" stroke="black" cx="1243.51" cy="-234" rx="27" ry="18"/>
<text text-anchor="middle" x="1243.51" y="-231.8" font-family="Times New Roman,serif" font-size="9.00">XOR*</text>
</g>
<!-- Interacting with Alice&#45;&gt;XOR* -->
<g id="edge28" class="edge">
<title>Interacting with Alice&#45;&gt;XOR*</title>
<path fill="none" stroke="black" d="M1244.26,-287.7C1244.16,-280.41 1244.03,-271.73 1243.92,-263.54"/>
<polygon fill="black" stroke="black" points="1247.42,-263.57 1243.77,-253.62 1240.42,-263.67 1247.42,-263.57"/>
</g>
<!-- Chooser* -->
<g id="node30" class="node">
<title>Chooser*</title>
<polygon fill="cyan" stroke="black" points="1352.25,-226.54 1352.25,-241.46 1333.66,-252 1307.36,-252 1288.77,-241.46 1288.77,-226.54 1307.36,-216 1333.66,-216 1352.25,-226.54"/>
<text text-anchor="middle" x="1320.51" y="-231.8" font-family="Times New Roman,serif" font-size="9.00">Chooser*</text>
</g>
<!-- Interacting with Alice&#45;&gt;Chooser* -->
<g id="edge29" class="edge">
<title>Interacting with Alice&#45;&gt;Chooser*</title>
<path fill="none" stroke="black" d="M1263.3,-287.7C1272.98,-278.78 1284.92,-267.78 1295.39,-258.14"/>
<polygon fill="black" stroke="black" points="1297.65,-260.81 1302.64,-251.46 1292.91,-255.66 1297.65,-260.81"/>
</g>
<!-- Option 1* -->
<g id="node31" class="node">
<title>Option 1*</title>
<polygon fill="orange" stroke="black" points="1356.51,-180 1282.51,-180 1282.51,-144 1356.51,-144 1356.51,-180"/>
<text text-anchor="middle" x="1319.51" y="-159.8" font-family="Times New Roman,serif" font-size="9.00">Ⓜ Option 1*</text>
</g>
<!-- Chooser*&#45;&gt;Option 1* -->
<g id="edge30" class="edge">
<title>Chooser*&#45;&gt;Option 1*</title>
<path fill="none" stroke="black" d="M1320.26,-215.7C1320.16,-208.41 1320.03,-199.73 1319.92,-191.54"/>
<polygon fill="black" stroke="black" points="1323.42,-191.57 1319.77,-181.62 1316.42,-191.67 1323.42,-191.57"/>
</g>
<!-- Option 2* -->
<g id="node37" class="node">
<title>Option 2*</title>
<polygon fill="orange" stroke="black" points="1481.51,-180 1407.51,-180 1407.51,-144 1481.51,-144 1481.51,-180"/>
<text text-anchor="middle" x="1444.51" y="-159.8" font-family="Times New Roman,serif" font-size="9.00">Ⓜ Option 2*</text>
</g>
<!-- Chooser*&#45;&gt;Option 2* -->
<g id="edge36" class="edge">
<title>Chooser*&#45;&gt;Option 2*</title>
<path fill="none" stroke="black" d="M1342.39,-220.65C1359.28,-211.11 1383.14,-197.64 1403.54,-186.13"/>
<polygon fill="black" stroke="black" points="1405.23,-189.19 1412.22,-181.23 1401.79,-183.09 1405.23,-189.19"/>
</g>
<!-- Enabled?** -->
<g id="node32" class="node">
<title>Enabled?**</title>
<ellipse fill="gray" stroke="black" cx="1223.51" cy="-90" rx="33.47" ry="18"/>
<text text-anchor="middle" x="1223.51" y="-87.8" font-family="Times New Roman,serif" font-size="9.00">Enabled?**</text>
</g>
<!-- Option 1*&#45;&gt;Enabled?** -->
<g id="edge31" class="edge">
<title>Option 1*&#45;&gt;Enabled?**</title>
<path fill="none" stroke="black" d="M1295.78,-143.7C1282.51,-134.03 1265.9,-121.91 1251.94,-111.73"/>
<polygon fill="black" stroke="black" points="1254.14,-109.01 1244,-105.94 1250.02,-114.66 1254.14,-109.01"/>
</g>
<!-- Visiting Alice* -->
<g id="node33" class="node">
<title>Visiting Alice*</title>
<polygon fill="orange" stroke="black" points="1364.01,-108 1275.01,-108 1275.01,-72 1364.01,-72 1364.01,-108"/>
<text text-anchor="middle" x="1319.51" y="-87.8" font-family="Times New Roman,serif" font-size="9.00">Ⓜ Visiting Alice*</text>
</g>
<!-- Option 1*&#45;&gt;Visiting Alice* -->
<g id="edge32" class="edge">
<title>Option 1*&#45;&gt;Visiting Alice*</title>
<path fill="none" stroke="black" d="M1319.51,-143.7C1319.51,-136.41 1319.51,-127.73 1319.51,-119.54"/>
<polygon fill="black" stroke="black" points="1323.01,-119.62 1319.51,-109.62 1316.01,-119.62 1323.01,-119.62"/>
</g>
<!-- Give pill to Alice -->
<g id="node34" class="node">
<title>Give pill to Alice</title>
<ellipse fill="gray" stroke="black" cx="1207.51" cy="-18" rx="45.72" ry="18"/>
<text text-anchor="middle" x="1207.51" y="-15.8" font-family="Times New Roman,serif" font-size="9.00">Give pill to Alice</text>
</g>
<!-- Visiting Alice*&#45;&gt;Give pill to Alice -->
<g id="edge33" class="edge">
<title>Visiting Alice*&#45;&gt;Give pill to Alice</title>
<path fill="none" stroke="black" d="M1291.54,-71.52C1276.08,-61.86 1256.79,-49.8 1240.59,-39.68"/>
<polygon fill="black" stroke="black" points="1242.59,-36.8 1232.25,-34.47 1238.88,-42.73 1242.59,-36.8"/>
</g>
<!-- Alice takes the pill -->
<g id="node35" class="node">
<title>Alice takes the pill</title>
<ellipse fill="gray" stroke="black" cx="1319.51" cy="-18" rx="48.49" ry="18"/>
<text text-anchor="middle" x="1319.51" y="-15.8" font-family="Times New Roman,serif" font-size="9.00">Alice takes the pill</text>
</g>
<!-- Visiting Alice*&#45;&gt;Alice takes the pill -->
<g id="edge34" class="edge">
<title>Visiting Alice*&#45;&gt;Alice takes the pill</title>
<path fill="none" stroke="black" d="M1319.51,-71.7C1319.51,-64.41 1319.51,-55.73 1319.51,-47.54"/>
<polygon fill="black" stroke="black" points="1323.01,-47.62 1319.51,-37.62 1316.01,-47.62 1323.01,-47.62"/>
</g>
<!-- Exiting from Alice Room -->
<g id="node36" class="node">
<title>Exiting from Alice Room</title>
<ellipse fill="gray" stroke="black" cx="1447.51" cy="-18" rx="61.4" ry="18"/>
<text text-anchor="middle" x="1447.51" y="-15.8" font-family="Times New Roman,serif" font-size="9.00">Exiting from Alice Room</text>
</g>
<!-- Visiting Alice*&#45;&gt;Exiting from Alice Room -->
<g id="edge35" class="edge">
<title>Visiting Alice*&#45;&gt;Exiting from Alice Room</title>
<path fill="none" stroke="black" d="M1351.48,-71.52C1369.1,-61.88 1391.08,-49.86 1409.56,-39.75"/>
<polygon fill="black" stroke="black" points="1411,-42.95 1418.1,-35.08 1407.64,-36.81 1411,-42.95"/>
</g>
<!-- Enabled?*** -->
<g id="node38" class="node">
<title>Enabled?***</title>
<ellipse fill="gray" stroke="black" cx="1444.51" cy="-90" rx="35.59" ry="18"/>
<text text-anchor="middle" x="1444.51" y="-87.8" font-family="Times New Roman,serif" font-size="9.00">Enabled?***</text>
</g>
<!-- Option 2*&#45;&gt;Enabled?*** -->
<g id="edge37" class="edge">
<title>Option 2*&#45;&gt;Enabled?***</title>
<path fill="none" stroke="black" d="M1444.51,-143.7C1444.51,-136.41 1444.51,-127.73 1444.51,-119.54"/>
<polygon fill="black" stroke="black" points="1448.01,-119.62 1444.51,-109.62 1441.01,-119.62 1448.01,-119.62"/>
</g>
<!-- Visiting Alice** -->
<g id="node39" class="node">
<title>Visiting Alice**</title>
<polygon fill="orange" stroke="black" points="1620.51,-108 1526.51,-108 1526.51,-72 1620.51,-72 1620.51,-108"/>
<text text-anchor="middle" x="1573.51" y="-87.8" font-family="Times New Roman,serif" font-size="9.00">Ⓜ Visiting Alice**</text>
</g>
<!-- Option 2*&#45;&gt;Visiting Alice** -->
<g id="edge38" class="edge">
<title>Option 2*&#45;&gt;Visiting Alice**</title>
<path fill="none" stroke="black" d="M1476.73,-143.52C1493.4,-134.47 1513.95,-123.32 1531.82,-113.62"/>
<polygon fill="black" stroke="black" points="1533.25,-116.83 1540.37,-108.98 1529.91,-110.68 1533.25,-116.83"/>
</g>
<!-- Calling the nurse* -->
<g id="node40" class="node">
<title>Calling the nurse*</title>
<ellipse fill="gray" stroke="black" cx="1573.51" cy="-18" rx="46.53" ry="18"/>
<text text-anchor="middle" x="1573.51" y="-15.8" font-family="Times New Roman,serif" font-size="9.00">Calling the nurse*</text>
</g>
<!-- Visiting Alice**&#45;&gt;Calling the nurse* -->
<g id="edge39" class="edge">
<title>Visiting Alice**&#45;&gt;Calling the nurse*</title>
<path fill="none" stroke="black" d="M1573.51,-71.7C1573.51,-64.41 1573.51,-55.73 1573.51,-47.54"/>
<polygon fill="black" stroke="black" points="1577.01,-47.62 1573.51,-37.62 1570.01,-47.62 1577.01,-47.62"/>
</g>
<!-- Going back to base** -->
<g id="node41" class="node">
<title>Going back to base**</title>
<ellipse fill="gray" stroke="black" cx="1692.51" cy="-18" rx="54.04" ry="18"/>
<text text-anchor="middle" x="1692.51" y="-15.8" font-family="Times New Roman,serif" font-size="9.00">Going back to base**</text>
</g>
<!-- Visiting Alice**&#45;&gt;Going back to base** -->
<g id="edge40" class="edge">
<title>Visiting Alice**&#45;&gt;Going back to base**</title>
<path fill="none" stroke="black" d="M1603.23,-71.52C1619.57,-61.9 1639.96,-49.91 1657.12,-39.82"/>
<polygon fill="black" stroke="black" points="1658.65,-42.98 1665.49,-34.89 1655.1,-36.95 1658.65,-42.98"/>
</g>
<!-- Going to the Base -->
<g id="node43" class="node">
<title>Going to the Base</title>
<ellipse fill="gray" stroke="black" cx="1366.51" cy="-306" rx="46.53" ry="18"/>
<text text-anchor="middle" x="1366.51" y="-303.8" font-family="Times New Roman,serif" font-size="9.00">Going to the Base</text>
</g>
<!-- Daily tasks completed&#45;&gt;Going to the Base -->
<g id="edge42" class="edge">
<title>Daily tasks completed&#45;&gt;Going to the Base</title>
<path fill="none" stroke="black" d="M1366.51,-359.7C1366.51,-352.41 1366.51,-343.73 1366.51,-335.54"/>
<polygon fill="black" stroke="black" points="1370.01,-335.62 1366.51,-325.62 1363.01,-335.62 1370.01,-335.62"/>
</g>
<!-- Going to sleep -->
<g id="node44" class="node">
<title>Going to sleep</title>
<ellipse fill="gray" stroke="black" cx="1471.51" cy="-306" rx="39.67" ry="18"/>
<text text-anchor="middle" x="1471.51" y="-303.8" font-family="Times New Roman,serif" font-size="9.00">Going to sleep</text>
</g>
<!-- Daily tasks completed&#45;&gt;Going to sleep -->
<g id="edge43" class="edge">
<title>Daily tasks completed&#45;&gt;Going to sleep</title>
<path fill="none" stroke="black" d="M1392.73,-359.52C1407.18,-349.88 1425.21,-337.86 1440.37,-327.76"/>
<polygon fill="black" stroke="black" points="1442.22,-330.73 1448.6,-322.27 1438.34,-324.91 1442.22,-330.73"/>
</g>
</g>
</svg>
