<?xml version="1.0" encoding="UTF-8" standalone="no"?>
<!DOCTYPE svg PUBLIC "-//W3C//DTD SVG 1.1//EN"
 "http://www.w3.org/Graphics/SVG/1.1/DTD/svg11.dtd">
<!-- Generated by graphviz version 7.0.4 (20221203.1631)
 -->
<!-- Title: pastafarianism Pages: 1 -->
<svg width="1731pt" height="476pt"
 viewBox="0.00 0.00 1731.20 476.00" xmlns="http://www.w3.org/2000/svg" xmlns:xlink="http://www.w3.org/1999/xlink">
<g id="graph0" class="graph" transform="scale(1 1) rotate(0) translate(4 472)">
<title>pastafarianism</title>
<polygon fill="white" stroke="none" points="-4,4 -4,-472 1727.2,-472 1727.2,4 -4,4"/>
<!-- Daily Jobs -->
<g id="node1" class="node">
<title>Daily Jobs</title>
<polygon fill="orange" stroke="black" points="958.93,-468 892.93,-468 892.93,-432 958.93,-432 958.93,-468"/>
<text text-anchor="middle" x="925.93" y="-447.8" font-family="Times,serif" font-size="9.00">Ⓜ Daily Jobs</text>
</g>
<!-- Go to medical room -->
<g id="node2" class="node">
<title>Go to medical room</title>
<polygon fill="orange" stroke="black" points="378.93,-396 280.93,-396 280.93,-360 378.93,-360 378.93,-396"/>
<text text-anchor="middle" x="329.93" y="-375.8" font-family="Times,serif" font-size="9.00">Ⓜ Go to medical room</text>
</g>
<!-- Daily Jobs&#45;&gt;Go to medical room -->
<g id="edge1" class="edge">
<title>Daily Jobs&#45;&gt;Go to medical room</title>
<path fill="none" stroke="black" d="M892.61,-445.09C795.98,-433.74 514.61,-400.69 390.24,-386.08"/>
<polygon fill="black" stroke="black" points="390.91,-382.64 380.57,-384.95 390.09,-389.59 390.91,-382.64"/>
</g>
<!-- Visiting Bob -->
<g id="node8" class="node">
<title>Visiting Bob</title>
<polygon fill="orange" stroke="black" points="845.43,-396 772.43,-396 772.43,-360 845.43,-360 845.43,-396"/>
<text text-anchor="middle" x="808.93" y="-375.8" font-family="Times,serif" font-size="9.00">Ⓜ Visiting Bob</text>
</g>
<!-- Daily Jobs&#45;&gt;Visiting Bob -->
<g id="edge7" class="edge">
<title>Daily Jobs&#45;&gt;Visiting Bob</title>
<path fill="none" stroke="black" d="M896.71,-431.52C881.8,-422.6 863.47,-411.63 847.43,-402.03"/>
<polygon fill="black" stroke="black" points="849.46,-399.17 839.08,-397.04 845.86,-405.18 849.46,-399.17"/>
</g>
<!-- Visiting Alice -->
<g id="node25" class="node">
<title>Visiting Alice</title>
<polygon fill="orange" stroke="black" points="1083.93,-396 1007.93,-396 1007.93,-360 1083.93,-360 1083.93,-396"/>
<text text-anchor="middle" x="1045.93" y="-375.8" font-family="Times,serif" font-size="9.00">Ⓜ Visiting Alice</text>
</g>
<!-- Daily Jobs&#45;&gt;Visiting Alice -->
<g id="edge24" class="edge">
<title>Daily Jobs&#45;&gt;Visiting Alice</title>
<path fill="none" stroke="black" d="M955.9,-431.52C971.19,-422.6 989.99,-411.63 1006.45,-402.03"/>
<polygon fill="black" stroke="black" points="1008.16,-405.09 1015.03,-397.02 1004.63,-399.04 1008.16,-405.09"/>
</g>
<!-- Daily tasks completed -->
<g id="node42" class="node">
<title>Daily tasks completed</title>
<polygon fill="orange" stroke="black" points="1389.93,-396 1283.93,-396 1283.93,-360 1389.93,-360 1389.93,-396"/>
<text text-anchor="middle" x="1336.93" y="-375.8" font-family="Times,serif" font-size="9.00">Ⓜ Daily tasks completed</text>
</g>
<!-- Daily Jobs&#45;&gt;Daily tasks completed -->
<g id="edge41" class="edge">
<title>Daily Jobs&#45;&gt;Daily tasks completed</title>
<path fill="none" stroke="black" d="M959.22,-443.33C1027.32,-431.73 1183.62,-405.11 1272.33,-390"/>
<polygon fill="black" stroke="black" points="1272.84,-393.47 1282.11,-388.34 1271.66,-386.57 1272.84,-393.47"/>
</g>
<!-- Moving to Medical Room -->
<g id="node3" class="node">
<title>Moving to Medical Room</title>
<ellipse fill="gray" stroke="black" cx="62.93" cy="-306" rx="62.86" ry="18"/>
<text text-anchor="middle" x="62.93" y="-303.8" font-family="Times,serif" font-size="9.00">Moving to Medical Room</text>
</g>
<!-- Go to medical room&#45;&gt;Moving to Medical Room -->
<g id="edge2" class="edge">
<title>Go to medical room&#45;&gt;Moving to Medical Room</title>
<path fill="none" stroke="black" d="M280.65,-364.08C234.89,-352.08 166.83,-334.24 119.01,-321.7"/>
<polygon fill="black" stroke="black" points="119.95,-318.33 109.39,-319.18 118.18,-325.1 119.95,-318.33"/>
</g>
<!-- Taking the Pills -->
<g id="node4" class="node">
<title>Taking the Pills</title>
<ellipse fill="gray" stroke="black" cx="184.93" cy="-306" rx="40.98" ry="18"/>
<text text-anchor="middle" x="184.93" y="-303.8" font-family="Times,serif" font-size="9.00">Taking the Pills</text>
</g>
<!-- Go to medical room&#45;&gt;Taking the Pills -->
<g id="edge3" class="edge">
<title>Go to medical room&#45;&gt;Taking the Pills</title>
<path fill="none" stroke="black" d="M293.72,-359.52C271.8,-348.94 243.93,-335.48 221.88,-324.84"/>
<polygon fill="black" stroke="black" points="223.47,-321.72 212.94,-320.52 220.43,-328.02 223.47,-321.72"/>
</g>
<!-- Take Pills -->
<g id="node5" class="node">
<title>Take Pills</title>
<ellipse fill="gray" stroke="black" cx="272.93" cy="-306" rx="29.39" ry="18"/>
<text text-anchor="middle" x="272.93" y="-303.8" font-family="Times,serif" font-size="9.00">Take Pills</text>
</g>
<!-- Go to medical room&#45;&gt;Take Pills -->
<g id="edge4" class="edge">
<title>Go to medical room&#45;&gt;Take Pills</title>
<path fill="none" stroke="black" d="M315.84,-359.7C308.92,-351.19 300.46,-340.8 292.88,-331.5"/>
<polygon fill="black" stroke="black" points="295.68,-329.39 286.65,-323.84 290.25,-333.81 295.68,-329.39"/>
</g>
<!-- Exiting from Medical Room -->
<g id="node6" class="node">
<title>Exiting from Medical Room</title>
<ellipse fill="gray" stroke="black" cx="386.93" cy="-306" rx="66.95" ry="18"/>
<text text-anchor="middle" x="386.93" y="-303.8" font-family="Times,serif" font-size="9.00">Exiting from Medical Room</text>
</g>
<!-- Go to medical room&#45;&gt;Exiting from Medical Room -->
<g id="edge5" class="edge">
<title>Go to medical room&#45;&gt;Exiting from Medical Room</title>
<path fill="none" stroke="black" d="M344.02,-359.7C350.75,-351.44 358.92,-341.39 366.33,-332.3"/>
<polygon fill="black" stroke="black" points="368.84,-334.76 372.44,-324.8 363.41,-330.34 368.84,-334.76"/>
</g>
<!-- Going back to base -->
<g id="node7" class="node">
<title>Going back to base</title>
<ellipse fill="gray" stroke="black" cx="520.93" cy="-306" rx="49.15" ry="18"/>
<text text-anchor="middle" x="520.93" y="-303.8" font-family="Times,serif" font-size="9.00">Going back to base</text>
</g>
<!-- Go to medical room&#45;&gt;Going back to base -->
<g id="edge6" class="edge">
<title>Go to medical room&#45;&gt;Going back to base</title>
<path fill="none" stroke="black" d="M377.64,-359.52C407.95,-348.41 446.91,-334.13 476.55,-323.26"/>
<polygon fill="black" stroke="black" points="477.42,-326.68 485.6,-319.95 475.01,-320.1 477.42,-326.68"/>
</g>
<!-- Going to Bob Room -->
<g id="node9" class="node">
<title>Going to Bob Room</title>
<ellipse fill="gray" stroke="black" cx="638.93" cy="-306" rx="51.27" ry="18"/>
<text text-anchor="middle" x="638.93" y="-303.8" font-family="Times,serif" font-size="9.00">Going to Bob Room</text>
</g>
<!-- Visiting Bob&#45;&gt;Going to Bob Room -->
<g id="edge8" class="edge">
<title>Visiting Bob&#45;&gt;Going to Bob Room</title>
<path fill="none" stroke="black" d="M772.04,-361.81C745.58,-350.91 709.83,-336.19 682.05,-324.75"/>
<polygon fill="black" stroke="black" points="683.42,-321.53 672.84,-320.96 680.76,-328.01 683.42,-321.53"/>
</g>
<!-- Bob, can I enter? -->
<g id="node10" class="node">
<title>Bob, can I enter?</title>
<ellipse fill="gray" stroke="black" cx="752.93" cy="-306" rx="44.41" ry="18"/>
<text text-anchor="middle" x="752.93" y="-303.8" font-family="Times,serif" font-size="9.00">Bob, can I enter?</text>
</g>
<!-- Visiting Bob&#45;&gt;Bob, can I enter? -->
<g id="edge9" class="edge">
<title>Visiting Bob&#45;&gt;Bob, can I enter?</title>
<path fill="none" stroke="black" d="M795.09,-359.7C788.55,-351.52 780.61,-341.6 773.4,-332.58"/>
<polygon fill="black" stroke="black" points="776.15,-330.43 767.17,-324.8 770.69,-334.8 776.15,-330.43"/>
</g>
<!-- Interacting with Bob -->
<g id="node11" class="node">
<title>Interacting with Bob</title>
<polygon fill="orange" stroke="black" points="916.43,-324 815.43,-324 815.43,-288 916.43,-288 916.43,-324"/>
<text text-anchor="middle" x="865.93" y="-303.8" font-family="Times,serif" font-size="9.00">Ⓜ Interacting with Bob</text>
</g>
<!-- Visiting Bob&#45;&gt;Interacting with Bob -->
<g id="edge10" class="edge">
<title>Visiting Bob&#45;&gt;Interacting with Bob</title>
<path fill="none" stroke="black" d="M823.02,-359.7C829.58,-351.64 837.52,-341.89 844.77,-332.98"/>
<polygon fill="black" stroke="black" points="847.45,-335.24 851.05,-325.28 842.02,-330.82 847.45,-335.24"/>
</g>
<!-- XOR -->
<g id="node12" class="node">
<title>XOR</title>
<ellipse fill="gray" stroke="black" cx="791.93" cy="-234" rx="27" ry="18"/>
<text text-anchor="middle" x="791.93" y="-231.8" font-family="Times,serif" font-size="9.00">XOR</text>
</g>
<!-- Interacting with Bob&#45;&gt;XOR -->
<g id="edge11" class="edge">
<title>Interacting with Bob&#45;&gt;XOR</title>
<path fill="none" stroke="black" d="M847.64,-287.7C837.88,-278.46 825.75,-266.99 815.31,-257.12"/>
<polygon fill="black" stroke="black" points="817.8,-254.65 808.13,-250.32 812.99,-259.73 817.8,-254.65"/>
</g>
<!-- Chooser -->
<g id="node13" class="node">
<title>Chooser</title>
<polygon fill="cyan" stroke="black" points="895.17,-226.54 895.17,-241.46 878.04,-252 853.82,-252 836.69,-241.46 836.69,-226.54 853.82,-216 878.04,-216 895.17,-226.54"/>
<text text-anchor="middle" x="865.93" y="-231.8" font-family="Times,serif" font-size="9.00">Chooser</text>
</g>
<!-- Interacting with Bob&#45;&gt;Chooser -->
<g id="edge12" class="edge">
<title>Interacting with Bob&#45;&gt;Chooser</title>
<path fill="none" stroke="black" d="M865.93,-287.7C865.93,-280.41 865.93,-271.73 865.93,-263.54"/>
<polygon fill="black" stroke="black" points="869.43,-263.62 865.93,-253.62 862.43,-263.62 869.43,-263.62"/>
</g>
<!-- Option 1 -->
<g id="node14" class="node">
<title>Option 1</title>
<polygon fill="orange" stroke="black" points="774.43,-180 715.43,-180 715.43,-144 774.43,-144 774.43,-180"/>
<text text-anchor="middle" x="744.93" y="-159.8" font-family="Times,serif" font-size="9.00">Ⓜ Option 1</text>
</g>
<!-- Chooser&#45;&gt;Option 1 -->
<g id="edge13" class="edge">
<title>Chooser&#45;&gt;Option 1</title>
<path fill="none" stroke="black" d="M845.13,-220.97C828.48,-211.34 804.66,-197.55 784.41,-185.84"/>
<polygon fill="black" stroke="black" points="786.23,-182.85 775.82,-180.87 782.73,-188.91 786.23,-182.85"/>
</g>
<!-- Option 2 -->
<g id="node20" class="node">
<title>Option 2</title>
<polygon fill="orange" stroke="black" points="895.43,-180 836.43,-180 836.43,-144 895.43,-144 895.43,-180"/>
<text text-anchor="middle" x="865.93" y="-159.8" font-family="Times,serif" font-size="9.00">Ⓜ Option 2</text>
</g>
<!-- Chooser&#45;&gt;Option 2 -->
<g id="edge19" class="edge">
<title>Chooser&#45;&gt;Option 2</title>
<path fill="none" stroke="black" d="M865.93,-215.7C865.93,-208.41 865.93,-199.73 865.93,-191.54"/>
<polygon fill="black" stroke="black" points="869.43,-191.62 865.93,-181.62 862.43,-191.62 869.43,-191.62"/>
</g>
<!-- Enabled? -->
<g id="node15" class="node">
<title>Enabled?</title>
<ellipse fill="gray" stroke="black" cx="659.93" cy="-90" rx="28.08" ry="18"/>
<text text-anchor="middle" x="659.93" y="-87.8" font-family="Times,serif" font-size="9.00">Enabled?</text>
</g>
<!-- Option 1&#45;&gt;Enabled? -->
<g id="edge14" class="edge">
<title>Option 1&#45;&gt;Enabled?</title>
<path fill="none" stroke="black" d="M723.92,-143.7C712.32,-134.15 697.83,-122.21 685.57,-112.12"/>
<polygon fill="black" stroke="black" points="687.83,-109.44 677.89,-105.79 683.38,-114.85 687.83,-109.44"/>
</g>
<!-- Visiting Bob* -->
<g id="node16" class="node">
<title>Visiting Bob*</title>
<polygon fill="orange" stroke="black" points="783.43,-108 706.43,-108 706.43,-72 783.43,-72 783.43,-108"/>
<text text-anchor="middle" x="744.93" y="-87.8" font-family="Times,serif" font-size="9.00">Ⓜ Visiting Bob*</text>
</g>
<!-- Option 1&#45;&gt;Visiting Bob* -->
<g id="edge15" class="edge">
<title>Option 1&#45;&gt;Visiting Bob*</title>
<path fill="none" stroke="black" d="M744.93,-143.7C744.93,-136.41 744.93,-127.73 744.93,-119.54"/>
<polygon fill="black" stroke="black" points="748.43,-119.62 744.93,-109.62 741.43,-119.62 748.43,-119.62"/>
</g>
<!-- Give pill to Bob -->
<g id="node17" class="node">
<title>Give pill to Bob</title>
<ellipse fill="gray" stroke="black" cx="605.93" cy="-18" rx="42.95" ry="18"/>
<text text-anchor="middle" x="605.93" y="-15.8" font-family="Times,serif" font-size="9.00">Give pill to Bob</text>
</g>
<!-- Visiting Bob*&#45;&gt;Give pill to Bob -->
<g id="edge16" class="edge">
<title>Visiting Bob*&#45;&gt;Give pill to Bob</title>
<path fill="none" stroke="black" d="M710.21,-71.52C689.71,-61.19 663.78,-48.13 642.9,-37.62"/>
<polygon fill="black" stroke="black" points="644.65,-34.58 634.15,-33.21 641.51,-40.83 644.65,-34.58"/>
</g>
<!-- Bob takes the pill -->
<g id="node18" class="node">
<title>Bob takes the pill</title>
<ellipse fill="gray" stroke="black" cx="711.93" cy="-18" rx="45.07" ry="18"/>
<text text-anchor="middle" x="711.93" y="-15.8" font-family="Times,serif" font-size="9.00">Bob takes the pill</text>
</g>
<!-- Visiting Bob*&#45;&gt;Bob takes the pill -->
<g id="edge17" class="edge">
<title>Visiting Bob*&#45;&gt;Bob takes the pill</title>
<path fill="none" stroke="black" d="M736.77,-71.7C733.18,-64.07 728.86,-54.92 724.85,-46.4"/>
<polygon fill="black" stroke="black" points="728.07,-45.03 720.64,-37.47 721.74,-48.01 728.07,-45.03"/>
</g>
<!-- Exiting from Bob Room -->
<g id="node19" class="node">
<title>Exiting from Bob Room</title>
<ellipse fill="gray" stroke="black" cx="834.93" cy="-18" rx="59.43" ry="18"/>
<text text-anchor="middle" x="834.93" y="-15.8" font-family="Times,serif" font-size="9.00">Exiting from Bob Room</text>
</g>
<!-- Visiting Bob*&#45;&gt;Exiting from Bob Room -->
<g id="edge18" class="edge">
<title>Visiting Bob*&#45;&gt;Exiting from Bob Room</title>
<path fill="none" stroke="black" d="M767.18,-71.7C778.63,-62.79 792.74,-51.81 805.12,-42.19"/>
<polygon fill="black" stroke="black" points="807.23,-44.98 812.98,-36.07 802.94,-39.45 807.23,-44.98"/>
</g>
<!-- Enabled?* -->
<g id="node21" class="node">
<title>Enabled?*</title>
<ellipse fill="gray" stroke="black" cx="865.93" cy="-90" rx="30.7" ry="18"/>
<text text-anchor="middle" x="865.93" y="-87.8" font-family="Times,serif" font-size="9.00">Enabled?*</text>
</g>
<!-- Option 2&#45;&gt;Enabled?* -->
<g id="edge20" class="edge">
<title>Option 2&#45;&gt;Enabled?*</title>
<path fill="none" stroke="black" d="M865.93,-143.7C865.93,-136.41 865.93,-127.73 865.93,-119.54"/>
<polygon fill="black" stroke="black" points="869.43,-119.62 865.93,-109.62 862.43,-119.62 869.43,-119.62"/>
</g>
<!-- Visiting Bob** -->
<g id="node22" class="node">
<title>Visiting Bob**</title>
<polygon fill="orange" stroke="black" points="997.93,-108 915.93,-108 915.93,-72 997.93,-72 997.93,-108"/>
<text text-anchor="middle" x="956.93" y="-87.8" font-family="Times,serif" font-size="9.00">Ⓜ Visiting Bob**</text>
</g>
<!-- Option 2&#45;&gt;Visiting Bob** -->
<g id="edge21" class="edge">
<title>Option 2&#45;&gt;Visiting Bob**</title>
<path fill="none" stroke="black" d="M888.43,-143.7C899.58,-135.11 913.24,-124.61 925.42,-115.24"/>
<polygon fill="black" stroke="black" points="927.39,-118.14 933.18,-109.27 923.12,-112.59 927.39,-118.14"/>
</g>
<!-- Calling the nurse -->
<g id="node23" class="node">
<title>Calling the nurse</title>
<ellipse fill="gray" stroke="black" cx="956.93" cy="-18" rx="44.41" ry="18"/>
<text text-anchor="middle" x="956.93" y="-15.8" font-family="Times,serif" font-size="9.00">Calling the nurse</text>
</g>
<!-- Visiting Bob**&#45;&gt;Calling the nurse -->
<g id="edge22" class="edge">
<title>Visiting Bob**&#45;&gt;Calling the nurse</title>
<path fill="none" stroke="black" d="M956.93,-71.7C956.93,-64.41 956.93,-55.73 956.93,-47.54"/>
<polygon fill="black" stroke="black" points="960.43,-47.62 956.93,-37.62 953.43,-47.62 960.43,-47.62"/>
</g>
<!-- Going back to base* -->
<g id="node24" class="node">
<title>Going back to base*</title>
<ellipse fill="gray" stroke="black" cx="1070.93" cy="-18" rx="51.27" ry="18"/>
<text text-anchor="middle" x="1070.93" y="-15.8" font-family="Times,serif" font-size="9.00">Going back to base*</text>
</g>
<!-- Visiting Bob**&#45;&gt;Going back to base* -->
<g id="edge23" class="edge">
<title>Visiting Bob**&#45;&gt;Going back to base*</title>
<path fill="none" stroke="black" d="M985.4,-71.52C1000.91,-61.99 1020.22,-50.14 1036.57,-40.1"/>
<polygon fill="black" stroke="black" points="1038.32,-43.13 1045.01,-34.92 1034.66,-37.17 1038.32,-43.13"/>
</g>
<!-- Going to Alice Room -->
<g id="node26" class="node">
<title>Going to Alice Room</title>
<ellipse fill="gray" stroke="black" cx="987.93" cy="-306" rx="53.23" ry="18"/>
<text text-anchor="middle" x="987.93" y="-303.8" font-family="Times,serif" font-size="9.00">Going to Alice Room</text>
</g>
<!-- Visiting Alice&#45;&gt;Going to Alice Room -->
<g id="edge25" class="edge">
<title>Visiting Alice&#45;&gt;Going to Alice Room</title>
<path fill="none" stroke="black" d="M1031.59,-359.7C1024.75,-351.44 1016.43,-341.39 1008.89,-332.3"/>
<polygon fill="black" stroke="black" points="1011.74,-330.25 1002.67,-324.79 1006.35,-334.72 1011.74,-330.25"/>
</g>
<!-- Alice, can I enter? -->
<g id="node27" class="node">
<title>Alice, can I enter?</title>
<ellipse fill="gray" stroke="black" cx="1104.93" cy="-306" rx="46.38" ry="18"/>
<text text-anchor="middle" x="1104.93" y="-303.8" font-family="Times,serif" font-size="9.00">Alice, can I enter?</text>
</g>
<!-- Visiting Alice&#45;&gt;Alice, can I enter? -->
<g id="edge26" class="edge">
<title>Visiting Alice&#45;&gt;Alice, can I enter?</title>
<path fill="none" stroke="black" d="M1060.52,-359.7C1067.48,-351.44 1075.94,-341.39 1083.61,-332.3"/>
<polygon fill="black" stroke="black" points="1086.18,-334.68 1089.95,-324.78 1080.82,-330.17 1086.18,-334.68"/>
</g>
<!-- Interacting with Alice -->
<g id="node28" class="node">
<title>Interacting with Alice</title>
<polygon fill="orange" stroke="black" points="1272.93,-324 1168.93,-324 1168.93,-288 1272.93,-288 1272.93,-324"/>
<text text-anchor="middle" x="1220.93" y="-303.8" font-family="Times,serif" font-size="9.00">Ⓜ Interacting with Alice</text>
</g>
<!-- Visiting Alice&#45;&gt;Interacting with Alice -->
<g id="edge27" class="edge">
<title>Visiting Alice&#45;&gt;Interacting with Alice</title>
<path fill="none" stroke="black" d="M1084.34,-361.64C1108.58,-351.94 1140.27,-339.26 1167.02,-328.56"/>
<polygon fill="black" stroke="black" points="1167.99,-331.95 1175.98,-324.98 1165.39,-325.45 1167.99,-331.95"/>
</g>
<!-- XOR* -->
<g id="node29" class="node">
<title>XOR*</title>
<ellipse fill="gray" stroke="black" cx="1219.93" cy="-234" rx="27" ry="18"/>
<text text-anchor="middle" x="1219.93" y="-231.8" font-family="Times,serif" font-size="9.00">XOR*</text>
</g>
<!-- Interacting with Alice&#45;&gt;XOR* -->
<g id="edge28" class="edge">
<title>Interacting with Alice&#45;&gt;XOR*</title>
<path fill="none" stroke="black" d="M1220.68,-287.7C1220.58,-280.41 1220.46,-271.73 1220.34,-263.54"/>
<polygon fill="black" stroke="black" points="1223.84,-263.57 1220.2,-253.62 1216.84,-263.67 1223.84,-263.57"/>
</g>
<!-- Chooser* -->
<g id="node30" class="node">
<title>Chooser*</title>
<polygon fill="cyan" stroke="black" points="1328.67,-226.54 1328.67,-241.46 1310.08,-252 1283.78,-252 1265.19,-241.46 1265.19,-226.54 1283.78,-216 1310.08,-216 1328.67,-226.54"/>
<text text-anchor="middle" x="1296.93" y="-231.8" font-family="Times,serif" font-size="9.00">Chooser*</text>
</g>
<!-- Interacting with Alice&#45;&gt;Chooser* -->
<g id="edge29" class="edge">
<title>Interacting with Alice&#45;&gt;Chooser*</title>
<path fill="none" stroke="black" d="M1239.72,-287.7C1249.4,-278.78 1261.35,-267.78 1271.81,-258.14"/>
<polygon fill="black" stroke="black" points="1274.07,-260.81 1279.06,-251.46 1269.33,-255.66 1274.07,-260.81"/>
</g>
<!-- Option 1* -->
<g id="node31" class="node">
<title>Option 1*</title>
<polygon fill="orange" stroke="black" points="1328.93,-180 1264.93,-180 1264.93,-144 1328.93,-144 1328.93,-180"/>
<text text-anchor="middle" x="1296.93" y="-159.8" font-family="Times,serif" font-size="9.00">Ⓜ Option 1*</text>
</g>
<!-- Chooser*&#45;&gt;Option 1* -->
<g id="edge30" class="edge">
<title>Chooser*&#45;&gt;Option 1*</title>
<path fill="none" stroke="black" d="M1296.93,-215.7C1296.93,-208.41 1296.93,-199.73 1296.93,-191.54"/>
<polygon fill="black" stroke="black" points="1300.43,-191.62 1296.93,-181.62 1293.43,-191.62 1300.43,-191.62"/>
</g>
<!-- Option 2* -->
<g id="node37" class="node">
<title>Option 2*</title>
<polygon fill="orange" stroke="black" points="1453.93,-180 1389.93,-180 1389.93,-144 1453.93,-144 1453.93,-180"/>
<text text-anchor="middle" x="1421.93" y="-159.8" font-family="Times,serif" font-size="9.00">Ⓜ Option 2*</text>
</g>
<!-- Chooser*&#45;&gt;Option 2* -->
<g id="edge36" class="edge">
<title>Chooser*&#45;&gt;Option 2*</title>
<path fill="none" stroke="black" d="M1318.99,-220.65C1336.1,-211.07 1360.29,-197.52 1380.92,-185.97"/>
<polygon fill="black" stroke="black" points="1382.38,-189.16 1389.39,-181.22 1378.96,-183.05 1382.38,-189.16"/>
</g>
<!-- Enabled?** -->
<g id="node32" class="node">
<title>Enabled?**</title>
<ellipse fill="gray" stroke="black" cx="1205.93" cy="-90" rx="33.47" ry="18"/>
<text text-anchor="middle" x="1205.93" y="-87.8" font-family="Times,serif" font-size="9.00">Enabled?**</text>
</g>
<!-- Option 1*&#45;&gt;Enabled?** -->
<g id="edge31" class="edge">
<title>Option 1*&#45;&gt;Enabled?**</title>
<path fill="none" stroke="black" d="M1274.44,-143.7C1262.07,-134.18 1246.63,-122.3 1233.53,-112.23"/>
<polygon fill="black" stroke="black" points="1235.75,-109.52 1225.69,-106.2 1231.49,-115.07 1235.75,-109.52"/>
</g>
<!-- Visiting Alice* -->
<g id="node33" class="node">
<title>Visiting Alice*</title>
<polygon fill="orange" stroke="black" points="1336.93,-108 1256.93,-108 1256.93,-72 1336.93,-72 1336.93,-108"/>
<text text-anchor="middle" x="1296.93" y="-87.8" font-family="Times,serif" font-size="9.00">Ⓜ Visiting Alice*</text>
</g>
<!-- Option 1*&#45;&gt;Visiting Alice* -->
<g id="edge32" class="edge">
<title>Option 1*&#45;&gt;Visiting Alice*</title>
<path fill="none" stroke="black" d="M1296.93,-143.7C1296.93,-136.41 1296.93,-127.73 1296.93,-119.54"/>
<polygon fill="black" stroke="black" points="1300.43,-119.62 1296.93,-109.62 1293.43,-119.62 1300.43,-119.62"/>
</g>
<!-- Give pill to Alice -->
<g id="node34" class="node">
<title>Give pill to Alice</title>
<ellipse fill="gray" stroke="black" cx="1186.93" cy="-18" rx="44.41" ry="18"/>
<text text-anchor="middle" x="1186.93" y="-15.8" font-family="Times,serif" font-size="9.00">Give pill to Alice</text>
</g>
<!-- Visiting Alice*&#45;&gt;Give pill to Alice -->
<g id="edge33" class="edge">
<title>Visiting Alice*&#45;&gt;Give pill to Alice</title>
<path fill="none" stroke="black" d="M1269.46,-71.52C1254.28,-61.86 1235.34,-49.8 1219.43,-39.68"/>
<polygon fill="black" stroke="black" points="1221.57,-36.89 1211.25,-34.48 1217.81,-42.8 1221.57,-36.89"/>
</g>
<!-- Alice takes the pill -->
<g id="node35" class="node">
<title>Alice takes the pill</title>
<ellipse fill="gray" stroke="black" cx="1296.93" cy="-18" rx="47.19" ry="18"/>
<text text-anchor="middle" x="1296.93" y="-15.8" font-family="Times,serif" font-size="9.00">Alice takes the pill</text>
</g>
<!-- Visiting Alice*&#45;&gt;Alice takes the pill -->
<g id="edge34" class="edge">
<title>Visiting Alice*&#45;&gt;Alice takes the pill</title>
<path fill="none" stroke="black" d="M1296.93,-71.7C1296.93,-64.41 1296.93,-55.73 1296.93,-47.54"/>
<polygon fill="black" stroke="black" points="1300.43,-47.62 1296.93,-37.62 1293.43,-47.62 1300.43,-47.62"/>
</g>
<!-- Exiting from Alice Room -->
<g id="node36" class="node">
<title>Exiting from Alice Room</title>
<ellipse fill="gray" stroke="black" cx="1423.93" cy="-18" rx="61.4" ry="18"/>
<text text-anchor="middle" x="1423.93" y="-15.8" font-family="Times,serif" font-size="9.00">Exiting from Alice Room</text>
</g>
<!-- Visiting Alice*&#45;&gt;Exiting from Alice Room -->
<g id="edge35" class="edge">
<title>Visiting Alice*&#45;&gt;Exiting from Alice Room</title>
<path fill="none" stroke="black" d="M1328.65,-71.52C1346.05,-61.93 1367.74,-49.97 1386.03,-39.89"/>
<polygon fill="black" stroke="black" points="1387.67,-42.98 1394.74,-35.09 1384.29,-36.85 1387.67,-42.98"/>
</g>
<!-- Enabled?*** -->
<g id="node38" class="node">
<title>Enabled?***</title>
<ellipse fill="gray" stroke="black" cx="1421.93" cy="-90" rx="35.59" ry="18"/>
<text text-anchor="middle" x="1421.93" y="-87.8" font-family="Times,serif" font-size="9.00">Enabled?***</text>
</g>
<!-- Option 2*&#45;&gt;Enabled?*** -->
<g id="edge37" class="edge">
<title>Option 2*&#45;&gt;Enabled?***</title>
<path fill="none" stroke="black" d="M1421.93,-143.7C1421.93,-136.41 1421.93,-127.73 1421.93,-119.54"/>
<polygon fill="black" stroke="black" points="1425.43,-119.62 1421.93,-109.62 1418.43,-119.62 1425.43,-119.62"/>
</g>
<!-- Visiting Alice** -->
<g id="node39" class="node">
<title>Visiting Alice**</title>
<polygon fill="orange" stroke="black" points="1592.43,-108 1507.43,-108 1507.43,-72 1592.43,-72 1592.43,-108"/>
<text text-anchor="middle" x="1549.93" y="-87.8" font-family="Times,serif" font-size="9.00">Ⓜ Visiting Alice**</text>
</g>
<!-- Option 2*&#45;&gt;Visiting Alice** -->
<g id="edge38" class="edge">
<title>Option 2*&#45;&gt;Visiting Alice**</title>
<path fill="none" stroke="black" d="M1453.9,-143.52C1470.37,-134.51 1490.64,-123.42 1508.31,-113.76"/>
<polygon fill="black" stroke="black" points="1509.95,-116.86 1517.04,-108.99 1506.59,-110.71 1509.95,-116.86"/>
</g>
<!-- Calling the nurse* -->
<g id="node40" class="node">
<title>Calling the nurse*</title>
<ellipse fill="gray" stroke="black" cx="1549.93" cy="-18" rx="46.53" ry="18"/>
<text text-anchor="middle" x="1549.93" y="-15.8" font-family="Times,serif" font-size="9.00">Calling the nurse*</text>
</g>
<!-- Visiting Alice**&#45;&gt;Calling the nurse* -->
<g id="edge39" class="edge">
<title>Visiting Alice**&#45;&gt;Calling the nurse*</title>
<path fill="none" stroke="black" d="M1549.93,-71.7C1549.93,-64.41 1549.93,-55.73 1549.93,-47.54"/>
<polygon fill="black" stroke="black" points="1553.43,-47.62 1549.93,-37.62 1546.43,-47.62 1553.43,-47.62"/>
</g>
<!-- Going back to base** -->
<g id="node41" class="node">
<title>Going back to base**</title>
<ellipse fill="gray" stroke="black" cx="1668.93" cy="-18" rx="54.04" ry="18"/>
<text text-anchor="middle" x="1668.93" y="-15.8" font-family="Times,serif" font-size="9.00">Going back to base**</text>
</g>
<!-- Visiting Alice**&#45;&gt;Going back to base** -->
<g id="edge40" class="edge">
<title>Visiting Alice**&#45;&gt;Going back to base**</title>
<path fill="none" stroke="black" d="M1579.65,-71.52C1596,-61.9 1616.38,-49.91 1633.54,-39.82"/>
<polygon fill="black" stroke="black" points="1635.07,-42.98 1641.91,-34.89 1631.52,-36.95 1635.07,-42.98"/>
</g>
<!-- Going to the Base -->
<g id="node43" class="node">
<title>Going to the Base</title>
<ellipse fill="gray" stroke="black" cx="1336.93" cy="-306" rx="46.38" ry="18"/>
<text text-anchor="middle" x="1336.93" y="-303.8" font-family="Times,serif" font-size="9.00">Going to the Base</text>
</g>
<!-- Daily tasks completed&#45;&gt;Going to the Base -->
<g id="edge42" class="edge">
<title>Daily tasks completed&#45;&gt;Going to the Base</title>
<path fill="none" stroke="black" d="M1336.93,-359.7C1336.93,-352.41 1336.93,-343.73 1336.93,-335.54"/>
<polygon fill="black" stroke="black" points="1340.43,-335.62 1336.93,-325.62 1333.43,-335.62 1340.43,-335.62"/>
</g>
<!-- Going to sleep -->
<g id="node44" class="node">
<title>Going to sleep</title>
<ellipse fill="gray" stroke="black" cx="1439.93" cy="-306" rx="39.02" ry="18"/>
<text text-anchor="middle" x="1439.93" y="-303.8" font-family="Times,serif" font-size="9.00">Going to sleep</text>
</g>
<!-- Daily tasks completed&#45;&gt;Going to sleep -->
<g id="edge43" class="edge">
<title>Daily tasks completed&#45;&gt;Going to sleep</title>
<path fill="none" stroke="black" d="M1362.66,-359.52C1376.83,-349.88 1394.52,-337.86 1409.39,-327.76"/>
<polygon fill="black" stroke="black" points="1411.14,-330.8 1417.44,-322.29 1407.2,-325.01 1411.14,-330.8"/>
</g>
</g>
</svg>
