<?xml version="1.0" encoding="UTF-8" standalone="no"?>
<!DOCTYPE svg PUBLIC "-//W3C//DTD SVG 1.1//EN"
 "http://www.w3.org/Graphics/SVG/1.1/DTD/svg11.dtd">
<!-- Generated by graphviz version 7.0.4 (20221203.1631)
 -->
<!-- Title: pastafarianism Pages: 1 -->
<svg width="1582pt" height="1052pt"
 viewBox="0.00 0.00 1582.12 1052.00" xmlns="http://www.w3.org/2000/svg" xmlns:xlink="http://www.w3.org/1999/xlink">
<g id="graph0" class="graph" transform="scale(1 1) rotate(0) translate(4 1048)">
<title>pastafarianism</title>
<polygon fill="white" stroke="none" points="-4,4 -4,-1048 1578.12,-1048 1578.12,4 -4,4"/>
<!-- Daily Jobs -->
<g id="node1" class="node">
<title>Daily Jobs</title>
<polygon fill="orange" stroke="black" points="1036.93,-1044 970.93,-1044 970.93,-1008 1036.93,-1008 1036.93,-1044"/>
<text text-anchor="middle" x="1003.93" y="-1023.8" font-family="Times,serif" font-size="9.00">Ⓜ Daily Jobs</text>
</g>
<!-- Go to medical room -->
<g id="node2" class="node">
<title>Go to medical room</title>
<polygon fill="orange" stroke="black" points="378.93,-972 280.93,-972 280.93,-936 378.93,-936 378.93,-972"/>
<text text-anchor="middle" x="329.93" y="-951.8" font-family="Times,serif" font-size="9.00">Ⓜ Go to medical room</text>
</g>
<!-- Daily Jobs&#45;&gt;Go to medical room -->
<g id="edge1" class="edge">
<title>Daily Jobs&#45;&gt;Go to medical room</title>
<path fill="none" stroke="black" d="M970.51,-1021.53C863.55,-1010.42 528.6,-975.63 390.44,-961.28"/>
<polygon fill="black" stroke="black" points="391.08,-957.83 380.77,-960.28 390.36,-964.79 391.08,-957.83"/>
</g>
<!-- Visiting Alice -->
<g id="node8" class="node">
<title>Visiting Alice</title>
<polygon fill="orange" stroke="black" points="943.93,-972 867.93,-972 867.93,-936 943.93,-936 943.93,-972"/>
<text text-anchor="middle" x="905.93" y="-951.8" font-family="Times,serif" font-size="9.00">Ⓜ Visiting Alice</text>
</g>
<!-- Daily Jobs&#45;&gt;Visiting Alice -->
<g id="edge7" class="edge">
<title>Daily Jobs&#45;&gt;Visiting Alice</title>
<path fill="none" stroke="black" d="M979.45,-1007.52C967.32,-998.85 952.48,-988.25 939.32,-978.85"/>
<polygon fill="black" stroke="black" points="941.5,-976.1 931.33,-973.14 937.43,-981.8 941.5,-976.1"/>
</g>
<!-- Visiting Bob -->
<g id="node53" class="node">
<title>Visiting Bob</title>
<polygon fill="orange" stroke="black" points="1295.43,-684 1222.43,-684 1222.43,-648 1295.43,-648 1295.43,-684"/>
<text text-anchor="middle" x="1258.93" y="-663.8" font-family="Times,serif" font-size="9.00">Ⓜ Visiting Bob</text>
</g>
<!-- Daily Jobs&#45;&gt;Visiting Bob -->
<g id="edge55" class="edge">
<title>Daily Jobs&#45;&gt;Visiting Bob</title>
<path fill="none" stroke="black" d="M1029.53,-1007.63C1061.46,-983.66 1111.93,-937.2 1111.93,-883 1111.93,-883 1111.93,-883 1111.93,-809 1111.93,-752.33 1169.14,-711.11 1212.17,-688.11"/>
<polygon fill="black" stroke="black" points="1213.59,-691.32 1220.87,-683.62 1210.38,-685.1 1213.59,-691.32"/>
</g>
<!-- Daily tasks completed -->
<g id="node66" class="node">
<title>Daily tasks completed</title>
<polygon fill="orange" stroke="black" points="1245.93,-972 1139.93,-972 1139.93,-936 1245.93,-936 1245.93,-972"/>
<text text-anchor="middle" x="1192.93" y="-951.8" font-family="Times,serif" font-size="9.00">Ⓜ Daily tasks completed</text>
</g>
<!-- Daily Jobs&#45;&gt;Daily tasks completed -->
<g id="edge70" class="edge">
<title>Daily Jobs&#45;&gt;Daily tasks completed</title>
<path fill="none" stroke="black" d="M1037.29,-1012.65C1064.33,-1002.63 1103.07,-988.28 1135.14,-976.41"/>
<polygon fill="black" stroke="black" points="1136.15,-979.76 1144.31,-973.01 1133.72,-973.2 1136.15,-979.76"/>
</g>
<!-- Moving to Medical Room -->
<g id="node3" class="node">
<title>Moving to Medical Room</title>
<ellipse fill="gray" stroke="black" cx="62.93" cy="-882" rx="62.86" ry="18"/>
<text text-anchor="middle" x="62.93" y="-879.8" font-family="Times,serif" font-size="9.00">Moving to Medical Room</text>
</g>
<!-- Go to medical room&#45;&gt;Moving to Medical Room -->
<g id="edge2" class="edge">
<title>Go to medical room&#45;&gt;Moving to Medical Room</title>
<path fill="none" stroke="black" d="M280.65,-940.08C234.89,-928.08 166.83,-910.24 119.01,-897.7"/>
<polygon fill="black" stroke="black" points="119.95,-894.33 109.39,-895.18 118.18,-901.1 119.95,-894.33"/>
</g>
<!-- Taking the Pills -->
<g id="node4" class="node">
<title>Taking the Pills</title>
<ellipse fill="gray" stroke="black" cx="184.93" cy="-882" rx="40.98" ry="18"/>
<text text-anchor="middle" x="184.93" y="-879.8" font-family="Times,serif" font-size="9.00">Taking the Pills</text>
</g>
<!-- Go to medical room&#45;&gt;Taking the Pills -->
<g id="edge3" class="edge">
<title>Go to medical room&#45;&gt;Taking the Pills</title>
<path fill="none" stroke="black" d="M293.72,-935.52C271.8,-924.94 243.93,-911.48 221.88,-900.84"/>
<polygon fill="black" stroke="black" points="223.47,-897.72 212.94,-896.52 220.43,-904.02 223.47,-897.72"/>
</g>
<!-- Take Pills -->
<g id="node5" class="node">
<title>Take Pills</title>
<ellipse fill="gray" stroke="black" cx="272.93" cy="-882" rx="29.39" ry="18"/>
<text text-anchor="middle" x="272.93" y="-879.8" font-family="Times,serif" font-size="9.00">Take Pills</text>
</g>
<!-- Go to medical room&#45;&gt;Take Pills -->
<g id="edge4" class="edge">
<title>Go to medical room&#45;&gt;Take Pills</title>
<path fill="none" stroke="black" d="M315.84,-935.7C308.92,-927.19 300.46,-916.8 292.88,-907.5"/>
<polygon fill="black" stroke="black" points="295.68,-905.39 286.65,-899.84 290.25,-909.81 295.68,-905.39"/>
</g>
<!-- Exiting from Medical Room -->
<g id="node6" class="node">
<title>Exiting from Medical Room</title>
<ellipse fill="gray" stroke="black" cx="386.93" cy="-882" rx="66.95" ry="18"/>
<text text-anchor="middle" x="386.93" y="-879.8" font-family="Times,serif" font-size="9.00">Exiting from Medical Room</text>
</g>
<!-- Go to medical room&#45;&gt;Exiting from Medical Room -->
<g id="edge5" class="edge">
<title>Go to medical room&#45;&gt;Exiting from Medical Room</title>
<path fill="none" stroke="black" d="M344.02,-935.7C350.75,-927.44 358.92,-917.39 366.33,-908.3"/>
<polygon fill="black" stroke="black" points="368.84,-910.76 372.44,-900.8 363.41,-906.34 368.84,-910.76"/>
</g>
<!-- Going back to base -->
<g id="node7" class="node">
<title>Going back to base</title>
<ellipse fill="gray" stroke="black" cx="520.93" cy="-882" rx="49.15" ry="18"/>
<text text-anchor="middle" x="520.93" y="-879.8" font-family="Times,serif" font-size="9.00">Going back to base</text>
</g>
<!-- Go to medical room&#45;&gt;Going back to base -->
<g id="edge6" class="edge">
<title>Go to medical room&#45;&gt;Going back to base</title>
<path fill="none" stroke="black" d="M377.64,-935.52C407.95,-924.41 446.91,-910.13 476.55,-899.26"/>
<polygon fill="black" stroke="black" points="477.42,-902.68 485.6,-895.95 475.01,-896.1 477.42,-902.68"/>
</g>
<!-- Going to Alice Room -->
<g id="node9" class="node">
<title>Going to Alice Room</title>
<ellipse fill="gray" stroke="black" cx="640.93" cy="-882" rx="53.23" ry="18"/>
<text text-anchor="middle" x="640.93" y="-879.8" font-family="Times,serif" font-size="9.00">Going to Alice Room</text>
</g>
<!-- Visiting Alice&#45;&gt;Going to Alice Room -->
<g id="edge8" class="edge">
<title>Visiting Alice&#45;&gt;Going to Alice Room</title>
<path fill="none" stroke="black" d="M867.73,-943.18C826.9,-932.64 760.28,-915.35 702.93,-900 699.43,-899.06 695.81,-898.09 692.17,-897.1"/>
<polygon fill="black" stroke="black" points="693.29,-893.78 682.73,-894.53 691.46,-900.54 693.29,-893.78"/>
</g>
<!-- Process Alice privacy rules -->
<g id="node10" class="node">
<title>Process Alice privacy rules</title>
<ellipse fill="gray" stroke="black" cx="776.93" cy="-882" rx="65.48" ry="18"/>
<text text-anchor="middle" x="776.93" y="-879.8" font-family="Times,serif" font-size="9.00">Process Alice privacy rules</text>
</g>
<!-- Visiting Alice&#45;&gt;Process Alice privacy rules -->
<g id="edge9" class="edge">
<title>Visiting Alice&#45;&gt;Process Alice privacy rules</title>
<path fill="none" stroke="black" d="M873.71,-935.52C856.08,-925.95 834.12,-914.03 815.57,-903.97"/>
<polygon fill="black" stroke="black" points="817.45,-901.01 807,-899.31 814.12,-907.16 817.45,-901.01"/>
</g>
<!-- Alice, can I enter? -->
<g id="node11" class="node">
<title>Alice, can I enter?</title>
<ellipse fill="gray" stroke="black" cx="905.93" cy="-882" rx="46.38" ry="18"/>
<text text-anchor="middle" x="905.93" y="-879.8" font-family="Times,serif" font-size="9.00">Alice, can I enter?</text>
</g>
<!-- Visiting Alice&#45;&gt;Alice, can I enter? -->
<g id="edge10" class="edge">
<title>Visiting Alice&#45;&gt;Alice, can I enter?</title>
<path fill="none" stroke="black" d="M905.93,-935.7C905.93,-928.41 905.93,-919.73 905.93,-911.54"/>
<polygon fill="black" stroke="black" points="909.43,-911.62 905.93,-901.62 902.43,-911.62 909.43,-911.62"/>
</g>
<!-- Interacting with Alice -->
<g id="node12" class="node">
<title>Interacting with Alice</title>
<polygon fill="orange" stroke="black" points="1073.93,-900 969.93,-900 969.93,-864 1073.93,-864 1073.93,-900"/>
<text text-anchor="middle" x="1021.93" y="-879.8" font-family="Times,serif" font-size="9.00">Ⓜ Interacting with Alice</text>
</g>
<!-- Visiting Alice&#45;&gt;Interacting with Alice -->
<g id="edge11" class="edge">
<title>Visiting Alice&#45;&gt;Interacting with Alice</title>
<path fill="none" stroke="black" d="M934.9,-935.52C949.69,-926.6 967.86,-915.63 983.77,-906.03"/>
<polygon fill="black" stroke="black" points="985.28,-909.21 992.03,-901.04 981.66,-903.21 985.28,-909.21"/>
</g>
<!-- XOR -->
<g id="node13" class="node">
<title>XOR</title>
<ellipse fill="gray" stroke="black" cx="942.93" cy="-810" rx="27" ry="18"/>
<text text-anchor="middle" x="942.93" y="-807.8" font-family="Times,serif" font-size="9.00">XOR</text>
</g>
<!-- Interacting with Alice&#45;&gt;XOR -->
<g id="edge12" class="edge">
<title>Interacting with Alice&#45;&gt;XOR</title>
<path fill="none" stroke="black" d="M1002.4,-863.7C991.8,-854.3 978.6,-842.61 967.33,-832.62"/>
<polygon fill="black" stroke="black" points="969.73,-830.07 959.92,-826.05 965.09,-835.31 969.73,-830.07"/>
</g>
<!-- Chooser -->
<g id="node14" class="node">
<title>Chooser</title>
<polygon fill="cyan" stroke="black" points="1046.17,-802.54 1046.17,-817.46 1029.04,-828 1004.82,-828 987.69,-817.46 987.69,-802.54 1004.82,-792 1029.04,-792 1046.17,-802.54"/>
<text text-anchor="middle" x="1016.93" y="-807.8" font-family="Times,serif" font-size="9.00">Chooser</text>
</g>
<!-- Interacting with Alice&#45;&gt;Chooser -->
<g id="edge13" class="edge">
<title>Interacting with Alice&#45;&gt;Chooser</title>
<path fill="none" stroke="black" d="M1020.7,-863.7C1020.17,-856.41 1019.55,-847.73 1018.97,-839.54"/>
<polygon fill="black" stroke="black" points="1022.46,-839.34 1018.26,-829.61 1015.48,-839.84 1022.46,-839.34"/>
</g>
<!-- Interacting with Alice [Option 1] -->
<g id="node15" class="node">
<title>Interacting with Alice [Option 1]</title>
<polygon fill="orange" stroke="black" points="792.43,-756 649.43,-756 649.43,-720 792.43,-720 792.43,-756"/>
<text text-anchor="middle" x="720.93" y="-735.8" font-family="Times,serif" font-size="9.00">Ⓜ Interacting with Alice [Option 1]</text>
</g>
<!-- Chooser&#45;&gt;Interacting with Alice [Option 1] -->
<g id="edge14" class="edge">
<title>Chooser&#45;&gt;Interacting with Alice [Option 1]</title>
<path fill="none" stroke="black" d="M994.34,-797.93C989.34,-795.75 984.02,-793.64 978.93,-792 921.78,-773.59 855.37,-760.12 804.24,-751.37"/>
<polygon fill="black" stroke="black" points="804.85,-747.92 794.41,-749.71 803.69,-754.82 804.85,-747.92"/>
</g>
<!-- Interacting with Alice [Option 2] -->
<g id="node51" class="node">
<title>Interacting with Alice [Option 2]</title>
<polygon fill="orange" stroke="black" points="1083.43,-756 940.43,-756 940.43,-720 1083.43,-720 1083.43,-756"/>
<text text-anchor="middle" x="1011.93" y="-735.8" font-family="Times,serif" font-size="9.00">Ⓜ Interacting with Alice [Option 2]</text>
</g>
<!-- Chooser&#45;&gt;Interacting with Alice [Option 2] -->
<g id="edge50" class="edge">
<title>Chooser&#45;&gt;Interacting with Alice [Option 2]</title>
<path fill="none" stroke="black" d="M1015.7,-791.7C1015.17,-784.41 1014.55,-775.73 1013.97,-767.54"/>
<polygon fill="black" stroke="black" points="1017.46,-767.34 1013.26,-757.61 1010.48,-767.84 1017.46,-767.34"/>
</g>
<!-- Enabled? -->
<g id="node16" class="node">
<title>Enabled?</title>
<ellipse fill="gray" stroke="black" cx="635.93" cy="-666" rx="28.08" ry="18"/>
<text text-anchor="middle" x="635.93" y="-663.8" font-family="Times,serif" font-size="9.00">Enabled?</text>
</g>
<!-- Interacting with Alice [Option 1]&#45;&gt;Enabled? -->
<g id="edge15" class="edge">
<title>Interacting with Alice [Option 1]&#45;&gt;Enabled?</title>
<path fill="none" stroke="black" d="M699.92,-719.7C688.32,-710.15 673.83,-698.21 661.57,-688.12"/>
<polygon fill="black" stroke="black" points="663.83,-685.44 653.89,-681.79 659.38,-690.85 663.83,-685.44"/>
</g>
<!-- Entering Alice -->
<g id="node17" class="node">
<title>Entering Alice</title>
<polygon fill="orange" stroke="black" points="759.93,-684 681.93,-684 681.93,-648 759.93,-648 759.93,-684"/>
<text text-anchor="middle" x="720.93" y="-663.8" font-family="Times,serif" font-size="9.00">Ⓜ Entering Alice</text>
</g>
<!-- Interacting with Alice [Option 1]&#45;&gt;Entering Alice -->
<g id="edge16" class="edge">
<title>Interacting with Alice [Option 1]&#45;&gt;Entering Alice</title>
<path fill="none" stroke="black" d="M720.93,-719.7C720.93,-712.41 720.93,-703.73 720.93,-695.54"/>
<polygon fill="black" stroke="black" points="724.43,-695.62 720.93,-685.62 717.43,-695.62 724.43,-695.62"/>
</g>
<!-- Check health status 1 -->
<g id="node18" class="node">
<title>Check health status 1</title>
<ellipse fill="gray" stroke="black" cx="359.93" cy="-594" rx="53.23" ry="18"/>
<text text-anchor="middle" x="359.93" y="-591.8" font-family="Times,serif" font-size="9.00">Check health status 1</text>
</g>
<!-- Entering Alice&#45;&gt;Check health status 1 -->
<g id="edge17" class="edge">
<title>Entering Alice&#45;&gt;Check health status 1</title>
<path fill="none" stroke="black" d="M681.57,-650.36C678.66,-649.5 675.76,-648.7 672.93,-648 563.5,-621.06 532.27,-634.95 421.93,-612 418.1,-611.2 414.15,-610.31 410.2,-609.35"/>
<polygon fill="black" stroke="black" points="411.13,-605.98 400.58,-606.91 409.41,-612.76 411.13,-605.98"/>
</g>
<!-- Check health status 2 -->
<g id="node19" class="node">
<title>Check health status 2</title>
<ellipse fill="gray" stroke="black" cx="483.93" cy="-594" rx="53.23" ry="18"/>
<text text-anchor="middle" x="483.93" y="-591.8" font-family="Times,serif" font-size="9.00">Check health status 2</text>
</g>
<!-- Entering Alice&#45;&gt;Check health status 2 -->
<g id="edge18" class="edge">
<title>Entering Alice&#45;&gt;Check health status 2</title>
<path fill="none" stroke="black" d="M681.45,-650.78C678.57,-649.82 675.71,-648.88 672.93,-648 659.65,-643.79 586.24,-623.34 534.92,-609.11"/>
<polygon fill="black" stroke="black" points="536.05,-605.79 525.47,-606.49 534.18,-612.53 536.05,-605.79"/>
</g>
<!-- Check health status 3 -->
<g id="node20" class="node">
<title>Check health status 3</title>
<polygon fill="orange" stroke="black" points="658.43,-612 555.43,-612 555.43,-576 658.43,-576 658.43,-612"/>
<text text-anchor="middle" x="606.93" y="-591.8" font-family="Times,serif" font-size="9.00">Ⓜ Check health status 3</text>
</g>
<!-- Entering Alice&#45;&gt;Check health status 3 -->
<g id="edge19" class="edge">
<title>Entering Alice&#45;&gt;Check health status 3</title>
<path fill="none" stroke="black" d="M692.46,-647.52C677.93,-638.6 660.07,-627.63 644.44,-618.03"/>
<polygon fill="black" stroke="black" points="646.68,-615.3 636.33,-613.05 643.02,-621.27 646.68,-615.3"/>
</g>
<!-- Give pill to Alice -->
<g id="node48" class="node">
<title>Give pill to Alice</title>
<ellipse fill="gray" stroke="black" cx="720.93" cy="-594" rx="44.41" ry="18"/>
<text text-anchor="middle" x="720.93" y="-591.8" font-family="Times,serif" font-size="9.00">Give pill to Alice</text>
</g>
<!-- Entering Alice&#45;&gt;Give pill to Alice -->
<g id="edge47" class="edge">
<title>Entering Alice&#45;&gt;Give pill to Alice</title>
<path fill="none" stroke="black" d="M720.93,-647.7C720.93,-640.41 720.93,-631.73 720.93,-623.54"/>
<polygon fill="black" stroke="black" points="724.43,-623.62 720.93,-613.62 717.43,-623.62 724.43,-623.62"/>
</g>
<!-- Alice takes the pill -->
<g id="node49" class="node">
<title>Alice takes the pill</title>
<ellipse fill="gray" stroke="black" cx="830.93" cy="-594" rx="47.19" ry="18"/>
<text text-anchor="middle" x="830.93" y="-591.8" font-family="Times,serif" font-size="9.00">Alice takes the pill</text>
</g>
<!-- Entering Alice&#45;&gt;Alice takes the pill -->
<g id="edge48" class="edge">
<title>Entering Alice&#45;&gt;Alice takes the pill</title>
<path fill="none" stroke="black" d="M748.41,-647.52C763.48,-637.93 782.26,-625.97 798.1,-615.89"/>
<polygon fill="black" stroke="black" points="799.69,-619.03 806.25,-610.71 795.93,-613.12 799.69,-619.03"/>
</g>
<!-- Exiting from Alice Room -->
<g id="node50" class="node">
<title>Exiting from Alice Room</title>
<ellipse fill="gray" stroke="black" cx="957.93" cy="-594" rx="61.4" ry="18"/>
<text text-anchor="middle" x="957.93" y="-591.8" font-family="Times,serif" font-size="9.00">Exiting from Alice Room</text>
</g>
<!-- Entering Alice&#45;&gt;Exiting from Alice Room -->
<g id="edge49" class="edge">
<title>Entering Alice&#45;&gt;Exiting from Alice Room</title>
<path fill="none" stroke="black" d="M760.33,-653.36C799.81,-641.7 860.83,-623.68 904.62,-610.75"/>
<polygon fill="black" stroke="black" points="905.58,-614.11 914.18,-607.92 903.6,-607.4 905.58,-614.11"/>
</g>
<!-- XOR* -->
<g id="node21" class="node">
<title>XOR*</title>
<ellipse fill="gray" stroke="black" cx="606.93" cy="-522" rx="27" ry="18"/>
<text text-anchor="middle" x="606.93" y="-519.8" font-family="Times,serif" font-size="9.00">XOR*</text>
</g>
<!-- Check health status 3&#45;&gt;XOR* -->
<g id="edge20" class="edge">
<title>Check health status 3&#45;&gt;XOR*</title>
<path fill="none" stroke="black" d="M606.93,-575.7C606.93,-568.41 606.93,-559.73 606.93,-551.54"/>
<polygon fill="black" stroke="black" points="610.43,-551.62 606.93,-541.62 603.43,-551.62 610.43,-551.62"/>
</g>
<!-- Chooser* -->
<g id="node22" class="node">
<title>Chooser*</title>
<polygon fill="cyan" stroke="black" points="739.67,-514.54 739.67,-529.46 721.08,-540 694.78,-540 676.19,-529.46 676.19,-514.54 694.78,-504 721.08,-504 739.67,-514.54"/>
<text text-anchor="middle" x="707.93" y="-519.8" font-family="Times,serif" font-size="9.00">Chooser*</text>
</g>
<!-- Check health status 3&#45;&gt;Chooser* -->
<g id="edge21" class="edge">
<title>Check health status 3&#45;&gt;Chooser*</title>
<path fill="none" stroke="black" d="M632.16,-575.52C646.34,-565.68 664.12,-553.37 678.88,-543.13"/>
<polygon fill="black" stroke="black" points="680.62,-546.19 686.84,-537.62 676.63,-540.44 680.62,-546.19"/>
</g>
<!-- Check health status 3 [Option 1] -->
<g id="node23" class="node">
<title>Check health status 3 [Option 1]</title>
<polygon fill="orange" stroke="black" points="779.43,-468 636.43,-468 636.43,-432 779.43,-432 779.43,-468"/>
<text text-anchor="middle" x="707.93" y="-447.8" font-family="Times,serif" font-size="9.00">Ⓜ Check health status 3 [Option 1]</text>
</g>
<!-- Chooser*&#45;&gt;Check health status 3 [Option 1] -->
<g id="edge22" class="edge">
<title>Chooser*&#45;&gt;Check health status 3 [Option 1]</title>
<path fill="none" stroke="black" d="M707.93,-503.7C707.93,-496.41 707.93,-487.73 707.93,-479.54"/>
<polygon fill="black" stroke="black" points="711.43,-479.62 707.93,-469.62 704.43,-479.62 711.43,-479.62"/>
</g>
<!-- Check health status 3 [Option 2] -->
<g id="node43" class="node">
<title>Check health status 3 [Option 2]</title>
<polygon fill="orange" stroke="black" points="967.43,-468 824.43,-468 824.43,-432 967.43,-432 967.43,-468"/>
<text text-anchor="middle" x="895.93" y="-447.8" font-family="Times,serif" font-size="9.00">Ⓜ Check health status 3 [Option 2]</text>
</g>
<!-- Chooser*&#45;&gt;Check health status 3 [Option 2] -->
<g id="edge42" class="edge">
<title>Chooser*&#45;&gt;Check health status 3 [Option 2]</title>
<path fill="none" stroke="black" d="M734.47,-511.12C761.44,-501.08 804.06,-485.21 838.74,-472.29"/>
<polygon fill="black" stroke="black" points="839.66,-475.69 847.81,-468.92 837.22,-469.13 839.66,-475.69"/>
</g>
<!-- Enabled?* -->
<g id="node24" class="node">
<title>Enabled?*</title>
<ellipse fill="gray" stroke="black" cx="665.93" cy="-378" rx="30.7" ry="18"/>
<text text-anchor="middle" x="665.93" y="-375.8" font-family="Times,serif" font-size="9.00">Enabled?*</text>
</g>
<!-- Check health status 3 [Option 1]&#45;&gt;Enabled?* -->
<g id="edge23" class="edge">
<title>Check health status 3 [Option 1]&#45;&gt;Enabled?*</title>
<path fill="none" stroke="black" d="M697.55,-431.7C692.68,-423.58 686.77,-413.74 681.39,-404.76"/>
<polygon fill="black" stroke="black" points="684.54,-403.22 676.4,-396.44 678.54,-406.82 684.54,-403.22"/>
</g>
<!-- Step 2 Alice -->
<g id="node25" class="node">
<title>Step 2 Alice</title>
<polygon fill="orange" stroke="black" points="785.43,-396 714.43,-396 714.43,-360 785.43,-360 785.43,-396"/>
<text text-anchor="middle" x="749.93" y="-375.8" font-family="Times,serif" font-size="9.00">Ⓜ Step 2 Alice</text>
</g>
<!-- Check health status 3 [Option 1]&#45;&gt;Step 2 Alice -->
<g id="edge24" class="edge">
<title>Check health status 3 [Option 1]&#45;&gt;Step 2 Alice</title>
<path fill="none" stroke="black" d="M718.31,-431.7C722.99,-423.9 728.63,-414.51 733.83,-405.83"/>
<polygon fill="black" stroke="black" points="736.75,-407.78 738.89,-397.4 730.74,-404.18 736.75,-407.78"/>
</g>
<!-- Calling Alice legal guardian -->
<g id="node26" class="node">
<title>Calling Alice legal guardian</title>
<ellipse fill="gray" stroke="black" cx="688.93" cy="-306" rx="65.64" ry="18"/>
<text text-anchor="middle" x="688.93" y="-303.8" font-family="Times,serif" font-size="9.00">Calling Alice legal guardian</text>
</g>
<!-- Step 2 Alice&#45;&gt;Calling Alice legal guardian -->
<g id="edge25" class="edge">
<title>Step 2 Alice&#45;&gt;Calling Alice legal guardian</title>
<path fill="none" stroke="black" d="M734.85,-359.7C727.66,-351.44 718.9,-341.39 710.98,-332.3"/>
<polygon fill="black" stroke="black" points="713.62,-330 704.41,-324.76 708.34,-334.6 713.62,-330"/>
</g>
<!-- Guardian Answered -->
<g id="node27" class="node">
<title>Guardian Answered</title>
<polygon fill="orange" stroke="black" points="871.43,-324 772.43,-324 772.43,-288 871.43,-288 871.43,-324"/>
<text text-anchor="middle" x="821.93" y="-303.8" font-family="Times,serif" font-size="9.00">Ⓜ Guardian Answered</text>
</g>
<!-- Step 2 Alice&#45;&gt;Guardian Answered -->
<g id="edge26" class="edge">
<title>Step 2 Alice&#45;&gt;Guardian Answered</title>
<path fill="none" stroke="black" d="M767.73,-359.7C776.21,-351.45 786.52,-341.43 795.86,-332.35"/>
<polygon fill="black" stroke="black" points="798.27,-334.88 803,-325.4 793.39,-329.86 798.27,-334.88"/>
</g>
<!-- XOR** -->
<g id="node28" class="node">
<title>XOR**</title>
<ellipse fill="gray" stroke="black" cx="753.93" cy="-234" rx="27" ry="18"/>
<text text-anchor="middle" x="753.93" y="-231.8" font-family="Times,serif" font-size="9.00">XOR**</text>
</g>
<!-- Guardian Answered&#45;&gt;XOR** -->
<g id="edge27" class="edge">
<title>Guardian Answered&#45;&gt;XOR**</title>
<path fill="none" stroke="black" d="M805.12,-287.7C796.36,-278.68 785.53,-267.53 776.1,-257.82"/>
<polygon fill="black" stroke="black" points="778.78,-255.56 769.3,-250.82 773.76,-260.44 778.78,-255.56"/>
</g>
<!-- Chooser** -->
<g id="node29" class="node">
<title>Chooser**</title>
<polygon fill="cyan" stroke="black" points="868.92,-226.54 868.92,-241.46 848.42,-252 819.44,-252 798.94,-241.46 798.94,-226.54 819.44,-216 848.42,-216 868.92,-226.54"/>
<text text-anchor="middle" x="833.93" y="-231.8" font-family="Times,serif" font-size="9.00">Chooser**</text>
</g>
<!-- Guardian Answered&#45;&gt;Chooser** -->
<g id="edge28" class="edge">
<title>Guardian Answered&#45;&gt;Chooser**</title>
<path fill="none" stroke="black" d="M824.9,-287.7C826.16,-280.32 827.67,-271.52 829.09,-263.25"/>
<polygon fill="black" stroke="black" points="832.5,-264.04 830.74,-253.6 825.6,-262.86 832.5,-264.04"/>
</g>
<!-- Guardian Answered [Option 1] -->
<g id="node30" class="node">
<title>Guardian Answered [Option 1]</title>
<polygon fill="orange" stroke="black" points="843.43,-180 704.43,-180 704.43,-144 843.43,-144 843.43,-180"/>
<text text-anchor="middle" x="773.93" y="-159.8" font-family="Times,serif" font-size="9.00">Ⓜ Guardian Answered [Option 1]</text>
</g>
<!-- Chooser**&#45;&gt;Guardian Answered [Option 1] -->
<g id="edge29" class="edge">
<title>Chooser**&#45;&gt;Guardian Answered [Option 1]</title>
<path fill="none" stroke="black" d="M819.1,-215.7C812.12,-207.56 803.66,-197.69 795.96,-188.7"/>
<polygon fill="black" stroke="black" points="798.74,-186.57 789.58,-181.25 793.43,-191.12 798.74,-186.57"/>
</g>
<!-- Guardian Answered [Option 2] -->
<g id="node38" class="node">
<title>Guardian Answered [Option 2]</title>
<polygon fill="orange" stroke="black" points="1012.43,-180 873.43,-180 873.43,-144 1012.43,-144 1012.43,-180"/>
<text text-anchor="middle" x="942.93" y="-159.8" font-family="Times,serif" font-size="9.00">Ⓜ Guardian Answered [Option 2]</text>
</g>
<!-- Chooser**&#45;&gt;Guardian Answered [Option 2] -->
<g id="edge37" class="edge">
<title>Chooser**&#45;&gt;Guardian Answered [Option 2]</title>
<path fill="none" stroke="black" d="M855.47,-219.17C869.99,-209.84 889.51,-197.31 906.43,-186.44"/>
<polygon fill="black" stroke="black" points="908.23,-189.44 914.76,-181.09 904.45,-183.55 908.23,-189.44"/>
</g>
<!-- Enabled?** -->
<g id="node31" class="node">
<title>Enabled?**</title>
<ellipse fill="gray" stroke="black" cx="686.93" cy="-90" rx="33.47" ry="18"/>
<text text-anchor="middle" x="686.93" y="-87.8" font-family="Times,serif" font-size="9.00">Enabled?**</text>
</g>
<!-- Guardian Answered [Option 1]&#45;&gt;Enabled?** -->
<g id="edge30" class="edge">
<title>Guardian Answered [Option 1]&#45;&gt;Enabled?**</title>
<path fill="none" stroke="black" d="M752.43,-143.7C740.68,-134.25 726.04,-122.47 713.58,-112.44"/>
<polygon fill="black" stroke="black" points="716.13,-110 706.14,-106.46 711.74,-115.45 716.13,-110"/>
</g>
<!-- Step 3 Alice -->
<g id="node32" class="node">
<title>Step 3 Alice</title>
<polygon fill="orange" stroke="black" points="809.43,-108 738.43,-108 738.43,-72 809.43,-72 809.43,-108"/>
<text text-anchor="middle" x="773.93" y="-87.8" font-family="Times,serif" font-size="9.00">Ⓜ Step 3 Alice</text>
</g>
<!-- Guardian Answered [Option 1]&#45;&gt;Step 3 Alice -->
<g id="edge31" class="edge">
<title>Guardian Answered [Option 1]&#45;&gt;Step 3 Alice</title>
<path fill="none" stroke="black" d="M773.93,-143.7C773.93,-136.41 773.93,-127.73 773.93,-119.54"/>
<polygon fill="black" stroke="black" points="777.43,-119.62 773.93,-109.62 770.43,-119.62 777.43,-119.62"/>
</g>
<!-- Alice legal guardian answered -->
<g id="node33" class="node">
<title>Alice legal guardian answered</title>
<ellipse fill="gray" stroke="black" cx="304.93" cy="-18" rx="71.03" ry="18"/>
<text text-anchor="middle" x="304.93" y="-15.8" font-family="Times,serif" font-size="9.00">Alice legal guardian answered</text>
</g>
<!-- Step 3 Alice&#45;&gt;Alice legal guardian answered -->
<g id="edge32" class="edge">
<title>Step 3 Alice&#45;&gt;Alice legal guardian answered</title>
<path fill="none" stroke="black" d="M738.33,-74.6C735.18,-73.62 732.02,-72.73 728.93,-72 579.35,-36.54 536.77,-60.01 384.93,-36 379.29,-35.11 373.45,-34.08 367.61,-32.97"/>
<polygon fill="black" stroke="black" points="368.4,-29.56 357.91,-31.07 367.05,-36.43 368.4,-29.56"/>
</g>
<!-- Alice legal guardian answered* -->
<g id="node34" class="node">
<title>Alice legal guardian answered*</title>
<ellipse fill="gray" stroke="black" cx="467.93" cy="-18" rx="73.8" ry="18"/>
<text text-anchor="middle" x="467.93" y="-15.8" font-family="Times,serif" font-size="9.00">Alice legal guardian answered*</text>
</g>
<!-- Step 3 Alice&#45;&gt;Alice legal guardian answered* -->
<g id="edge33" class="edge">
<title>Step 3 Alice&#45;&gt;Alice legal guardian answered*</title>
<path fill="none" stroke="black" d="M738.25,-74.92C735.12,-73.87 731.98,-72.88 728.93,-72 651.37,-49.67 630.02,-52.1 550.93,-36 545.4,-34.87 539.66,-33.7 533.9,-32.53"/>
<polygon fill="black" stroke="black" points="534.82,-29.14 524.32,-30.57 533.42,-36 534.82,-29.14"/>
</g>
<!-- Alice legal guardian answered** -->
<g id="node35" class="node">
<title>Alice legal guardian answered**</title>
<ellipse fill="gray" stroke="black" cx="635.93" cy="-18" rx="76.42" ry="18"/>
<text text-anchor="middle" x="635.93" y="-15.8" font-family="Times,serif" font-size="9.00">Alice legal guardian answered**</text>
</g>
<!-- Step 3 Alice&#45;&gt;Alice legal guardian answered** -->
<g id="edge34" class="edge">
<title>Step 3 Alice&#45;&gt;Alice legal guardian answered**</title>
<path fill="none" stroke="black" d="M739.46,-71.52C720.56,-61.93 697.01,-49.98 677.14,-39.9"/>
<polygon fill="black" stroke="black" points="678.99,-36.91 668.48,-35.51 675.82,-43.16 678.99,-36.91"/>
</g>
<!-- Going out from Alice Room -->
<g id="node36" class="node">
<title>Going out from Alice Room</title>
<ellipse fill="gray" stroke="black" cx="796.93" cy="-18" rx="66.95" ry="18"/>
<text text-anchor="middle" x="796.93" y="-15.8" font-family="Times,serif" font-size="9.00">Going out from Alice Room</text>
</g>
<!-- Step 3 Alice&#45;&gt;Going out from Alice Room -->
<g id="edge35" class="edge">
<title>Step 3 Alice&#45;&gt;Going out from Alice Room</title>
<path fill="none" stroke="black" d="M779.62,-71.7C782.07,-64.24 785,-55.32 787.74,-46.97"/>
<polygon fill="black" stroke="black" points="791.04,-48.14 790.84,-37.54 784.39,-45.95 791.04,-48.14"/>
</g>
<!-- Going back to base* -->
<g id="node37" class="node">
<title>Going back to base*</title>
<ellipse fill="gray" stroke="black" cx="932.93" cy="-18" rx="51.27" ry="18"/>
<text text-anchor="middle" x="932.93" y="-15.8" font-family="Times,serif" font-size="9.00">Going back to base*</text>
</g>
<!-- Step 3 Alice&#45;&gt;Going back to base* -->
<g id="edge36" class="edge">
<title>Step 3 Alice&#45;&gt;Going back to base*</title>
<path fill="none" stroke="black" d="M809.61,-73.29C833.89,-62.6 866.09,-48.43 891.5,-37.24"/>
<polygon fill="black" stroke="black" points="892.8,-40.49 900.54,-33.26 889.98,-34.08 892.8,-40.49"/>
</g>
<!-- Enabled?*** -->
<g id="node39" class="node">
<title>Enabled?***</title>
<ellipse fill="gray" stroke="black" cx="942.93" cy="-90" rx="35.59" ry="18"/>
<text text-anchor="middle" x="942.93" y="-87.8" font-family="Times,serif" font-size="9.00">Enabled?***</text>
</g>
<!-- Guardian Answered [Option 2]&#45;&gt;Enabled?*** -->
<g id="edge38" class="edge">
<title>Guardian Answered [Option 2]&#45;&gt;Enabled?***</title>
<path fill="none" stroke="black" d="M942.93,-143.7C942.93,-136.41 942.93,-127.73 942.93,-119.54"/>
<polygon fill="black" stroke="black" points="946.43,-119.62 942.93,-109.62 939.43,-119.62 946.43,-119.62"/>
</g>
<!-- Visiting Alice* -->
<g id="node40" class="node">
<title>Visiting Alice*</title>
<polygon fill="orange" stroke="black" points="1086.93,-108 1006.93,-108 1006.93,-72 1086.93,-72 1086.93,-108"/>
<text text-anchor="middle" x="1046.93" y="-87.8" font-family="Times,serif" font-size="9.00">Ⓜ Visiting Alice*</text>
</g>
<!-- Guardian Answered [Option 2]&#45;&gt;Visiting Alice* -->
<g id="edge39" class="edge">
<title>Guardian Answered [Option 2]&#45;&gt;Visiting Alice*</title>
<path fill="none" stroke="black" d="M968.91,-143.52C981.91,-134.76 997.84,-124.04 1011.9,-114.58"/>
<polygon fill="black" stroke="black" points="1013.69,-117.59 1020.03,-109.11 1009.78,-111.79 1013.69,-117.59"/>
</g>
<!-- Calling the nurse -->
<g id="node41" class="node">
<title>Calling the nurse</title>
<ellipse fill="gray" stroke="black" cx="1046.93" cy="-18" rx="44.41" ry="18"/>
<text text-anchor="middle" x="1046.93" y="-15.8" font-family="Times,serif" font-size="9.00">Calling the nurse</text>
</g>
<!-- Visiting Alice*&#45;&gt;Calling the nurse -->
<g id="edge40" class="edge">
<title>Visiting Alice*&#45;&gt;Calling the nurse</title>
<path fill="none" stroke="black" d="M1041.02,-71.7C1040.26,-64.41 1040.02,-55.73 1040.28,-47.54"/>
<polygon fill="black" stroke="black" points="1043.77,-47.82 1040.94,-37.61 1036.79,-47.36 1043.77,-47.82"/>
</g>
<!-- Visiting Alice*&#45;&gt;Calling the nurse -->
<g id="edge53" class="edge">
<title>Visiting Alice*&#45;&gt;Calling the nurse</title>
<path fill="none" stroke="black" d="M1052.85,-71.7C1053.6,-64.41 1053.84,-55.73 1053.58,-47.54"/>
<polygon fill="black" stroke="black" points="1057.07,-47.36 1052.93,-37.61 1050.09,-47.82 1057.07,-47.36"/>
</g>
<!-- Going back to base** -->
<g id="node42" class="node">
<title>Going back to base**</title>
<ellipse fill="gray" stroke="black" cx="1163.93" cy="-18" rx="54.04" ry="18"/>
<text text-anchor="middle" x="1163.93" y="-15.8" font-family="Times,serif" font-size="9.00">Going back to base**</text>
</g>
<!-- Visiting Alice*&#45;&gt;Going back to base** -->
<g id="edge41" class="edge">
<title>Visiting Alice*&#45;&gt;Going back to base**</title>
<path fill="none" stroke="black" d="M1070.22,-71.52C1085.7,-61.65 1106.29,-49.29 1124.27,-39.04"/>
<polygon fill="black" stroke="black" points="1125.91,-42.13 1132.9,-34.18 1122.47,-36.03 1125.91,-42.13"/>
</g>
<!-- Visiting Alice*&#45;&gt;Going back to base** -->
<g id="edge54" class="edge">
<title>Visiting Alice*&#45;&gt;Going back to base**</title>
<path fill="none" stroke="black" d="M1082.09,-71.52C1098.5,-62.26 1117.78,-50.8 1133.55,-40.95"/>
<polygon fill="black" stroke="black" points="1135,-44.18 1141.58,-35.87 1131.26,-38.26 1135,-44.18"/>
</g>
<!-- Enabled?**** -->
<g id="node44" class="node">
<title>Enabled?****</title>
<ellipse fill="gray" stroke="black" cx="895.93" cy="-378" rx="38.87" ry="18"/>
<text text-anchor="middle" x="895.93" y="-375.8" font-family="Times,serif" font-size="9.00">Enabled?****</text>
</g>
<!-- Check health status 3 [Option 2]&#45;&gt;Enabled?**** -->
<g id="edge43" class="edge">
<title>Check health status 3 [Option 2]&#45;&gt;Enabled?****</title>
<path fill="none" stroke="black" d="M895.93,-431.7C895.93,-424.41 895.93,-415.73 895.93,-407.54"/>
<polygon fill="black" stroke="black" points="899.43,-407.62 895.93,-397.62 892.43,-407.62 899.43,-407.62"/>
</g>
<!-- Visiting Alice** -->
<g id="node45" class="node">
<title>Visiting Alice**</title>
<polygon fill="orange" stroke="black" points="1170.43,-396 1085.43,-396 1085.43,-360 1170.43,-360 1170.43,-396"/>
<text text-anchor="middle" x="1127.93" y="-375.8" font-family="Times,serif" font-size="9.00">Ⓜ Visiting Alice**</text>
</g>
<!-- Check health status 3 [Option 2]&#45;&gt;Visiting Alice** -->
<g id="edge44" class="edge">
<title>Check health status 3 [Option 2]&#45;&gt;Visiting Alice**</title>
<path fill="none" stroke="black" d="M953.88,-431.52C990.85,-420.36 1038.43,-406 1074.5,-395.12"/>
<polygon fill="black" stroke="black" points="1075.28,-398.54 1083.85,-392.3 1073.26,-391.84 1075.28,-398.54"/>
</g>
<!-- Calling the nurse* -->
<g id="node46" class="node">
<title>Calling the nurse*</title>
<ellipse fill="gray" stroke="black" cx="1171.93" cy="-306" rx="46.53" ry="18"/>
<text text-anchor="middle" x="1171.93" y="-303.8" font-family="Times,serif" font-size="9.00">Calling the nurse*</text>
</g>
<!-- Visiting Alice**&#45;&gt;Calling the nurse* -->
<g id="edge45" class="edge">
<title>Visiting Alice**&#45;&gt;Calling the nurse*</title>
<path fill="none" stroke="black" d="M1138.81,-359.7C1143.84,-351.7 1149.92,-342.02 1155.49,-333.15"/>
<polygon fill="black" stroke="black" points="1158.32,-335.23 1160.68,-324.9 1152.39,-331.51 1158.32,-335.23"/>
</g>
<!-- Going back to base*** -->
<g id="node47" class="node">
<title>Going back to base***</title>
<ellipse fill="gray" stroke="black" cx="1380.93" cy="-306" rx="56.66" ry="18"/>
<text text-anchor="middle" x="1380.93" y="-303.8" font-family="Times,serif" font-size="9.00">Going back to base***</text>
</g>
<!-- Visiting Alice**&#45;&gt;Going back to base*** -->
<g id="edge46" class="edge">
<title>Visiting Alice**&#45;&gt;Going back to base***</title>
<path fill="none" stroke="black" d="M1170.72,-362.51C1173.49,-361.64 1176.25,-360.8 1178.93,-360 1228.33,-345.3 1285.14,-330.59 1325.91,-320.41"/>
<polygon fill="black" stroke="black" points="1326.63,-323.83 1335.49,-318.02 1324.95,-317.04 1326.63,-323.83"/>
</g>
<!-- Interacting with Alice [Option 2]&#45;&gt;Visiting Alice* -->
<g id="edge52" class="edge">
<title>Interacting with Alice [Option 2]&#45;&gt;Visiting Alice*</title>
<path fill="none" stroke="black" d="M1019.01,-719.85C1029.24,-693.49 1046.93,-641.21 1046.93,-595 1046.93,-595 1046.93,-595 1046.93,-233 1046.93,-193.74 1046.93,-148.38 1046.93,-119.69"/>
<polygon fill="black" stroke="black" points="1050.43,-120 1046.93,-110 1043.43,-120 1050.43,-120"/>
</g>
<!-- Enabled?***** -->
<g id="node52" class="node">
<title>Enabled?*****</title>
<ellipse fill="gray" stroke="black" cx="977.93" cy="-666" rx="40.98" ry="18"/>
<text text-anchor="middle" x="977.93" y="-663.8" font-family="Times,serif" font-size="9.00">Enabled?*****</text>
</g>
<!-- Interacting with Alice [Option 2]&#45;&gt;Enabled?***** -->
<g id="edge51" class="edge">
<title>Interacting with Alice [Option 2]&#45;&gt;Enabled?*****</title>
<path fill="none" stroke="black" d="M1003.53,-719.7C999.82,-712.07 995.38,-702.92 991.24,-694.4"/>
<polygon fill="black" stroke="black" points="994.42,-692.93 986.9,-685.47 988.12,-695.99 994.42,-692.93"/>
</g>
<!-- Going to Bob Room -->
<g id="node54" class="node">
<title>Going to Bob Room</title>
<ellipse fill="gray" stroke="black" cx="1125.93" cy="-594" rx="51.27" ry="18"/>
<text text-anchor="middle" x="1125.93" y="-591.8" font-family="Times,serif" font-size="9.00">Going to Bob Room</text>
</g>
<!-- Visiting Bob&#45;&gt;Going to Bob Room -->
<g id="edge56" class="edge">
<title>Visiting Bob&#45;&gt;Going to Bob Room</title>
<path fill="none" stroke="black" d="M1225.71,-647.52C1206.8,-637.56 1183.05,-625.06 1163.46,-614.75"/>
<polygon fill="black" stroke="black" points="1165.18,-611.7 1154.7,-610.14 1161.91,-617.89 1165.18,-611.7"/>
</g>
<!-- Process Bob privacy rules -->
<g id="node55" class="node">
<title>Process Bob privacy rules</title>
<ellipse fill="gray" stroke="black" cx="1258.93" cy="-594" rx="63.52" ry="18"/>
<text text-anchor="middle" x="1258.93" y="-591.8" font-family="Times,serif" font-size="9.00">Process Bob privacy rules</text>
</g>
<!-- Visiting Bob&#45;&gt;Process Bob privacy rules -->
<g id="edge57" class="edge">
<title>Visiting Bob&#45;&gt;Process Bob privacy rules</title>
<path fill="none" stroke="black" d="M1258.93,-647.7C1258.93,-640.41 1258.93,-631.73 1258.93,-623.54"/>
<polygon fill="black" stroke="black" points="1262.43,-623.62 1258.93,-613.62 1255.43,-623.62 1262.43,-623.62"/>
</g>
<!-- Bob, can I enter? -->
<g id="node56" class="node">
<title>Bob, can I enter?</title>
<ellipse fill="gray" stroke="black" cx="1384.93" cy="-594" rx="44.41" ry="18"/>
<text text-anchor="middle" x="1384.93" y="-591.8" font-family="Times,serif" font-size="9.00">Bob, can I enter?</text>
</g>
<!-- Visiting Bob&#45;&gt;Bob, can I enter? -->
<g id="edge58" class="edge">
<title>Visiting Bob&#45;&gt;Bob, can I enter?</title>
<path fill="none" stroke="black" d="M1290.4,-647.52C1308.36,-637.54 1330.92,-625 1349.5,-614.68"/>
<polygon fill="black" stroke="black" points="1350.99,-617.86 1358.04,-609.94 1347.6,-611.74 1350.99,-617.86"/>
</g>
<!-- Interacting with Bob -->
<g id="node57" class="node">
<title>Interacting with Bob</title>
<polygon fill="orange" stroke="black" points="1548.43,-612 1447.43,-612 1447.43,-576 1548.43,-576 1548.43,-612"/>
<text text-anchor="middle" x="1497.93" y="-591.8" font-family="Times,serif" font-size="9.00">Ⓜ Interacting with Bob</text>
</g>
<!-- Visiting Bob&#45;&gt;Interacting with Bob -->
<g id="edge59" class="edge">
<title>Visiting Bob&#45;&gt;Interacting with Bob</title>
<path fill="none" stroke="black" d="M1295.75,-654.22C1333.17,-643.26 1391.81,-626.08 1436.32,-613.05"/>
<polygon fill="black" stroke="black" points="1437.24,-616.42 1445.85,-610.25 1435.27,-609.7 1437.24,-616.42"/>
</g>
<!-- XOR*** -->
<g id="node58" class="node">
<title>XOR***</title>
<ellipse fill="gray" stroke="black" cx="1413.93" cy="-522" rx="28.74" ry="18"/>
<text text-anchor="middle" x="1413.93" y="-519.8" font-family="Times,serif" font-size="9.00">XOR***</text>
</g>
<!-- Interacting with Bob&#45;&gt;XOR*** -->
<g id="edge60" class="edge">
<title>Interacting with Bob&#45;&gt;XOR***</title>
<path fill="none" stroke="black" d="M1477.17,-575.7C1465.78,-566.21 1451.58,-554.37 1439.52,-544.32"/>
<polygon fill="black" stroke="black" points="1441.88,-541.73 1431.96,-538.02 1437.4,-547.11 1441.88,-541.73"/>
</g>
<!-- Chooser*** -->
<g id="node59" class="node">
<title>Chooser***</title>
<polygon fill="cyan" stroke="black" points="1535.42,-514.54 1535.42,-529.46 1513.46,-540 1482.4,-540 1460.44,-529.46 1460.44,-514.54 1482.4,-504 1513.46,-504 1535.42,-514.54"/>
<text text-anchor="middle" x="1497.93" y="-519.8" font-family="Times,serif" font-size="9.00">Chooser***</text>
</g>
<!-- Interacting with Bob&#45;&gt;Chooser*** -->
<g id="edge61" class="edge">
<title>Interacting with Bob&#45;&gt;Chooser***</title>
<path fill="none" stroke="black" d="M1497.93,-575.7C1497.93,-568.41 1497.93,-559.73 1497.93,-551.54"/>
<polygon fill="black" stroke="black" points="1501.43,-551.62 1497.93,-541.62 1494.43,-551.62 1501.43,-551.62"/>
</g>
<!-- Interacting with Bob [Option 1] -->
<g id="node60" class="node">
<title>Interacting with Bob [Option 1]</title>
<polygon fill="orange" stroke="black" points="1400.93,-468 1260.93,-468 1260.93,-432 1400.93,-432 1400.93,-468"/>
<text text-anchor="middle" x="1330.93" y="-447.8" font-family="Times,serif" font-size="9.00">Ⓜ Interacting with Bob [Option 1]</text>
</g>
<!-- Chooser***&#45;&gt;Interacting with Bob [Option 1] -->
<g id="edge62" class="edge">
<title>Chooser***&#45;&gt;Interacting with Bob [Option 1]</title>
<path fill="none" stroke="black" d="M1470.35,-509.44C1446.67,-499.52 1411.89,-484.93 1382.99,-472.82"/>
<polygon fill="black" stroke="black" points="1384.61,-469.7 1374.03,-469.07 1381.9,-476.16 1384.61,-469.7"/>
</g>
<!-- Interacting with Bob [Option 2] -->
<g id="node63" class="node">
<title>Interacting with Bob [Option 2]</title>
<polygon fill="orange" stroke="black" points="1567.93,-468 1427.93,-468 1427.93,-432 1567.93,-432 1567.93,-468"/>
<text text-anchor="middle" x="1497.93" y="-447.8" font-family="Times,serif" font-size="9.00">Ⓜ Interacting with Bob [Option 2]</text>
</g>
<!-- Chooser***&#45;&gt;Interacting with Bob [Option 2] -->
<g id="edge65" class="edge">
<title>Chooser***&#45;&gt;Interacting with Bob [Option 2]</title>
<path fill="none" stroke="black" d="M1497.93,-503.7C1497.93,-496.41 1497.93,-487.73 1497.93,-479.54"/>
<polygon fill="black" stroke="black" points="1501.43,-479.62 1497.93,-469.62 1494.43,-479.62 1501.43,-479.62"/>
</g>
<!-- Enabled?****** -->
<g id="node61" class="node">
<title>Enabled?******</title>
<ellipse fill="gray" stroke="black" cx="1231.93" cy="-378" rx="43.76" ry="18"/>
<text text-anchor="middle" x="1231.93" y="-375.8" font-family="Times,serif" font-size="9.00">Enabled?******</text>
</g>
<!-- Interacting with Bob [Option 1]&#45;&gt;Enabled?****** -->
<g id="edge63" class="edge">
<title>Interacting with Bob [Option 1]&#45;&gt;Enabled?******</title>
<path fill="none" stroke="black" d="M1306.2,-431.52C1292.99,-422.17 1276.6,-410.58 1262.58,-400.67"/>
<polygon fill="black" stroke="black" points="1264.74,-397.92 1254.56,-395 1260.7,-403.63 1264.74,-397.92"/>
</g>
<!-- Entering Bob -->
<g id="node62" class="node">
<title>Entering Bob</title>
<polygon fill="orange" stroke="black" points="1368.43,-396 1293.43,-396 1293.43,-360 1368.43,-360 1368.43,-396"/>
<text text-anchor="middle" x="1330.93" y="-375.8" font-family="Times,serif" font-size="9.00">Ⓜ Entering Bob</text>
</g>
<!-- Interacting with Bob [Option 1]&#45;&gt;Entering Bob -->
<g id="edge64" class="edge">
<title>Interacting with Bob [Option 1]&#45;&gt;Entering Bob</title>
<path fill="none" stroke="black" d="M1330.93,-431.7C1330.93,-424.41 1330.93,-415.73 1330.93,-407.54"/>
<polygon fill="black" stroke="black" points="1334.43,-407.62 1330.93,-397.62 1327.43,-407.62 1334.43,-407.62"/>
</g>
<!-- Enabled?******* -->
<g id="node64" class="node">
<title>Enabled?*******</title>
<ellipse fill="gray" stroke="black" cx="1527.93" cy="-378" rx="46.38" ry="18"/>
<text text-anchor="middle" x="1527.93" y="-375.8" font-family="Times,serif" font-size="9.00">Enabled?*******</text>
</g>
<!-- Interacting with Bob [Option 2]&#45;&gt;Enabled?******* -->
<g id="edge66" class="edge">
<title>Interacting with Bob [Option 2]&#45;&gt;Enabled?*******</title>
<path fill="none" stroke="black" d="M1505.35,-431.7C1508.58,-424.15 1512.45,-415.12 1516.07,-406.68"/>
<polygon fill="black" stroke="black" points="1519.28,-408.07 1520,-397.5 1512.85,-405.31 1519.28,-408.07"/>
</g>
<!-- Visiting Bob* -->
<g id="node65" class="node">
<title>Visiting Bob*</title>
<polygon fill="orange" stroke="black" points="1463.43,-396 1386.43,-396 1386.43,-360 1463.43,-360 1463.43,-396"/>
<text text-anchor="middle" x="1424.93" y="-375.8" font-family="Times,serif" font-size="9.00">Ⓜ Visiting Bob*</text>
</g>
<!-- Interacting with Bob [Option 2]&#45;&gt;Visiting Bob* -->
<g id="edge67" class="edge">
<title>Interacting with Bob [Option 2]&#45;&gt;Visiting Bob*</title>
<path fill="none" stroke="black" d="M1479.89,-431.7C1471.2,-423.37 1460.62,-413.22 1451.07,-404.07"/>
<polygon fill="black" stroke="black" points="1453.75,-401.79 1444.11,-397.39 1448.91,-406.84 1453.75,-401.79"/>
</g>
<!-- Visiting Bob*&#45;&gt;Calling the nurse* -->
<g id="edge68" class="edge">
<title>Visiting Bob*&#45;&gt;Calling the nurse*</title>
<path fill="none" stroke="black" d="M1386.04,-362.61C1383.31,-361.7 1380.58,-360.82 1377.93,-360 1325.41,-343.78 1264.32,-328.51 1222.38,-318.56"/>
<polygon fill="black" stroke="black" points="1223.36,-315.19 1212.82,-316.31 1221.76,-322.01 1223.36,-315.19"/>
</g>
<!-- Visiting Bob*&#45;&gt;Going back to base*** -->
<g id="edge69" class="edge">
<title>Visiting Bob*&#45;&gt;Going back to base***</title>
<path fill="none" stroke="black" d="M1414.05,-359.7C1409.15,-351.9 1403.25,-342.51 1397.8,-333.83"/>
<polygon fill="black" stroke="black" points="1400.77,-331.99 1392.49,-325.39 1394.85,-335.71 1400.77,-331.99"/>
</g>
<!-- Going to the Base -->
<g id="node67" class="node">
<title>Going to the Base</title>
<ellipse fill="gray" stroke="black" cx="1188.93" cy="-882" rx="46.38" ry="18"/>
<text text-anchor="middle" x="1188.93" y="-879.8" font-family="Times,serif" font-size="9.00">Going to the Base</text>
</g>
<!-- Daily tasks completed&#45;&gt;Going to the Base -->
<g id="edge71" class="edge">
<title>Daily tasks completed&#45;&gt;Going to the Base</title>
<path fill="none" stroke="black" d="M1191.94,-935.7C1191.53,-928.41 1191.03,-919.73 1190.56,-911.54"/>
<polygon fill="black" stroke="black" points="1194.06,-911.4 1189.99,-901.62 1187.07,-911.8 1194.06,-911.4"/>
</g>
<!-- Going to sleep -->
<g id="node68" class="node">
<title>Going to sleep</title>
<ellipse fill="gray" stroke="black" cx="1291.93" cy="-882" rx="39.02" ry="18"/>
<text text-anchor="middle" x="1291.93" y="-879.8" font-family="Times,serif" font-size="9.00">Going to sleep</text>
</g>
<!-- Daily tasks completed&#45;&gt;Going to sleep -->
<g id="edge72" class="edge">
<title>Daily tasks completed&#45;&gt;Going to sleep</title>
<path fill="none" stroke="black" d="M1217.66,-935.52C1231.06,-926.04 1247.73,-914.26 1261.87,-904.25"/>
<polygon fill="black" stroke="black" points="1263.81,-907.17 1269.96,-898.54 1259.77,-901.45 1263.81,-907.17"/>
</g>
</g>
</svg>
