<?xml version="1.0" encoding="UTF-8" standalone="no"?>
<!DOCTYPE svg PUBLIC "-//W3C//DTD SVG 1.1//EN"
 "http://www.w3.org/Graphics/SVG/1.1/DTD/svg11.dtd">
<!-- Generated by graphviz version 7.0.4 (20221203.1631)
 -->
<!-- Title: pastafarianism Pages: 1 -->
<svg width="2813pt" height="764pt"
 viewBox="0.00 0.00 2812.78 764.00" xmlns="http://www.w3.org/2000/svg" xmlns:xlink="http://www.w3.org/1999/xlink">
<g id="graph0" class="graph" transform="scale(1 1) rotate(0) translate(4 760)">
<title>pastafarianism</title>
<polygon fill="white" stroke="none" points="-4,4 -4,-760 2808.78,-760 2808.78,4 -4,4"/>
<!-- Daily Jobs -->
<g id="node1" class="node">
<title>Daily Jobs</title>
<polygon fill="orange" stroke="black" points="1578.01,-756 1503.01,-756 1503.01,-720 1578.01,-720 1578.01,-756"/>
<text text-anchor="middle" x="1540.51" y="-735.8" font-family="Times New Roman,serif" font-size="9.00">Ⓜ Daily Jobs</text>
</g>
<!-- Go to medical room -->
<g id="node2" class="node">
<title>Go to medical room</title>
<polygon fill="orange" stroke="black" points="393.01,-684 286.01,-684 286.01,-648 393.01,-648 393.01,-684"/>
<text text-anchor="middle" x="339.51" y="-663.8" font-family="Times New Roman,serif" font-size="9.00">Ⓜ Go to medical room</text>
</g>
<!-- Daily Jobs&#45;&gt;Go to medical room -->
<g id="edge1" class="edge">
<title>Daily Jobs&#45;&gt;Go to medical room</title>
<path fill="none" stroke="black" d="M1502.58,-734.79C1330.72,-724.77 623.9,-683.58 404.67,-670.8"/>
<polygon fill="black" stroke="black" points="405.07,-667.32 394.88,-670.23 404.66,-674.3 405.07,-667.32"/>
</g>
<!-- Visiting Alice -->
<g id="node8" class="node">
<title>Visiting Alice</title>
<polygon fill="orange" stroke="black" points="1257.01,-684 1172.01,-684 1172.01,-648 1257.01,-648 1257.01,-684"/>
<text text-anchor="middle" x="1214.51" y="-663.8" font-family="Times New Roman,serif" font-size="9.00">Ⓜ Visiting Alice</text>
</g>
<!-- Daily Jobs&#45;&gt;Visiting Alice -->
<g id="edge7" class="edge">
<title>Daily Jobs&#45;&gt;Visiting Alice</title>
<path fill="none" stroke="black" d="M1502.79,-728.9C1445.04,-716.5 1334.46,-692.76 1268.31,-678.55"/>
<polygon fill="black" stroke="black" points="1269.28,-675.18 1258.77,-676.5 1267.81,-682.03 1269.28,-675.18"/>
</g>
<!-- Visiting Bob -->
<g id="node42" class="node">
<title>Visiting Bob</title>
<polygon fill="orange" stroke="black" points="1945.01,-684 1864.01,-684 1864.01,-648 1945.01,-648 1945.01,-684"/>
<text text-anchor="middle" x="1904.51" y="-663.8" font-family="Times New Roman,serif" font-size="9.00">Ⓜ Visiting Bob</text>
</g>
<!-- Daily Jobs&#45;&gt;Visiting Bob -->
<g id="edge41" class="edge">
<title>Daily Jobs&#45;&gt;Visiting Bob</title>
<path fill="none" stroke="black" d="M1578.43,-729.71C1643.99,-717.1 1778.58,-691.22 1852.7,-676.96"/>
<polygon fill="black" stroke="black" points="1852.97,-680.47 1862.13,-675.15 1851.65,-673.6 1852.97,-680.47"/>
</g>
<!-- Daily tasks completed -->
<g id="node62" class="node">
<title>Daily tasks completed</title>
<polygon fill="orange" stroke="black" points="2534.01,-684 2417.01,-684 2417.01,-648 2534.01,-648 2534.01,-684"/>
<text text-anchor="middle" x="2475.51" y="-663.8" font-family="Times New Roman,serif" font-size="9.00">Ⓜ Daily tasks completed</text>
</g>
<!-- Daily Jobs&#45;&gt;Daily tasks completed -->
<g id="edge61" class="edge">
<title>Daily Jobs&#45;&gt;Daily tasks completed</title>
<path fill="none" stroke="black" d="M1578.32,-734.17C1719.87,-723.57 2219.85,-686.14 2405.47,-672.24"/>
<polygon fill="black" stroke="black" points="2405.48,-675.75 2415.2,-671.52 2404.96,-668.77 2405.48,-675.75"/>
</g>
<!-- Moving to Medical Room -->
<g id="node3" class="node">
<title>Moving to Medical Room</title>
<ellipse fill="gray" stroke="black" cx="63.51" cy="-594" rx="63.52" ry="18"/>
<text text-anchor="middle" x="63.51" y="-591.8" font-family="Times New Roman,serif" font-size="9.00">Moving to Medical Room</text>
</g>
<!-- Go to medical room&#45;&gt;Moving to Medical Room -->
<g id="edge2" class="edge">
<title>Go to medical room&#45;&gt;Moving to Medical Room</title>
<path fill="none" stroke="black" d="M285.64,-651.34C238.05,-639.27 168.87,-621.72 120.39,-609.43"/>
<polygon fill="black" stroke="black" points="121.48,-606.09 110.93,-607.03 119.76,-612.88 121.48,-606.09"/>
</g>
<!-- Taking the Pills -->
<g id="node4" class="node">
<title>Taking the Pills</title>
<ellipse fill="gray" stroke="black" cx="187.51" cy="-594" rx="42.29" ry="18"/>
<text text-anchor="middle" x="187.51" y="-591.8" font-family="Times New Roman,serif" font-size="9.00">Taking the Pills</text>
</g>
<!-- Go to medical room&#45;&gt;Taking the Pills -->
<g id="edge3" class="edge">
<title>Go to medical room&#45;&gt;Taking the Pills</title>
<path fill="none" stroke="black" d="M301.54,-647.52C278.36,-636.84 248.82,-623.24 225.61,-612.55"/>
<polygon fill="black" stroke="black" points="227.36,-609.5 216.82,-608.5 224.44,-615.86 227.36,-609.5"/>
</g>
<!-- Taken Pills -->
<g id="node5" class="node">
<title>Taken Pills</title>
<ellipse fill="gray" stroke="black" cx="280.51" cy="-594" rx="32.82" ry="18"/>
<text text-anchor="middle" x="280.51" y="-591.8" font-family="Times New Roman,serif" font-size="9.00">Taken Pills</text>
</g>
<!-- Go to medical room&#45;&gt;Taken Pills -->
<g id="edge4" class="edge">
<title>Go to medical room&#45;&gt;Taken Pills</title>
<path fill="none" stroke="black" d="M324.92,-647.7C317.68,-639.11 308.82,-628.58 300.91,-619.21"/>
<polygon fill="black" stroke="black" points="303.81,-617.22 294.69,-611.83 298.46,-621.73 303.81,-617.22"/>
</g>
<!-- Exiting from Medical Room -->
<g id="node6" class="node">
<title>Exiting from Medical Room</title>
<ellipse fill="gray" stroke="black" cx="398.51" cy="-594" rx="66.95" ry="18"/>
<text text-anchor="middle" x="398.51" y="-591.8" font-family="Times New Roman,serif" font-size="9.00">Exiting from Medical Room</text>
</g>
<!-- Go to medical room&#45;&gt;Exiting from Medical Room -->
<g id="edge5" class="edge">
<title>Go to medical room&#45;&gt;Exiting from Medical Room</title>
<path fill="none" stroke="black" d="M354.09,-647.7C361.05,-639.44 369.52,-629.39 377.18,-620.3"/>
<polygon fill="black" stroke="black" points="379.75,-622.68 383.52,-612.78 374.4,-618.17 379.75,-622.68"/>
</g>
<!-- Going back to base -->
<g id="node7" class="node">
<title>Going back to base</title>
<ellipse fill="gray" stroke="black" cx="532.51" cy="-594" rx="49.15" ry="18"/>
<text text-anchor="middle" x="532.51" y="-591.8" font-family="Times New Roman,serif" font-size="9.00">Going back to base</text>
</g>
<!-- Go to medical room&#45;&gt;Going back to base -->
<g id="edge6" class="edge">
<title>Go to medical room&#45;&gt;Going back to base</title>
<path fill="none" stroke="black" d="M387.71,-647.52C418.44,-636.37 457.97,-622.04 487.96,-611.16"/>
<polygon fill="black" stroke="black" points="488.91,-614.54 497.12,-607.84 486.53,-607.95 488.91,-614.54"/>
</g>
<!-- Going to Alice&#39;s room -->
<g id="node9" class="node">
<title>Going to Alice&#39;s room</title>
<ellipse fill="gray" stroke="black" cx="654.51" cy="-594" rx="54.7" ry="18"/>
<text text-anchor="middle" x="654.51" y="-591.8" font-family="Times New Roman,serif" font-size="9.00">Going to Alice&#39;s room</text>
</g>
<!-- Visiting Alice&#45;&gt;Going to Alice&#39;s room -->
<g id="edge8" class="edge">
<title>Visiting Alice&#45;&gt;Going to Alice&#39;s room</title>
<path fill="none" stroke="black" d="M1171.73,-662.64C1085.43,-657.4 884.56,-642.74 718.51,-612 714.24,-611.21 709.84,-610.28 705.44,-609.28"/>
<polygon fill="black" stroke="black" points="706.59,-605.96 696.05,-607.01 704.95,-612.76 706.59,-605.96"/>
</g>
<!-- Beginning the process of configuring Alice privacy rules -->
<g id="node10" class="node">
<title>Beginning the process of configuring Alice privacy rules</title>
<ellipse fill="gray" stroke="black" cx="853.51" cy="-594" rx="125.72" ry="18"/>
<text text-anchor="middle" x="853.51" y="-591.8" font-family="Times New Roman,serif" font-size="9.00">Beginning the process of configuring Alice privacy rules</text>
</g>
<!-- Visiting Alice&#45;&gt;Beginning the process of configuring Alice privacy rules -->
<g id="edge9" class="edge">
<title>Visiting Alice&#45;&gt;Beginning the process of configuring Alice privacy rules</title>
<path fill="none" stroke="black" d="M1171.68,-656.7C1114.12,-645.53 1010.58,-625.46 937.26,-611.24"/>
<polygon fill="black" stroke="black" points="938.19,-607.86 927.71,-609.39 936.86,-614.73 938.19,-607.86"/>
</g>
<!-- Finished the process of configuring Alice privacy rules -->
<g id="node11" class="node">
<title>Finished the process of configuring Alice privacy rules</title>
<ellipse fill="gray" stroke="black" cx="1120.51" cy="-594" rx="122.95" ry="18"/>
<text text-anchor="middle" x="1120.51" y="-591.8" font-family="Times New Roman,serif" font-size="9.00">Finished the process of configuring Alice privacy rules</text>
</g>
<!-- Visiting Alice&#45;&gt;Finished the process of configuring Alice privacy rules -->
<g id="edge10" class="edge">
<title>Visiting Alice&#45;&gt;Finished the process of configuring Alice privacy rules</title>
<path fill="none" stroke="black" d="M1191.27,-647.7C1179.55,-638.97 1165.15,-628.24 1152.4,-618.75"/>
<polygon fill="black" stroke="black" points="1154.8,-616.17 1144.69,-613.01 1150.62,-621.79 1154.8,-616.17"/>
</g>
<!-- Alice, can I enter? -->
<g id="node12" class="node">
<title>Alice, can I enter?</title>
<ellipse fill="gray" stroke="black" cx="1308.51" cy="-594" rx="46.53" ry="18"/>
<text text-anchor="middle" x="1308.51" y="-591.8" font-family="Times New Roman,serif" font-size="9.00">Alice, can I enter?</text>
</g>
<!-- Visiting Alice&#45;&gt;Alice, can I enter? -->
<g id="edge11" class="edge">
<title>Visiting Alice&#45;&gt;Alice, can I enter?</title>
<path fill="none" stroke="black" d="M1237.74,-647.7C1250.08,-638.51 1265.38,-627.11 1278.6,-617.27"/>
<polygon fill="black" stroke="black" points="1280.64,-620.12 1286.57,-611.34 1276.46,-614.51 1280.64,-620.12"/>
</g>
<!-- Start interaction with Alice -->
<g id="node13" class="node">
<title>Start interaction with Alice</title>
<polygon fill="orange" stroke="black" points="1507.51,-612 1373.51,-612 1373.51,-576 1507.51,-576 1507.51,-612"/>
<text text-anchor="middle" x="1440.51" y="-591.8" font-family="Times New Roman,serif" font-size="9.00">Ⓜ Start interaction with Alice</text>
</g>
<!-- Visiting Alice&#45;&gt;Start interaction with Alice -->
<g id="edge12" class="edge">
<title>Visiting Alice&#45;&gt;Start interaction with Alice</title>
<path fill="none" stroke="black" d="M1257.28,-651.75C1290.01,-641.61 1335.76,-627.44 1373.36,-615.8"/>
<polygon fill="black" stroke="black" points="1374.27,-619.18 1382.79,-612.88 1372.2,-612.49 1374.27,-619.18"/>
</g>
<!-- XOR -->
<g id="node14" class="node">
<title>XOR</title>
<ellipse fill="gray" stroke="black" cx="1403.51" cy="-522" rx="27" ry="18"/>
<text text-anchor="middle" x="1403.51" y="-519.8" font-family="Times New Roman,serif" font-size="9.00">XOR</text>
</g>
<!-- Start interaction with Alice&#45;&gt;XOR -->
<g id="edge13" class="edge">
<title>Start interaction with Alice&#45;&gt;XOR</title>
<path fill="none" stroke="black" d="M1431.36,-575.7C1427.12,-567.67 1421.98,-557.95 1417.28,-549.05"/>
<polygon fill="black" stroke="black" points="1420.52,-547.69 1412.75,-540.48 1414.33,-550.96 1420.52,-547.69"/>
</g>
<!-- Chooser -->
<g id="node15" class="node">
<title>Chooser</title>
<polygon fill="cyan" stroke="black" points="1506.75,-514.54 1506.75,-529.46 1489.62,-540 1465.4,-540 1448.27,-529.46 1448.27,-514.54 1465.4,-504 1489.62,-504 1506.75,-514.54"/>
<text text-anchor="middle" x="1477.51" y="-519.8" font-family="Times New Roman,serif" font-size="9.00">Chooser</text>
</g>
<!-- Start interaction with Alice&#45;&gt;Chooser -->
<g id="edge14" class="edge">
<title>Start interaction with Alice&#45;&gt;Chooser</title>
<path fill="none" stroke="black" d="M1449.65,-575.7C1453.73,-567.98 1458.63,-558.71 1463.18,-550.11"/>
<polygon fill="black" stroke="black" points="1466.18,-551.92 1467.76,-541.44 1459.99,-548.65 1466.18,-551.92"/>
</g>
<!-- Option 1 -->
<g id="node16" class="node">
<title>Option 1</title>
<polygon fill="orange" stroke="black" points="1456.01,-468 1387.01,-468 1387.01,-432 1456.01,-432 1456.01,-468"/>
<text text-anchor="middle" x="1421.51" y="-447.8" font-family="Times New Roman,serif" font-size="9.00">Ⓜ Option 1</text>
</g>
<!-- Chooser&#45;&gt;Option 1 -->
<g id="edge15" class="edge">
<title>Chooser&#45;&gt;Option 1</title>
<path fill="none" stroke="black" d="M1464.24,-504.41C1457.74,-496.28 1449.75,-486.31 1442.46,-477.18"/>
<polygon fill="black" stroke="black" points="1445.39,-475.25 1436.41,-469.63 1439.93,-479.62 1445.39,-475.25"/>
</g>
<!-- Option 2* -->
<g id="node36" class="node">
<title>Option 2*</title>
<polygon fill="orange" stroke="black" points="1629.51,-468 1555.51,-468 1555.51,-432 1629.51,-432 1629.51,-468"/>
<text text-anchor="middle" x="1592.51" y="-447.8" font-family="Times New Roman,serif" font-size="9.00">Ⓜ Option 2*</text>
</g>
<!-- Chooser&#45;&gt;Option 2* -->
<g id="edge35" class="edge">
<title>Chooser&#45;&gt;Option 2*</title>
<path fill="none" stroke="black" d="M1497.8,-508.65C1513.33,-499.2 1535.19,-485.89 1554,-474.44"/>
<polygon fill="black" stroke="black" points="1555.77,-477.46 1562.5,-469.27 1552.13,-471.48 1555.77,-477.46"/>
</g>
<!-- Enabled? -->
<g id="node17" class="node">
<title>Enabled?</title>
<ellipse fill="gray" stroke="black" cx="1330.51" cy="-378" rx="28.08" ry="18"/>
<text text-anchor="middle" x="1330.51" y="-375.8" font-family="Times New Roman,serif" font-size="9.00">Enabled?</text>
</g>
<!-- Option 1&#45;&gt;Enabled? -->
<g id="edge16" class="edge">
<title>Option 1&#45;&gt;Enabled?</title>
<path fill="none" stroke="black" d="M1399.01,-431.7C1386.19,-421.83 1370.04,-409.41 1356.65,-399.11"/>
<polygon fill="black" stroke="black" points="1359.16,-396.62 1349.1,-393.3 1354.89,-402.17 1359.16,-396.62"/>
</g>
<!-- Alice can enter -->
<g id="node18" class="node">
<title>Alice can enter</title>
<polygon fill="orange" stroke="black" points="1466.01,-396 1377.01,-396 1377.01,-360 1466.01,-360 1466.01,-396"/>
<text text-anchor="middle" x="1421.51" y="-375.8" font-family="Times New Roman,serif" font-size="9.00">Ⓜ Alice can enter</text>
</g>
<!-- Option 1&#45;&gt;Alice can enter -->
<g id="edge17" class="edge">
<title>Option 1&#45;&gt;Alice can enter</title>
<path fill="none" stroke="black" d="M1421.51,-431.7C1421.51,-424.41 1421.51,-415.73 1421.51,-407.54"/>
<polygon fill="black" stroke="black" points="1425.01,-407.62 1421.51,-397.62 1418.01,-407.62 1425.01,-407.62"/>
</g>
<!-- Starting check Alice health status -->
<g id="node19" class="node">
<title>Starting check Alice health status</title>
<ellipse fill="gray" stroke="black" cx="1085.51" cy="-306" rx="78.54" ry="18"/>
<text text-anchor="middle" x="1085.51" y="-303.8" font-family="Times New Roman,serif" font-size="9.00">Starting check Alice health status</text>
</g>
<!-- Alice can enter&#45;&gt;Starting check Alice health status -->
<g id="edge18" class="edge">
<title>Alice can enter&#45;&gt;Starting check Alice health status</title>
<path fill="none" stroke="black" d="M1376.54,-362.39C1373.5,-361.54 1370.46,-360.74 1367.51,-360 1282.42,-338.79 1259.67,-340.32 1173.51,-324 1167.49,-322.86 1161.24,-321.67 1154.97,-320.47"/>
<polygon fill="black" stroke="black" points="1155.69,-317.04 1145.21,-318.59 1154.37,-323.92 1155.69,-317.04"/>
</g>
<!-- Finished check Alice health status -->
<g id="node20" class="node">
<title>Finished check Alice health status</title>
<ellipse fill="gray" stroke="black" cx="1262.51" cy="-306" rx="80" ry="18"/>
<text text-anchor="middle" x="1262.51" y="-303.8" font-family="Times New Roman,serif" font-size="9.00">Finished check Alice health status</text>
</g>
<!-- Alice can enter&#45;&gt;Finished check Alice health status -->
<g id="edge19" class="edge">
<title>Alice can enter&#45;&gt;Finished check Alice health status</title>
<path fill="none" stroke="black" d="M1381.8,-359.52C1359.46,-349.68 1331.48,-337.37 1308.24,-327.13"/>
<polygon fill="black" stroke="black" points="1309.87,-324.03 1299.31,-323.2 1307.05,-330.43 1309.87,-324.03"/>
</g>
<!-- Evaluating health status -->
<g id="node21" class="node">
<title>Evaluating health status</title>
<polygon fill="orange" stroke="black" points="1482.51,-324 1360.51,-324 1360.51,-288 1482.51,-288 1482.51,-324"/>
<text text-anchor="middle" x="1421.51" y="-303.8" font-family="Times New Roman,serif" font-size="9.00">Ⓜ Evaluating health status</text>
</g>
<!-- Alice can enter&#45;&gt;Evaluating health status -->
<g id="edge20" class="edge">
<title>Alice can enter&#45;&gt;Evaluating health status</title>
<path fill="none" stroke="black" d="M1421.51,-359.7C1421.51,-352.41 1421.51,-343.73 1421.51,-335.54"/>
<polygon fill="black" stroke="black" points="1425.01,-335.62 1421.51,-325.62 1418.01,-335.62 1425.01,-335.62"/>
</g>
<!-- Step 2 Alice -->
<g id="node35" class="node">
<title>Step 2 Alice</title>
<polygon fill="orange" stroke="black" points="1580.51,-324 1500.51,-324 1500.51,-288 1580.51,-288 1580.51,-324"/>
<text text-anchor="middle" x="1540.51" y="-303.8" font-family="Times New Roman,serif" font-size="9.00">Ⓜ Step 2 Alice</text>
</g>
<!-- Alice can enter&#45;&gt;Step 2 Alice -->
<g id="edge34" class="edge">
<title>Alice can enter&#45;&gt;Step 2 Alice</title>
<path fill="none" stroke="black" d="M1451.23,-359.52C1466.39,-350.6 1485.04,-339.63 1501.36,-330.03"/>
<polygon fill="black" stroke="black" points="1503.02,-333.11 1509.86,-325.03 1499.47,-327.08 1503.02,-333.11"/>
</g>
<!-- XOR* -->
<g id="node22" class="node">
<title>XOR*</title>
<ellipse fill="gray" stroke="black" cx="1382.51" cy="-234" rx="27" ry="18"/>
<text text-anchor="middle" x="1382.51" y="-231.8" font-family="Times New Roman,serif" font-size="9.00">XOR*</text>
</g>
<!-- Evaluating health status&#45;&gt;XOR* -->
<g id="edge21" class="edge">
<title>Evaluating health status&#45;&gt;XOR*</title>
<path fill="none" stroke="black" d="M1411.87,-287.7C1407.39,-279.67 1401.98,-269.95 1397.02,-261.05"/>
<polygon fill="black" stroke="black" points="1400.16,-259.5 1392.24,-252.47 1394.05,-262.91 1400.16,-259.5"/>
</g>
<!-- Chooser* -->
<g id="node23" class="node">
<title>Chooser*</title>
<polygon fill="cyan" stroke="black" points="1491.25,-226.54 1491.25,-241.46 1472.66,-252 1446.36,-252 1427.77,-241.46 1427.77,-226.54 1446.36,-216 1472.66,-216 1491.25,-226.54"/>
<text text-anchor="middle" x="1459.51" y="-231.8" font-family="Times New Roman,serif" font-size="9.00">Chooser*</text>
</g>
<!-- Evaluating health status&#45;&gt;Chooser* -->
<g id="edge22" class="edge">
<title>Evaluating health status&#45;&gt;Chooser*</title>
<path fill="none" stroke="black" d="M1430.9,-287.7C1435.09,-279.98 1440.12,-270.71 1444.79,-262.11"/>
<polygon fill="black" stroke="black" points="1447.81,-263.89 1449.5,-253.43 1441.65,-260.55 1447.81,-263.89"/>
</g>
<!-- Option 1* -->
<g id="node24" class="node">
<title>Option 1*</title>
<polygon fill="orange" stroke="black" points="1425.51,-180 1351.51,-180 1351.51,-144 1425.51,-144 1425.51,-180"/>
<text text-anchor="middle" x="1388.51" y="-159.8" font-family="Times New Roman,serif" font-size="9.00">Ⓜ Option 1*</text>
</g>
<!-- Chooser*&#45;&gt;Option 1* -->
<g id="edge23" class="edge">
<title>Chooser*&#45;&gt;Option 1*</title>
<path fill="none" stroke="black" d="M1443.4,-217.12C1434.7,-208.54 1423.77,-197.77 1413.96,-188.09"/>
<polygon fill="black" stroke="black" points="1416.7,-185.88 1407.13,-181.35 1411.79,-190.87 1416.7,-185.88"/>
</g>
<!-- Option 2 -->
<g id="node31" class="node">
<title>Option 2</title>
<polygon fill="orange" stroke="black" points="1565.01,-180 1496.01,-180 1496.01,-144 1565.01,-144 1565.01,-180"/>
<text text-anchor="middle" x="1530.51" y="-159.8" font-family="Times New Roman,serif" font-size="9.00">Ⓜ Option 2</text>
</g>
<!-- Chooser*&#45;&gt;Option 2 -->
<g id="edge30" class="edge">
<title>Chooser*&#45;&gt;Option 2</title>
<path fill="none" stroke="black" d="M1475.62,-217.12C1484.31,-208.54 1495.25,-197.77 1505.06,-188.09"/>
<polygon fill="black" stroke="black" points="1507.23,-190.87 1511.89,-181.35 1502.31,-185.88 1507.23,-190.87"/>
</g>
<!-- Enabled?* -->
<g id="node25" class="node">
<title>Enabled?*</title>
<ellipse fill="gray" stroke="black" cx="1289.51" cy="-90" rx="30.7" ry="18"/>
<text text-anchor="middle" x="1289.51" y="-87.8" font-family="Times New Roman,serif" font-size="9.00">Enabled?*</text>
</g>
<!-- Option 1*&#45;&gt;Enabled?* -->
<g id="edge24" class="edge">
<title>Option 1*&#45;&gt;Enabled?*</title>
<path fill="none" stroke="black" d="M1363.78,-143.52C1349.78,-133.62 1332.22,-121.2 1317.69,-110.92"/>
<polygon fill="black" stroke="black" points="1320.07,-108.32 1309.88,-105.4 1316.02,-114.03 1320.07,-108.32"/>
</g>
<!-- Alice not stressed -->
<g id="node26" class="node">
<title>Alice not stressed</title>
<polygon fill="orange" stroke="black" points="1439.01,-108 1338.01,-108 1338.01,-72 1439.01,-72 1439.01,-108"/>
<text text-anchor="middle" x="1388.51" y="-87.8" font-family="Times New Roman,serif" font-size="9.00">Ⓜ Alice not stressed</text>
</g>
<!-- Option 1*&#45;&gt;Alice not stressed -->
<g id="edge25" class="edge">
<title>Option 1*&#45;&gt;Alice not stressed</title>
<path fill="none" stroke="black" d="M1388.51,-143.7C1388.51,-136.41 1388.51,-127.73 1388.51,-119.54"/>
<polygon fill="black" stroke="black" points="1392.01,-119.62 1388.51,-109.62 1385.01,-119.62 1392.01,-119.62"/>
</g>
<!-- Preparing the Alice&#39;s pill -->
<g id="node27" class="node">
<title>Preparing the Alice&#39;s pill</title>
<ellipse fill="gray" stroke="black" cx="1128.51" cy="-18" rx="60.74" ry="18"/>
<text text-anchor="middle" x="1128.51" y="-15.8" font-family="Times New Roman,serif" font-size="9.00">Preparing the Alice&#39;s pill</text>
</g>
<!-- Alice not stressed&#45;&gt;Preparing the Alice&#39;s pill -->
<g id="edge26" class="edge">
<title>Alice not stressed&#45;&gt;Preparing the Alice&#39;s pill</title>
<path fill="none" stroke="black" d="M1337.68,-74.28C1334.92,-73.5 1332.18,-72.74 1329.51,-72 1280.54,-58.49 1224.65,-43.81 1184.26,-33.34"/>
<polygon fill="black" stroke="black" points="1185.32,-30 1174.76,-30.88 1183.56,-36.77 1185.32,-30"/>
</g>
<!-- Give the pill to Alice -->
<g id="node28" class="node">
<title>Give the pill to Alice</title>
<ellipse fill="gray" stroke="black" cx="1260.51" cy="-18" rx="53.23" ry="18"/>
<text text-anchor="middle" x="1260.51" y="-15.8" font-family="Times New Roman,serif" font-size="9.00">Give the pill to Alice</text>
</g>
<!-- Alice not stressed&#45;&gt;Give the pill to Alice -->
<g id="edge27" class="edge">
<title>Alice not stressed&#45;&gt;Give the pill to Alice</title>
<path fill="none" stroke="black" d="M1356.54,-71.52C1338.67,-61.74 1316.31,-49.52 1297.67,-39.32"/>
<polygon fill="black" stroke="black" points="1299.52,-36.35 1289.07,-34.62 1296.17,-42.49 1299.52,-36.35"/>
</g>
<!-- Alice has taken the pill -->
<g id="node29" class="node">
<title>Alice has taken the pill</title>
<ellipse fill="gray" stroke="black" cx="1388.51" cy="-18" rx="57.32" ry="18"/>
<text text-anchor="middle" x="1388.51" y="-15.8" font-family="Times New Roman,serif" font-size="9.00">Alice has taken the pill</text>
</g>
<!-- Alice not stressed&#45;&gt;Alice has taken the pill -->
<g id="edge28" class="edge">
<title>Alice not stressed&#45;&gt;Alice has taken the pill</title>
<path fill="none" stroke="black" d="M1388.51,-71.7C1388.51,-64.41 1388.51,-55.73 1388.51,-47.54"/>
<polygon fill="black" stroke="black" points="1392.01,-47.62 1388.51,-37.62 1385.01,-47.62 1392.01,-47.62"/>
</g>
<!-- Exiting from Alice&#39;s Room -->
<g id="node30" class="node">
<title>Exiting from Alice&#39;s Room</title>
<ellipse fill="gray" stroke="black" cx="1527.51" cy="-18" rx="64.17" ry="18"/>
<text text-anchor="middle" x="1527.51" y="-15.8" font-family="Times New Roman,serif" font-size="9.00">Exiting from Alice&#39;s Room</text>
</g>
<!-- Alice not stressed&#45;&gt;Exiting from Alice&#39;s Room -->
<g id="edge29" class="edge">
<title>Alice not stressed&#45;&gt;Exiting from Alice&#39;s Room</title>
<path fill="none" stroke="black" d="M1423.23,-71.52C1442.67,-61.72 1467.02,-49.46 1487.29,-39.25"/>
<polygon fill="black" stroke="black" points="1488.76,-42.43 1496.12,-34.81 1485.62,-36.18 1488.76,-42.43"/>
</g>
<!-- Enabled?** -->
<g id="node32" class="node">
<title>Enabled?**</title>
<ellipse fill="gray" stroke="black" cx="1530.51" cy="-90" rx="33.47" ry="18"/>
<text text-anchor="middle" x="1530.51" y="-87.8" font-family="Times New Roman,serif" font-size="9.00">Enabled?**</text>
</g>
<!-- Option 2&#45;&gt;Enabled?** -->
<g id="edge31" class="edge">
<title>Option 2&#45;&gt;Enabled?**</title>
<path fill="none" stroke="black" d="M1530.51,-143.7C1530.51,-136.41 1530.51,-127.73 1530.51,-119.54"/>
<polygon fill="black" stroke="black" points="1534.01,-119.62 1530.51,-109.62 1527.01,-119.62 1534.01,-119.62"/>
</g>
<!-- Alice stressed -->
<g id="node33" class="node">
<title>Alice stressed</title>
<polygon fill="orange" stroke="black" points="1687.51,-108 1601.51,-108 1601.51,-72 1687.51,-72 1687.51,-108"/>
<text text-anchor="middle" x="1644.51" y="-87.8" font-family="Times New Roman,serif" font-size="9.00">Ⓜ Alice stressed</text>
</g>
<!-- Option 2&#45;&gt;Alice stressed -->
<g id="edge32" class="edge">
<title>Option 2&#45;&gt;Alice stressed</title>
<path fill="none" stroke="black" d="M1558.98,-143.52C1573.51,-134.6 1591.37,-123.63 1607,-114.03"/>
<polygon fill="black" stroke="black" points="1608.42,-117.27 1615.11,-109.05 1604.76,-111.3 1608.42,-117.27"/>
</g>
<!-- Check Legal Guardian -->
<g id="node34" class="node">
<title>Check Legal Guardian</title>
<ellipse fill="gray" stroke="black" cx="1664.51" cy="-18" rx="54.7" ry="18"/>
<text text-anchor="middle" x="1664.51" y="-15.8" font-family="Times New Roman,serif" font-size="9.00">Check Legal Guardian</text>
</g>
<!-- Alice stressed&#45;&gt;Check Legal Guardian -->
<g id="edge33" class="edge">
<title>Alice stressed&#45;&gt;Check Legal Guardian</title>
<path fill="none" stroke="black" d="M1649.45,-71.7C1651.58,-64.24 1654.13,-55.32 1656.52,-46.97"/>
<polygon fill="black" stroke="black" points="1659.82,-48.14 1659.21,-37.56 1653.09,-46.21 1659.82,-48.14"/>
</g>
<!-- Enabled?*** -->
<g id="node37" class="node">
<title>Enabled?***</title>
<ellipse fill="gray" stroke="black" cx="1592.51" cy="-378" rx="35.59" ry="18"/>
<text text-anchor="middle" x="1592.51" y="-375.8" font-family="Times New Roman,serif" font-size="9.00">Enabled?***</text>
</g>
<!-- Option 2*&#45;&gt;Enabled?*** -->
<g id="edge36" class="edge">
<title>Option 2*&#45;&gt;Enabled?***</title>
<path fill="none" stroke="black" d="M1592.51,-431.7C1592.51,-424.41 1592.51,-415.73 1592.51,-407.54"/>
<polygon fill="black" stroke="black" points="1596.01,-407.62 1592.51,-397.62 1589.01,-407.62 1596.01,-407.62"/>
</g>
<!-- Alice cannot enter -->
<g id="node38" class="node">
<title>Alice cannot enter</title>
<polygon fill="orange" stroke="black" points="1762.01,-396 1661.01,-396 1661.01,-360 1762.01,-360 1762.01,-396"/>
<text text-anchor="middle" x="1711.51" y="-375.8" font-family="Times New Roman,serif" font-size="9.00">Ⓜ Alice cannot enter</text>
</g>
<!-- Option 2*&#45;&gt;Alice cannot enter -->
<g id="edge37" class="edge">
<title>Option 2*&#45;&gt;Alice cannot enter</title>
<path fill="none" stroke="black" d="M1622.23,-431.52C1637.39,-422.6 1656.04,-411.63 1672.36,-402.03"/>
<polygon fill="black" stroke="black" points="1674.02,-405.11 1680.86,-397.03 1670.47,-399.08 1674.02,-405.11"/>
</g>
<!-- Leaving Alice&#39;s Room -->
<g id="node39" class="node">
<title>Leaving Alice&#39;s Room</title>
<ellipse fill="gray" stroke="black" cx="1653.51" cy="-306" rx="54.7" ry="18"/>
<text text-anchor="middle" x="1653.51" y="-303.8" font-family="Times New Roman,serif" font-size="9.00">Leaving Alice&#39;s Room</text>
</g>
<!-- Alice cannot enter&#45;&gt;Leaving Alice&#39;s Room -->
<g id="edge38" class="edge">
<title>Alice cannot enter&#45;&gt;Leaving Alice&#39;s Room</title>
<path fill="none" stroke="black" d="M1697.17,-359.7C1690.33,-351.44 1682.01,-341.39 1674.47,-332.3"/>
<polygon fill="black" stroke="black" points="1677.32,-330.25 1668.25,-324.79 1671.93,-334.72 1677.32,-330.25"/>
</g>
<!-- Calling the nurse -->
<g id="node40" class="node">
<title>Calling the nurse</title>
<ellipse fill="gray" stroke="black" cx="1770.51" cy="-306" rx="44.41" ry="18"/>
<text text-anchor="middle" x="1770.51" y="-303.8" font-family="Times New Roman,serif" font-size="9.00">Calling the nurse</text>
</g>
<!-- Alice cannot enter&#45;&gt;Calling the nurse -->
<g id="edge39" class="edge">
<title>Alice cannot enter&#45;&gt;Calling the nurse</title>
<path fill="none" stroke="black" d="M1726.09,-359.7C1733.16,-351.32 1741.77,-341.1 1749.52,-331.9"/>
<polygon fill="black" stroke="black" points="1752.16,-334.2 1755.93,-324.3 1746.8,-329.69 1752.16,-334.2"/>
</g>
<!-- Going back to base* -->
<g id="node41" class="node">
<title>Going back to base*</title>
<ellipse fill="gray" stroke="black" cx="1884.51" cy="-306" rx="51.27" ry="18"/>
<text text-anchor="middle" x="1884.51" y="-303.8" font-family="Times New Roman,serif" font-size="9.00">Going back to base*</text>
</g>
<!-- Alice cannot enter&#45;&gt;Going back to base* -->
<g id="edge40" class="edge">
<title>Alice cannot enter&#45;&gt;Going back to base*</title>
<path fill="none" stroke="black" d="M1754.72,-359.52C1781.19,-348.8 1814.96,-335.14 1841.42,-324.44"/>
<polygon fill="black" stroke="black" points="1842.54,-327.76 1850.49,-320.76 1839.91,-321.27 1842.54,-327.76"/>
</g>
<!-- Going to Bob&#39;s room -->
<g id="node43" class="node">
<title>Going to Bob&#39;s room</title>
<ellipse fill="gray" stroke="black" cx="1578.51" cy="-594" rx="53.23" ry="18"/>
<text text-anchor="middle" x="1578.51" y="-591.8" font-family="Times New Roman,serif" font-size="9.00">Going to Bob&#39;s room</text>
</g>
<!-- Visiting Bob&#45;&gt;Going to Bob&#39;s room -->
<g id="edge42" class="edge">
<title>Visiting Bob&#45;&gt;Going to Bob&#39;s room</title>
<path fill="none" stroke="black" d="M1863.61,-657.7C1811.56,-648.2 1718.97,-630.61 1640.51,-612 1636.92,-611.15 1633.23,-610.24 1629.53,-609.29"/>
<polygon fill="black" stroke="black" points="1630.45,-605.91 1619.89,-606.77 1628.68,-612.69 1630.45,-605.91"/>
</g>
<!-- Beginning the process of configuring Bob privacy rules -->
<g id="node44" class="node">
<title>Beginning the process of configuring Bob privacy rules</title>
<ellipse fill="gray" stroke="black" cx="1773.51" cy="-594" rx="123.61" ry="18"/>
<text text-anchor="middle" x="1773.51" y="-591.8" font-family="Times New Roman,serif" font-size="9.00">Beginning the process of configuring Bob privacy rules</text>
</g>
<!-- Visiting Bob&#45;&gt;Beginning the process of configuring Bob privacy rules -->
<g id="edge43" class="edge">
<title>Visiting Bob&#45;&gt;Beginning the process of configuring Bob privacy rules</title>
<path fill="none" stroke="black" d="M1871.79,-647.52C1854.61,-638.33 1833.36,-626.98 1815.03,-617.19"/>
<polygon fill="black" stroke="black" points="1816.71,-614.12 1806.24,-612.49 1813.41,-620.29 1816.71,-614.12"/>
</g>
<!-- Finished the process of configuring Bob privacy rules -->
<g id="node45" class="node">
<title>Finished the process of configuring Bob privacy rules</title>
<ellipse fill="gray" stroke="black" cx="2035.51" cy="-594" rx="120.83" ry="18"/>
<text text-anchor="middle" x="2035.51" y="-591.8" font-family="Times New Roman,serif" font-size="9.00">Finished the process of configuring Bob privacy rules</text>
</g>
<!-- Visiting Bob&#45;&gt;Finished the process of configuring Bob privacy rules -->
<g id="edge44" class="edge">
<title>Visiting Bob&#45;&gt;Finished the process of configuring Bob privacy rules</title>
<path fill="none" stroke="black" d="M1937.23,-647.52C1954.41,-638.33 1975.65,-626.98 1993.99,-617.19"/>
<polygon fill="black" stroke="black" points="1995.6,-620.29 2002.77,-612.49 1992.3,-614.12 1995.6,-620.29"/>
</g>
<!-- Bob, can I enter? -->
<g id="node46" class="node">
<title>Bob, can I enter?</title>
<ellipse fill="gray" stroke="black" cx="2218.51" cy="-594" rx="44.41" ry="18"/>
<text text-anchor="middle" x="2218.51" y="-591.8" font-family="Times New Roman,serif" font-size="9.00">Bob, can I enter?</text>
</g>
<!-- Visiting Bob&#45;&gt;Bob, can I enter? -->
<g id="edge45" class="edge">
<title>Visiting Bob&#45;&gt;Bob, can I enter?</title>
<path fill="none" stroke="black" d="M1945.07,-658.19C1996.66,-649.21 2088.34,-632.15 2165.51,-612 2168.43,-611.24 2171.43,-610.41 2174.45,-609.54"/>
<polygon fill="black" stroke="black" points="2175.3,-612.94 2183.86,-606.7 2173.28,-606.23 2175.3,-612.94"/>
</g>
<!-- Start interaction with Bob -->
<g id="node47" class="node">
<title>Start interaction with Bob</title>
<polygon fill="orange" stroke="black" points="2410.51,-612 2280.51,-612 2280.51,-576 2410.51,-576 2410.51,-612"/>
<text text-anchor="middle" x="2345.51" y="-591.8" font-family="Times New Roman,serif" font-size="9.00">Ⓜ Start interaction with Bob</text>
</g>
<!-- Visiting Bob&#45;&gt;Start interaction with Bob -->
<g id="edge46" class="edge">
<title>Visiting Bob&#45;&gt;Start interaction with Bob</title>
<path fill="none" stroke="black" d="M1945.42,-660.21C2011.41,-652.24 2145.64,-635.03 2269.06,-612.38"/>
<polygon fill="black" stroke="black" points="2269.52,-615.85 2278.71,-610.59 2268.24,-608.97 2269.52,-615.85"/>
</g>
<!-- XOR** -->
<g id="node48" class="node">
<title>XOR**</title>
<ellipse fill="gray" stroke="black" cx="2305.51" cy="-522" rx="27" ry="18"/>
<text text-anchor="middle" x="2305.51" y="-519.8" font-family="Times New Roman,serif" font-size="9.00">XOR**</text>
</g>
<!-- Start interaction with Bob&#45;&gt;XOR** -->
<g id="edge47" class="edge">
<title>Start interaction with Bob&#45;&gt;XOR**</title>
<path fill="none" stroke="black" d="M2335.62,-575.7C2331.03,-567.67 2325.48,-557.95 2320.4,-549.05"/>
<polygon fill="black" stroke="black" points="2323.49,-547.4 2315.48,-540.46 2317.41,-550.88 2323.49,-547.4"/>
</g>
<!-- Chooser** -->
<g id="node49" class="node">
<title>Chooser**</title>
<polygon fill="cyan" stroke="black" points="2420.5,-514.54 2420.5,-529.46 2400,-540 2371.01,-540 2350.52,-529.46 2350.52,-514.54 2371.01,-504 2400,-504 2420.5,-514.54"/>
<text text-anchor="middle" x="2385.51" y="-519.8" font-family="Times New Roman,serif" font-size="9.00">Chooser**</text>
</g>
<!-- Start interaction with Bob&#45;&gt;Chooser** -->
<g id="edge48" class="edge">
<title>Start interaction with Bob&#45;&gt;Chooser**</title>
<path fill="none" stroke="black" d="M2355.4,-575.7C2359.85,-567.9 2365.22,-558.51 2370.18,-549.83"/>
<polygon fill="black" stroke="black" points="2373.06,-551.84 2374.98,-541.42 2366.98,-548.36 2373.06,-551.84"/>
</g>
<!-- Option 1** -->
<g id="node50" class="node">
<title>Option 1**</title>
<polygon fill="orange" stroke="black" points="2359.51,-468 2281.51,-468 2281.51,-432 2359.51,-432 2359.51,-468"/>
<text text-anchor="middle" x="2320.51" y="-447.8" font-family="Times New Roman,serif" font-size="9.00">Ⓜ Option 1**</text>
</g>
<!-- Chooser**&#45;&gt;Option 1** -->
<g id="edge49" class="edge">
<title>Chooser**&#45;&gt;Option 1**</title>
<path fill="none" stroke="black" d="M2370.1,-504.41C2362.4,-496.12 2352.91,-485.89 2344.29,-476.62"/>
<polygon fill="black" stroke="black" points="2347.11,-474.5 2337.74,-469.56 2341.98,-479.27 2347.11,-474.5"/>
</g>
<!-- Option 2** -->
<g id="node56" class="node">
<title>Option 2**</title>
<polygon fill="orange" stroke="black" points="2489.51,-468 2411.51,-468 2411.51,-432 2489.51,-432 2489.51,-468"/>
<text text-anchor="middle" x="2450.51" y="-447.8" font-family="Times New Roman,serif" font-size="9.00">Ⓜ Option 2**</text>
</g>
<!-- Chooser**&#45;&gt;Option 2** -->
<g id="edge55" class="edge">
<title>Chooser**&#45;&gt;Option 2**</title>
<path fill="none" stroke="black" d="M2400.91,-504.41C2408.62,-496.12 2418.11,-485.89 2426.72,-476.62"/>
<polygon fill="black" stroke="black" points="2429.04,-479.27 2433.28,-469.56 2423.91,-474.5 2429.04,-479.27"/>
</g>
<!-- Enabled?**** -->
<g id="node51" class="node">
<title>Enabled?****</title>
<ellipse fill="gray" stroke="black" cx="2220.51" cy="-378" rx="38.87" ry="18"/>
<text text-anchor="middle" x="2220.51" y="-375.8" font-family="Times New Roman,serif" font-size="9.00">Enabled?****</text>
</g>
<!-- Option 1**&#45;&gt;Enabled?**** -->
<g id="edge50" class="edge">
<title>Option 1**&#45;&gt;Enabled?****</title>
<path fill="none" stroke="black" d="M2295.53,-431.52C2281.77,-421.88 2264.6,-409.86 2250.16,-399.76"/>
<polygon fill="black" stroke="black" points="2252.57,-397.17 2242.37,-394.3 2248.55,-402.9 2252.57,-397.17"/>
</g>
<!-- Bob can enter -->
<g id="node52" class="node">
<title>Bob can enter</title>
<polygon fill="orange" stroke="black" points="2363.51,-396 2277.51,-396 2277.51,-360 2363.51,-360 2363.51,-396"/>
<text text-anchor="middle" x="2320.51" y="-375.8" font-family="Times New Roman,serif" font-size="9.00">Ⓜ Bob can enter</text>
</g>
<!-- Option 1**&#45;&gt;Bob can enter -->
<g id="edge51" class="edge">
<title>Option 1**&#45;&gt;Bob can enter</title>
<path fill="none" stroke="black" d="M2320.51,-431.7C2320.51,-424.41 2320.51,-415.73 2320.51,-407.54"/>
<polygon fill="black" stroke="black" points="2324.01,-407.62 2320.51,-397.62 2317.01,-407.62 2324.01,-407.62"/>
</g>
<!-- Check if Bob is in Toilet -->
<g id="node53" class="node">
<title>Check if Bob is in Toilet</title>
<ellipse fill="gray" stroke="black" cx="2096.51" cy="-306" rx="60.74" ry="18"/>
<text text-anchor="middle" x="2096.51" y="-303.8" font-family="Times New Roman,serif" font-size="9.00">Check if Bob is in Toilet</text>
</g>
<!-- Bob can enter&#45;&gt;Check if Bob is in Toilet -->
<g id="edge52" class="edge">
<title>Bob can enter&#45;&gt;Check if Bob is in Toilet</title>
<path fill="none" stroke="black" d="M2277.11,-362.75C2274.2,-361.82 2271.31,-360.89 2268.51,-360 2228.33,-347.24 2182.74,-333.21 2148.59,-322.8"/>
<polygon fill="black" stroke="black" points="2149.96,-319.55 2139.38,-319.99 2147.92,-326.25 2149.96,-319.55"/>
</g>
<!-- Bob, you should take the pill! -->
<g id="node54" class="node">
<title>Bob, you should take the pill!</title>
<ellipse fill="gray" stroke="black" cx="2247.51" cy="-306" rx="72.34" ry="18"/>
<text text-anchor="middle" x="2247.51" y="-303.8" font-family="Times New Roman,serif" font-size="9.00">Bob, you should take the pill!</text>
</g>
<!-- Bob can enter&#45;&gt;Bob, you should take the pill! -->
<g id="edge53" class="edge">
<title>Bob can enter&#45;&gt;Bob, you should take the pill!</title>
<path fill="none" stroke="black" d="M2302.46,-359.7C2293.65,-351.24 2282.88,-340.92 2273.22,-331.66"/>
<polygon fill="black" stroke="black" points="2275.83,-329.31 2266.19,-324.91 2270.98,-334.36 2275.83,-329.31"/>
</g>
<!-- Enough repetitions... -->
<g id="node55" class="node">
<title>Enough repetitions...</title>
<ellipse fill="gray" stroke="black" cx="2390.51" cy="-306" rx="53.23" ry="18"/>
<text text-anchor="middle" x="2390.51" y="-303.8" font-family="Times New Roman,serif" font-size="9.00">Enough repetitions...</text>
</g>
<!-- Bob can enter&#45;&gt;Enough repetitions... -->
<g id="edge54" class="edge">
<title>Bob can enter&#45;&gt;Enough repetitions...</title>
<path fill="none" stroke="black" d="M2337.81,-359.7C2346.45,-351.05 2357.05,-340.46 2366.47,-331.04"/>
<polygon fill="black" stroke="black" points="2368.7,-333.76 2373.29,-324.21 2363.75,-328.81 2368.7,-333.76"/>
</g>
<!-- Enabled?***** -->
<g id="node57" class="node">
<title>Enabled?*****</title>
<ellipse fill="gray" stroke="black" cx="2450.51" cy="-378" rx="40.98" ry="18"/>
<text text-anchor="middle" x="2450.51" y="-375.8" font-family="Times New Roman,serif" font-size="9.00">Enabled?*****</text>
</g>
<!-- Option 2**&#45;&gt;Enabled?***** -->
<g id="edge56" class="edge">
<title>Option 2**&#45;&gt;Enabled?*****</title>
<path fill="none" stroke="black" d="M2450.51,-431.7C2450.51,-424.41 2450.51,-415.73 2450.51,-407.54"/>
<polygon fill="black" stroke="black" points="2454.01,-407.62 2450.51,-397.62 2447.01,-407.62 2454.01,-407.62"/>
</g>
<!-- Bob cannot enter -->
<g id="node58" class="node">
<title>Bob cannot enter</title>
<polygon fill="orange" stroke="black" points="2621.51,-396 2523.51,-396 2523.51,-360 2621.51,-360 2621.51,-396"/>
<text text-anchor="middle" x="2572.51" y="-375.8" font-family="Times New Roman,serif" font-size="9.00">Ⓜ Bob cannot enter</text>
</g>
<!-- Option 2**&#45;&gt;Bob cannot enter -->
<g id="edge57" class="edge">
<title>Option 2**&#45;&gt;Bob cannot enter</title>
<path fill="none" stroke="black" d="M2480.98,-431.52C2496.67,-422.51 2516,-411.42 2532.84,-401.76"/>
<polygon fill="black" stroke="black" points="2534.18,-405.03 2541.11,-397.01 2530.7,-398.95 2534.18,-405.03"/>
</g>
<!-- Leaving Bob&#39;s Room -->
<g id="node59" class="node">
<title>Leaving Bob&#39;s Room</title>
<ellipse fill="gray" stroke="black" cx="2514.51" cy="-306" rx="52.58" ry="18"/>
<text text-anchor="middle" x="2514.51" y="-303.8" font-family="Times New Roman,serif" font-size="9.00">Leaving Bob&#39;s Room</text>
</g>
<!-- Bob cannot enter&#45;&gt;Leaving Bob&#39;s Room -->
<g id="edge58" class="edge">
<title>Bob cannot enter&#45;&gt;Leaving Bob&#39;s Room</title>
<path fill="none" stroke="black" d="M2558.17,-359.7C2551.33,-351.44 2543.01,-341.39 2535.47,-332.3"/>
<polygon fill="black" stroke="black" points="2538.32,-330.25 2529.25,-324.79 2532.93,-334.72 2538.32,-330.25"/>
</g>
<!-- Calling the nurse* -->
<g id="node60" class="node">
<title>Calling the nurse*</title>
<ellipse fill="gray" stroke="black" cx="2631.51" cy="-306" rx="46.53" ry="18"/>
<text text-anchor="middle" x="2631.51" y="-303.8" font-family="Times New Roman,serif" font-size="9.00">Calling the nurse*</text>
</g>
<!-- Bob cannot enter&#45;&gt;Calling the nurse* -->
<g id="edge59" class="edge">
<title>Bob cannot enter&#45;&gt;Calling the nurse*</title>
<path fill="none" stroke="black" d="M2587.09,-359.7C2594.05,-351.44 2602.52,-341.39 2610.18,-332.3"/>
<polygon fill="black" stroke="black" points="2612.75,-334.68 2616.52,-324.78 2607.4,-330.17 2612.75,-334.68"/>
</g>
<!-- Going back to base** -->
<g id="node61" class="node">
<title>Going back to base**</title>
<ellipse fill="gray" stroke="black" cx="2750.51" cy="-306" rx="54.04" ry="18"/>
<text text-anchor="middle" x="2750.51" y="-303.8" font-family="Times New Roman,serif" font-size="9.00">Going back to base**</text>
</g>
<!-- Bob cannot enter&#45;&gt;Going back to base** -->
<g id="edge60" class="edge">
<title>Bob cannot enter&#45;&gt;Going back to base**</title>
<path fill="none" stroke="black" d="M2616.97,-359.52C2644.15,-348.83 2678.8,-335.2 2705.99,-324.51"/>
<polygon fill="black" stroke="black" points="2706.95,-327.89 2714.98,-320.97 2704.39,-321.37 2706.95,-327.89"/>
</g>
<!-- Going to the Base -->
<g id="node63" class="node">
<title>Going to the Base</title>
<ellipse fill="gray" stroke="black" cx="2475.51" cy="-594" rx="46.53" ry="18"/>
<text text-anchor="middle" x="2475.51" y="-591.8" font-family="Times New Roman,serif" font-size="9.00">Going to the Base</text>
</g>
<!-- Daily tasks completed&#45;&gt;Going to the Base -->
<g id="edge62" class="edge">
<title>Daily tasks completed&#45;&gt;Going to the Base</title>
<path fill="none" stroke="black" d="M2475.51,-647.7C2475.51,-640.41 2475.51,-631.73 2475.51,-623.54"/>
<polygon fill="black" stroke="black" points="2479.01,-623.62 2475.51,-613.62 2472.01,-623.62 2479.01,-623.62"/>
</g>
<!-- Going to sleep -->
<g id="node64" class="node">
<title>Going to sleep</title>
<ellipse fill="gray" stroke="black" cx="2580.51" cy="-594" rx="39.68" ry="18"/>
<text text-anchor="middle" x="2580.51" y="-591.8" font-family="Times New Roman,serif" font-size="9.00">Going to sleep</text>
</g>
<!-- Daily tasks completed&#45;&gt;Going to sleep -->
<g id="edge63" class="edge">
<title>Daily tasks completed&#45;&gt;Going to sleep</title>
<path fill="none" stroke="black" d="M2501.73,-647.52C2516.18,-637.88 2534.21,-625.86 2549.37,-615.76"/>
<polygon fill="black" stroke="black" points="2551.22,-618.73 2557.6,-610.27 2547.34,-612.91 2551.22,-618.73"/>
</g>
</g>
</svg>
