<?xml version="1.0" encoding="UTF-8" standalone="no"?>
<!DOCTYPE svg PUBLIC "-//W3C//DTD SVG 1.1//EN"
 "http://www.w3.org/Graphics/SVG/1.1/DTD/svg11.dtd">
<!-- Generated by graphviz version 7.0.4 (20221203.1631)
 -->
<!-- Title: pastafarianism Pages: 1 -->
<svg width="2272pt" height="476pt"
 viewBox="0.00 0.00 2271.51 476.00" xmlns="http://www.w3.org/2000/svg" xmlns:xlink="http://www.w3.org/1999/xlink">
<g id="graph0" class="graph" transform="scale(1 1) rotate(0) translate(4 472)">
<title>pastafarianism</title>
<polygon fill="white" stroke="none" points="-4,4 -4,-472 2267.51,-472 2267.51,4 -4,4"/>
<!-- Daily Jobs -->
<g id="node1" class="node">
<title>Daily Jobs</title>
<polygon fill="orange" stroke="black" points="1141.93,-468 1075.93,-468 1075.93,-432 1141.93,-432 1141.93,-468"/>
<text text-anchor="middle" x="1108.93" y="-447.8" font-family="Times,serif" font-size="9.00">Ⓜ Daily Jobs</text>
</g>
<!-- Go to medical room -->
<g id="node2" class="node">
<title>Go to medical room</title>
<polygon fill="orange" stroke="black" points="378.93,-396 280.93,-396 280.93,-360 378.93,-360 378.93,-396"/>
<text text-anchor="middle" x="329.93" y="-375.8" font-family="Times,serif" font-size="9.00">Ⓜ Go to medical room</text>
</g>
<!-- Daily Jobs&#45;&gt;Go to medical room -->
<g id="edge1" class="edge">
<title>Daily Jobs&#45;&gt;Go to medical room</title>
<path fill="none" stroke="black" d="M1075.46,-445.99C955.49,-435.21 545.96,-398.41 390.48,-384.44"/>
<polygon fill="black" stroke="black" points="391.07,-380.98 380.8,-383.57 390.44,-387.95 391.07,-380.98"/>
</g>
<!-- Visiting Tizio -->
<g id="node8" class="node">
<title>Visiting Tizio</title>
<polygon fill="orange" stroke="black" points="853.93,-396 777.93,-396 777.93,-360 853.93,-360 853.93,-396"/>
<text text-anchor="middle" x="815.93" y="-375.8" font-family="Times,serif" font-size="9.00">Ⓜ Visiting Tizio</text>
</g>
<!-- Daily Jobs&#45;&gt;Visiting Tizio -->
<g id="edge7" class="edge">
<title>Daily Jobs&#45;&gt;Visiting Tizio</title>
<path fill="none" stroke="black" d="M1075.61,-441.04C1024.17,-428.75 925.16,-405.1 865.37,-390.81"/>
<polygon fill="black" stroke="black" points="866.33,-387.44 855.79,-388.52 864.7,-394.25 866.33,-387.44"/>
</g>
<!-- Visiting Bob -->
<g id="node25" class="node">
<title>Visiting Bob</title>
<polygon fill="orange" stroke="black" points="1145.43,-396 1072.43,-396 1072.43,-360 1145.43,-360 1145.43,-396"/>
<text text-anchor="middle" x="1108.93" y="-375.8" font-family="Times,serif" font-size="9.00">Ⓜ Visiting Bob</text>
</g>
<!-- Daily Jobs&#45;&gt;Visiting Bob -->
<g id="edge24" class="edge">
<title>Daily Jobs&#45;&gt;Visiting Bob</title>
<path fill="none" stroke="black" d="M1108.93,-431.7C1108.93,-424.41 1108.93,-415.73 1108.93,-407.54"/>
<polygon fill="black" stroke="black" points="1112.43,-407.62 1108.93,-397.62 1105.43,-407.62 1112.43,-407.62"/>
</g>
<!-- Visiting Alice -->
<g id="node42" class="node">
<title>Visiting Alice</title>
<polygon fill="orange" stroke="black" points="1439.93,-396 1363.93,-396 1363.93,-360 1439.93,-360 1439.93,-396"/>
<text text-anchor="middle" x="1401.93" y="-375.8" font-family="Times,serif" font-size="9.00">Ⓜ Visiting Alice</text>
</g>
<!-- Daily Jobs&#45;&gt;Visiting Alice -->
<g id="edge41" class="edge">
<title>Daily Jobs&#45;&gt;Visiting Alice</title>
<path fill="none" stroke="black" d="M1142.26,-441.04C1193.69,-428.75 1292.7,-405.1 1352.5,-390.81"/>
<polygon fill="black" stroke="black" points="1353.16,-394.25 1362.07,-388.52 1351.53,-387.44 1353.16,-394.25"/>
</g>
<!-- Daily tasks completed -->
<g id="node59" class="node">
<title>Daily tasks completed</title>
<polygon fill="orange" stroke="black" points="1745.93,-396 1639.93,-396 1639.93,-360 1745.93,-360 1745.93,-396"/>
<text text-anchor="middle" x="1692.93" y="-375.8" font-family="Times,serif" font-size="9.00">Ⓜ Daily tasks completed</text>
</g>
<!-- Daily Jobs&#45;&gt;Daily tasks completed -->
<g id="edge58" class="edge">
<title>Daily Jobs&#45;&gt;Daily tasks completed</title>
<path fill="none" stroke="black" d="M1142.43,-444.99C1236.56,-433.7 1504.64,-401.57 1628.61,-386.71"/>
<polygon fill="black" stroke="black" points="1628.77,-390.22 1638.29,-385.55 1627.94,-383.26 1628.77,-390.22"/>
</g>
<!-- Moving to Medical Room -->
<g id="node3" class="node">
<title>Moving to Medical Room</title>
<ellipse fill="gray" stroke="black" cx="62.93" cy="-306" rx="62.86" ry="18"/>
<text text-anchor="middle" x="62.93" y="-303.8" font-family="Times,serif" font-size="9.00">Moving to Medical Room</text>
</g>
<!-- Go to medical room&#45;&gt;Moving to Medical Room -->
<g id="edge2" class="edge">
<title>Go to medical room&#45;&gt;Moving to Medical Room</title>
<path fill="none" stroke="black" d="M280.65,-364.08C234.89,-352.08 166.83,-334.24 119.01,-321.7"/>
<polygon fill="black" stroke="black" points="119.95,-318.33 109.39,-319.18 118.18,-325.1 119.95,-318.33"/>
</g>
<!-- Taking the Pills -->
<g id="node4" class="node">
<title>Taking the Pills</title>
<ellipse fill="gray" stroke="black" cx="184.93" cy="-306" rx="40.98" ry="18"/>
<text text-anchor="middle" x="184.93" y="-303.8" font-family="Times,serif" font-size="9.00">Taking the Pills</text>
</g>
<!-- Go to medical room&#45;&gt;Taking the Pills -->
<g id="edge3" class="edge">
<title>Go to medical room&#45;&gt;Taking the Pills</title>
<path fill="none" stroke="black" d="M293.72,-359.52C271.8,-348.94 243.93,-335.48 221.88,-324.84"/>
<polygon fill="black" stroke="black" points="223.47,-321.72 212.94,-320.52 220.43,-328.02 223.47,-321.72"/>
</g>
<!-- Take Pills -->
<g id="node5" class="node">
<title>Take Pills</title>
<ellipse fill="gray" stroke="black" cx="272.93" cy="-306" rx="29.39" ry="18"/>
<text text-anchor="middle" x="272.93" y="-303.8" font-family="Times,serif" font-size="9.00">Take Pills</text>
</g>
<!-- Go to medical room&#45;&gt;Take Pills -->
<g id="edge4" class="edge">
<title>Go to medical room&#45;&gt;Take Pills</title>
<path fill="none" stroke="black" d="M315.84,-359.7C308.92,-351.19 300.46,-340.8 292.88,-331.5"/>
<polygon fill="black" stroke="black" points="295.68,-329.39 286.65,-323.84 290.25,-333.81 295.68,-329.39"/>
</g>
<!-- Exiting from Medical Room -->
<g id="node6" class="node">
<title>Exiting from Medical Room</title>
<ellipse fill="gray" stroke="black" cx="386.93" cy="-306" rx="66.95" ry="18"/>
<text text-anchor="middle" x="386.93" y="-303.8" font-family="Times,serif" font-size="9.00">Exiting from Medical Room</text>
</g>
<!-- Go to medical room&#45;&gt;Exiting from Medical Room -->
<g id="edge5" class="edge">
<title>Go to medical room&#45;&gt;Exiting from Medical Room</title>
<path fill="none" stroke="black" d="M344.02,-359.7C350.75,-351.44 358.92,-341.39 366.33,-332.3"/>
<polygon fill="black" stroke="black" points="368.84,-334.76 372.44,-324.8 363.41,-330.34 368.84,-334.76"/>
</g>
<!-- Going back to base -->
<g id="node7" class="node">
<title>Going back to base</title>
<ellipse fill="gray" stroke="black" cx="520.93" cy="-306" rx="49.15" ry="18"/>
<text text-anchor="middle" x="520.93" y="-303.8" font-family="Times,serif" font-size="9.00">Going back to base</text>
</g>
<!-- Go to medical room&#45;&gt;Going back to base -->
<g id="edge6" class="edge">
<title>Go to medical room&#45;&gt;Going back to base</title>
<path fill="none" stroke="black" d="M377.64,-359.52C407.95,-348.41 446.91,-334.13 476.55,-323.26"/>
<polygon fill="black" stroke="black" points="477.42,-326.68 485.6,-319.95 475.01,-320.1 477.42,-326.68"/>
</g>
<!-- Going to Tizio Room -->
<g id="node9" class="node">
<title>Going to Tizio Room</title>
<ellipse fill="gray" stroke="black" cx="640.93" cy="-306" rx="53.23" ry="18"/>
<text text-anchor="middle" x="640.93" y="-303.8" font-family="Times,serif" font-size="9.00">Going to Tizio Room</text>
</g>
<!-- Visiting Tizio&#45;&gt;Going to Tizio Room -->
<g id="edge8" class="edge">
<title>Visiting Tizio&#45;&gt;Going to Tizio Room</title>
<path fill="none" stroke="black" d="M777.53,-361.64C750.23,-350.72 713.5,-336.03 685,-324.63"/>
<polygon fill="black" stroke="black" points="686.51,-321.46 675.93,-321 683.91,-327.96 686.51,-321.46"/>
</g>
<!-- Tizio, can I enter? -->
<g id="node10" class="node">
<title>Tizio, can I enter?</title>
<ellipse fill="gray" stroke="black" cx="757.93" cy="-306" rx="46.38" ry="18"/>
<text text-anchor="middle" x="757.93" y="-303.8" font-family="Times,serif" font-size="9.00">Tizio, can I enter?</text>
</g>
<!-- Visiting Tizio&#45;&gt;Tizio, can I enter? -->
<g id="edge9" class="edge">
<title>Visiting Tizio&#45;&gt;Tizio, can I enter?</title>
<path fill="none" stroke="black" d="M801.59,-359.7C794.75,-351.44 786.43,-341.39 778.89,-332.3"/>
<polygon fill="black" stroke="black" points="781.74,-330.25 772.67,-324.79 776.35,-334.72 781.74,-330.25"/>
</g>
<!-- Interacting with Tizio -->
<g id="node11" class="node">
<title>Interacting with Tizio</title>
<polygon fill="orange" stroke="black" points="925.93,-324 821.93,-324 821.93,-288 925.93,-288 925.93,-324"/>
<text text-anchor="middle" x="873.93" y="-303.8" font-family="Times,serif" font-size="9.00">Ⓜ Interacting with Tizio</text>
</g>
<!-- Visiting Tizio&#45;&gt;Interacting with Tizio -->
<g id="edge10" class="edge">
<title>Visiting Tizio&#45;&gt;Interacting with Tizio</title>
<path fill="none" stroke="black" d="M830.27,-359.7C837.01,-351.56 845.19,-341.69 852.64,-332.7"/>
<polygon fill="black" stroke="black" points="855.11,-335.2 858.79,-325.27 849.72,-330.74 855.11,-335.2"/>
</g>
<!-- XOR -->
<g id="node12" class="node">
<title>XOR</title>
<ellipse fill="gray" stroke="black" cx="799.93" cy="-234" rx="27" ry="18"/>
<text text-anchor="middle" x="799.93" y="-231.8" font-family="Times,serif" font-size="9.00">XOR</text>
</g>
<!-- Interacting with Tizio&#45;&gt;XOR -->
<g id="edge11" class="edge">
<title>Interacting with Tizio&#45;&gt;XOR</title>
<path fill="none" stroke="black" d="M855.64,-287.7C845.88,-278.46 833.75,-266.99 823.31,-257.12"/>
<polygon fill="black" stroke="black" points="825.8,-254.65 816.13,-250.32 820.99,-259.73 825.8,-254.65"/>
</g>
<!-- Chooser -->
<g id="node13" class="node">
<title>Chooser</title>
<polygon fill="cyan" stroke="black" points="903.17,-226.54 903.17,-241.46 886.04,-252 861.82,-252 844.69,-241.46 844.69,-226.54 861.82,-216 886.04,-216 903.17,-226.54"/>
<text text-anchor="middle" x="873.93" y="-231.8" font-family="Times,serif" font-size="9.00">Chooser</text>
</g>
<!-- Interacting with Tizio&#45;&gt;Chooser -->
<g id="edge12" class="edge">
<title>Interacting with Tizio&#45;&gt;Chooser</title>
<path fill="none" stroke="black" d="M873.93,-287.7C873.93,-280.41 873.93,-271.73 873.93,-263.54"/>
<polygon fill="black" stroke="black" points="877.43,-263.62 873.93,-253.62 870.43,-263.62 877.43,-263.62"/>
</g>
<!-- Option 1 -->
<g id="node14" class="node">
<title>Option 1</title>
<polygon fill="orange" stroke="black" points="795.43,-180 736.43,-180 736.43,-144 795.43,-144 795.43,-180"/>
<text text-anchor="middle" x="765.93" y="-159.8" font-family="Times,serif" font-size="9.00">Ⓜ Option 1</text>
</g>
<!-- Chooser&#45;&gt;Option 1 -->
<g id="edge13" class="edge">
<title>Chooser&#45;&gt;Option 1</title>
<path fill="none" stroke="black" d="M854.12,-220.16C839.53,-210.7 819.28,-197.58 801.86,-186.29"/>
<polygon fill="black" stroke="black" points="804.1,-183.57 793.8,-181.06 800.29,-189.44 804.1,-183.57"/>
</g>
<!-- Option 2 -->
<g id="node20" class="node">
<title>Option 2</title>
<polygon fill="orange" stroke="black" points="903.43,-180 844.43,-180 844.43,-144 903.43,-144 903.43,-180"/>
<text text-anchor="middle" x="873.93" y="-159.8" font-family="Times,serif" font-size="9.00">Ⓜ Option 2</text>
</g>
<!-- Chooser&#45;&gt;Option 2 -->
<g id="edge19" class="edge">
<title>Chooser&#45;&gt;Option 2</title>
<path fill="none" stroke="black" d="M873.93,-215.7C873.93,-208.41 873.93,-199.73 873.93,-191.54"/>
<polygon fill="black" stroke="black" points="877.43,-191.62 873.93,-181.62 870.43,-191.62 877.43,-191.62"/>
</g>
<!-- Enabled? -->
<g id="node15" class="node">
<title>Enabled?</title>
<ellipse fill="gray" stroke="black" cx="679.93" cy="-90" rx="28.08" ry="18"/>
<text text-anchor="middle" x="679.93" y="-87.8" font-family="Times,serif" font-size="9.00">Enabled?</text>
</g>
<!-- Option 1&#45;&gt;Enabled? -->
<g id="edge14" class="edge">
<title>Option 1&#45;&gt;Enabled?</title>
<path fill="none" stroke="black" d="M744.67,-143.7C732.83,-134.05 717.99,-121.98 705.51,-111.82"/>
<polygon fill="black" stroke="black" points="708.05,-109.38 698.09,-105.78 703.64,-114.81 708.05,-109.38"/>
</g>
<!-- Visiting Tizio* -->
<g id="node16" class="node">
<title>Visiting Tizio*</title>
<polygon fill="orange" stroke="black" points="805.93,-108 725.93,-108 725.93,-72 805.93,-72 805.93,-108"/>
<text text-anchor="middle" x="765.93" y="-87.8" font-family="Times,serif" font-size="9.00">Ⓜ Visiting Tizio*</text>
</g>
<!-- Option 1&#45;&gt;Visiting Tizio* -->
<g id="edge15" class="edge">
<title>Option 1&#45;&gt;Visiting Tizio*</title>
<path fill="none" stroke="black" d="M765.93,-143.7C765.93,-136.41 765.93,-127.73 765.93,-119.54"/>
<polygon fill="black" stroke="black" points="769.43,-119.62 765.93,-109.62 762.43,-119.62 769.43,-119.62"/>
</g>
<!-- Give pill to Tizio -->
<g id="node17" class="node">
<title>Give pill to Tizio</title>
<ellipse fill="gray" stroke="black" cx="542.93" cy="-18" rx="44.41" ry="18"/>
<text text-anchor="middle" x="542.93" y="-15.8" font-family="Times,serif" font-size="9.00">Give pill to Tizio</text>
</g>
<!-- Visiting Tizio*&#45;&gt;Give pill to Tizio -->
<g id="edge16" class="edge">
<title>Visiting Tizio*&#45;&gt;Give pill to Tizio</title>
<path fill="none" stroke="black" d="M725.6,-74.85C722.67,-73.87 719.76,-72.91 716.93,-72 663.52,-54.8 649.54,-52.57 595.93,-36 593.23,-35.16 590.44,-34.3 587.64,-33.41"/>
<polygon fill="black" stroke="black" points="588.86,-30.13 578.27,-30.45 586.75,-36.8 588.86,-30.13"/>
</g>
<!-- Tizio takes the pill -->
<g id="node18" class="node">
<title>Tizio takes the pill</title>
<ellipse fill="gray" stroke="black" cx="651.93" cy="-18" rx="46.53" ry="18"/>
<text text-anchor="middle" x="651.93" y="-15.8" font-family="Times,serif" font-size="9.00">Tizio takes the pill</text>
</g>
<!-- Visiting Tizio*&#45;&gt;Tizio takes the pill -->
<g id="edge17" class="edge">
<title>Visiting Tizio*&#45;&gt;Tizio takes the pill</title>
<path fill="none" stroke="black" d="M737.46,-71.52C721.73,-61.86 702.1,-49.8 685.61,-39.68"/>
<polygon fill="black" stroke="black" points="687.45,-36.71 677.1,-34.46 683.79,-42.67 687.45,-36.71"/>
</g>
<!-- Exiting from Tizio Room -->
<g id="node19" class="node">
<title>Exiting from Tizio Room</title>
<ellipse fill="gray" stroke="black" cx="777.93" cy="-18" rx="61.4" ry="18"/>
<text text-anchor="middle" x="777.93" y="-15.8" font-family="Times,serif" font-size="9.00">Exiting from Tizio Room</text>
</g>
<!-- Visiting Tizio*&#45;&gt;Exiting from Tizio Room -->
<g id="edge18" class="edge">
<title>Visiting Tizio*&#45;&gt;Exiting from Tizio Room</title>
<path fill="none" stroke="black" d="M768.9,-71.7C770.16,-64.32 771.67,-55.52 773.09,-47.25"/>
<polygon fill="black" stroke="black" points="776.5,-48.04 774.74,-37.6 769.6,-46.86 776.5,-48.04"/>
</g>
<!-- Enabled?* -->
<g id="node21" class="node">
<title>Enabled?*</title>
<ellipse fill="gray" stroke="black" cx="869.93" cy="-90" rx="30.7" ry="18"/>
<text text-anchor="middle" x="869.93" y="-87.8" font-family="Times,serif" font-size="9.00">Enabled?*</text>
</g>
<!-- Option 2&#45;&gt;Enabled?* -->
<g id="edge20" class="edge">
<title>Option 2&#45;&gt;Enabled?*</title>
<path fill="none" stroke="black" d="M872.94,-143.7C872.53,-136.41 872.03,-127.73 871.56,-119.54"/>
<polygon fill="black" stroke="black" points="875.06,-119.4 870.99,-109.62 868.07,-119.8 875.06,-119.4"/>
</g>
<!-- Visiting Tizio** -->
<g id="node22" class="node">
<title>Visiting Tizio**</title>
<polygon fill="orange" stroke="black" points="1003.43,-108 918.43,-108 918.43,-72 1003.43,-72 1003.43,-108"/>
<text text-anchor="middle" x="960.93" y="-87.8" font-family="Times,serif" font-size="9.00">Ⓜ Visiting Tizio**</text>
</g>
<!-- Option 2&#45;&gt;Visiting Tizio** -->
<g id="edge21" class="edge">
<title>Option 2&#45;&gt;Visiting Tizio**</title>
<path fill="none" stroke="black" d="M895.44,-143.7C906,-135.2 918.91,-124.81 930.46,-115.51"/>
<polygon fill="black" stroke="black" points="932.6,-118.29 938.19,-109.3 928.21,-112.84 932.6,-118.29"/>
</g>
<!-- Calling the nurse -->
<g id="node23" class="node">
<title>Calling the nurse</title>
<ellipse fill="gray" stroke="black" cx="901.93" cy="-18" rx="44.41" ry="18"/>
<text text-anchor="middle" x="901.93" y="-15.8" font-family="Times,serif" font-size="9.00">Calling the nurse</text>
</g>
<!-- Visiting Tizio**&#45;&gt;Calling the nurse -->
<g id="edge22" class="edge">
<title>Visiting Tizio**&#45;&gt;Calling the nurse</title>
<path fill="none" stroke="black" d="M946.35,-71.7C939.28,-63.32 930.67,-53.1 922.92,-43.9"/>
<polygon fill="black" stroke="black" points="925.64,-41.69 916.51,-36.3 920.28,-46.2 925.64,-41.69"/>
</g>
<!-- Going back to base* -->
<g id="node24" class="node">
<title>Going back to base*</title>
<ellipse fill="gray" stroke="black" cx="1015.93" cy="-18" rx="51.27" ry="18"/>
<text text-anchor="middle" x="1015.93" y="-15.8" font-family="Times,serif" font-size="9.00">Going back to base*</text>
</g>
<!-- Visiting Tizio**&#45;&gt;Going back to base* -->
<g id="edge23" class="edge">
<title>Visiting Tizio**&#45;&gt;Going back to base*</title>
<path fill="none" stroke="black" d="M974.53,-71.7C980.95,-63.52 988.74,-53.6 995.83,-44.58"/>
<polygon fill="black" stroke="black" points="998.51,-46.84 1001.94,-36.81 993.01,-42.51 998.51,-46.84"/>
</g>
<!-- Going to Bob Room -->
<g id="node26" class="node">
<title>Going to Bob Room</title>
<ellipse fill="gray" stroke="black" cx="994.93" cy="-306" rx="51.27" ry="18"/>
<text text-anchor="middle" x="994.93" y="-303.8" font-family="Times,serif" font-size="9.00">Going to Bob Room</text>
</g>
<!-- Visiting Bob&#45;&gt;Going to Bob Room -->
<g id="edge25" class="edge">
<title>Visiting Bob&#45;&gt;Going to Bob Room</title>
<path fill="none" stroke="black" d="M1080.46,-359.52C1064.95,-349.99 1045.64,-338.14 1029.3,-328.1"/>
<polygon fill="black" stroke="black" points="1031.21,-325.17 1020.85,-322.92 1027.54,-331.13 1031.21,-325.17"/>
</g>
<!-- Bob, can I enter? -->
<g id="node27" class="node">
<title>Bob, can I enter?</title>
<ellipse fill="gray" stroke="black" cx="1108.93" cy="-306" rx="44.41" ry="18"/>
<text text-anchor="middle" x="1108.93" y="-303.8" font-family="Times,serif" font-size="9.00">Bob, can I enter?</text>
</g>
<!-- Visiting Bob&#45;&gt;Bob, can I enter? -->
<g id="edge26" class="edge">
<title>Visiting Bob&#45;&gt;Bob, can I enter?</title>
<path fill="none" stroke="black" d="M1108.93,-359.7C1108.93,-352.41 1108.93,-343.73 1108.93,-335.54"/>
<polygon fill="black" stroke="black" points="1112.43,-335.62 1108.93,-325.62 1105.43,-335.62 1112.43,-335.62"/>
</g>
<!-- Interacting with Bob -->
<g id="node28" class="node">
<title>Interacting with Bob</title>
<polygon fill="orange" stroke="black" points="1272.43,-324 1171.43,-324 1171.43,-288 1272.43,-288 1272.43,-324"/>
<text text-anchor="middle" x="1221.93" y="-303.8" font-family="Times,serif" font-size="9.00">Ⓜ Interacting with Bob</text>
</g>
<!-- Visiting Bob&#45;&gt;Interacting with Bob -->
<g id="edge27" class="edge">
<title>Visiting Bob&#45;&gt;Interacting with Bob</title>
<path fill="none" stroke="black" d="M1137.15,-359.52C1151.42,-350.68 1168.92,-339.84 1184.31,-330.3"/>
<polygon fill="black" stroke="black" points="1186.12,-333.3 1192.78,-325.06 1182.44,-327.35 1186.12,-333.3"/>
</g>
<!-- XOR* -->
<g id="node29" class="node">
<title>XOR*</title>
<ellipse fill="gray" stroke="black" cx="1192.93" cy="-234" rx="27" ry="18"/>
<text text-anchor="middle" x="1192.93" y="-231.8" font-family="Times,serif" font-size="9.00">XOR*</text>
</g>
<!-- Interacting with Bob&#45;&gt;XOR* -->
<g id="edge28" class="edge">
<title>Interacting with Bob&#45;&gt;XOR*</title>
<path fill="none" stroke="black" d="M1214.76,-287.7C1211.55,-279.95 1207.7,-270.64 1204.12,-262.02"/>
<polygon fill="black" stroke="black" points="1207.46,-260.92 1200.4,-253.02 1200.99,-263.6 1207.46,-260.92"/>
</g>
<!-- Chooser* -->
<g id="node30" class="node">
<title>Chooser*</title>
<polygon fill="cyan" stroke="black" points="1301.67,-226.54 1301.67,-241.46 1283.08,-252 1256.78,-252 1238.19,-241.46 1238.19,-226.54 1256.78,-216 1283.08,-216 1301.67,-226.54"/>
<text text-anchor="middle" x="1269.93" y="-231.8" font-family="Times,serif" font-size="9.00">Chooser*</text>
</g>
<!-- Interacting with Bob&#45;&gt;Chooser* -->
<g id="edge29" class="edge">
<title>Interacting with Bob&#45;&gt;Chooser*</title>
<path fill="none" stroke="black" d="M1233.8,-287.7C1239.2,-279.81 1245.72,-270.3 1251.73,-261.55"/>
<polygon fill="black" stroke="black" points="1254.58,-263.58 1257.35,-253.35 1248.8,-259.62 1254.58,-263.58"/>
</g>
<!-- Option 1* -->
<g id="node31" class="node">
<title>Option 1*</title>
<polygon fill="orange" stroke="black" points="1277.93,-180 1213.93,-180 1213.93,-144 1277.93,-144 1277.93,-180"/>
<text text-anchor="middle" x="1245.93" y="-159.8" font-family="Times,serif" font-size="9.00">Ⓜ Option 1*</text>
</g>
<!-- Chooser*&#45;&gt;Option 1* -->
<g id="edge30" class="edge">
<title>Chooser*&#45;&gt;Option 1*</title>
<path fill="none" stroke="black" d="M1264,-215.7C1261.44,-208.24 1258.38,-199.32 1255.52,-190.97"/>
<polygon fill="black" stroke="black" points="1258.84,-189.86 1252.29,-181.54 1252.22,-192.13 1258.84,-189.86"/>
</g>
<!-- Option 2* -->
<g id="node37" class="node">
<title>Option 2*</title>
<polygon fill="orange" stroke="black" points="1409.93,-180 1345.93,-180 1345.93,-144 1409.93,-144 1409.93,-180"/>
<text text-anchor="middle" x="1377.93" y="-159.8" font-family="Times,serif" font-size="9.00">Ⓜ Option 2*</text>
</g>
<!-- Chooser*&#45;&gt;Option 2* -->
<g id="edge36" class="edge">
<title>Chooser*&#45;&gt;Option 2*</title>
<path fill="none" stroke="black" d="M1290.5,-219.67C1305.06,-210.23 1324.97,-197.33 1342.11,-186.22"/>
<polygon fill="black" stroke="black" points="1343.54,-189.46 1350.03,-181.08 1339.74,-183.59 1343.54,-189.46"/>
</g>
<!-- Enabled?** -->
<g id="node32" class="node">
<title>Enabled?**</title>
<ellipse fill="gray" stroke="black" cx="1155.93" cy="-90" rx="33.47" ry="18"/>
<text text-anchor="middle" x="1155.93" y="-87.8" font-family="Times,serif" font-size="9.00">Enabled?**</text>
</g>
<!-- Option 1*&#45;&gt;Enabled?** -->
<g id="edge31" class="edge">
<title>Option 1*&#45;&gt;Enabled?**</title>
<path fill="none" stroke="black" d="M1223.68,-143.7C1211.45,-134.18 1196.18,-122.3 1183.23,-112.23"/>
<polygon fill="black" stroke="black" points="1185.53,-109.58 1175.48,-106.21 1181.23,-115.11 1185.53,-109.58"/>
</g>
<!-- Visiting Bob* -->
<g id="node33" class="node">
<title>Visiting Bob*</title>
<polygon fill="orange" stroke="black" points="1284.43,-108 1207.43,-108 1207.43,-72 1284.43,-72 1284.43,-108"/>
<text text-anchor="middle" x="1245.93" y="-87.8" font-family="Times,serif" font-size="9.00">Ⓜ Visiting Bob*</text>
</g>
<!-- Option 1*&#45;&gt;Visiting Bob* -->
<g id="edge32" class="edge">
<title>Option 1*&#45;&gt;Visiting Bob*</title>
<path fill="none" stroke="black" d="M1245.93,-143.7C1245.93,-136.41 1245.93,-127.73 1245.93,-119.54"/>
<polygon fill="black" stroke="black" points="1249.43,-119.62 1245.93,-109.62 1242.43,-119.62 1249.43,-119.62"/>
</g>
<!-- Give pill to Bob -->
<g id="node34" class="node">
<title>Give pill to Bob</title>
<ellipse fill="gray" stroke="black" cx="1127.93" cy="-18" rx="42.95" ry="18"/>
<text text-anchor="middle" x="1127.93" y="-15.8" font-family="Times,serif" font-size="9.00">Give pill to Bob</text>
</g>
<!-- Visiting Bob*&#45;&gt;Give pill to Bob -->
<g id="edge33" class="edge">
<title>Visiting Bob*&#45;&gt;Give pill to Bob</title>
<path fill="none" stroke="black" d="M1216.46,-71.52C1199.8,-61.63 1178.9,-49.24 1161.59,-38.97"/>
<polygon fill="black" stroke="black" points="1163.57,-36.07 1153.18,-33.98 1160,-42.09 1163.57,-36.07"/>
</g>
<!-- Bob takes the pill -->
<g id="node35" class="node">
<title>Bob takes the pill</title>
<ellipse fill="gray" stroke="black" cx="1233.93" cy="-18" rx="45.07" ry="18"/>
<text text-anchor="middle" x="1233.93" y="-15.8" font-family="Times,serif" font-size="9.00">Bob takes the pill</text>
</g>
<!-- Visiting Bob*&#45;&gt;Bob takes the pill -->
<g id="edge34" class="edge">
<title>Visiting Bob*&#45;&gt;Bob takes the pill</title>
<path fill="none" stroke="black" d="M1242.96,-71.7C1241.7,-64.32 1240.19,-55.52 1238.77,-47.25"/>
<polygon fill="black" stroke="black" points="1242.26,-46.86 1237.12,-37.6 1235.36,-48.04 1242.26,-46.86"/>
</g>
<!-- Exiting from Bob Room -->
<g id="node36" class="node">
<title>Exiting from Bob Room</title>
<ellipse fill="gray" stroke="black" cx="1356.93" cy="-18" rx="59.43" ry="18"/>
<text text-anchor="middle" x="1356.93" y="-15.8" font-family="Times,serif" font-size="9.00">Exiting from Bob Room</text>
</g>
<!-- Visiting Bob*&#45;&gt;Exiting from Bob Room -->
<g id="edge35" class="edge">
<title>Visiting Bob*&#45;&gt;Exiting from Bob Room</title>
<path fill="none" stroke="black" d="M1273.65,-71.52C1288.54,-62.13 1307.03,-50.47 1322.8,-40.53"/>
<polygon fill="black" stroke="black" points="1324.33,-43.69 1330.93,-35.4 1320.6,-37.77 1324.33,-43.69"/>
</g>
<!-- Enabled?*** -->
<g id="node38" class="node">
<title>Enabled?***</title>
<ellipse fill="gray" stroke="black" cx="1377.93" cy="-90" rx="35.59" ry="18"/>
<text text-anchor="middle" x="1377.93" y="-87.8" font-family="Times,serif" font-size="9.00">Enabled?***</text>
</g>
<!-- Option 2*&#45;&gt;Enabled?*** -->
<g id="edge37" class="edge">
<title>Option 2*&#45;&gt;Enabled?***</title>
<path fill="none" stroke="black" d="M1377.93,-143.7C1377.93,-136.41 1377.93,-127.73 1377.93,-119.54"/>
<polygon fill="black" stroke="black" points="1381.43,-119.62 1377.93,-109.62 1374.43,-119.62 1381.43,-119.62"/>
</g>
<!-- Visiting Bob** -->
<g id="node39" class="node">
<title>Visiting Bob**</title>
<polygon fill="orange" stroke="black" points="1521.93,-108 1439.93,-108 1439.93,-72 1521.93,-72 1521.93,-108"/>
<text text-anchor="middle" x="1480.93" y="-87.8" font-family="Times,serif" font-size="9.00">Ⓜ Visiting Bob**</text>
</g>
<!-- Option 2*&#45;&gt;Visiting Bob** -->
<g id="edge38" class="edge">
<title>Option 2*&#45;&gt;Visiting Bob**</title>
<path fill="none" stroke="black" d="M1403.66,-143.52C1416.53,-134.76 1432.31,-124.04 1446.24,-114.58"/>
<polygon fill="black" stroke="black" points="1447.98,-117.63 1454.28,-109.11 1444.04,-111.84 1447.98,-117.63"/>
</g>
<!-- Calling the nurse* -->
<g id="node40" class="node">
<title>Calling the nurse*</title>
<ellipse fill="gray" stroke="black" cx="1480.93" cy="-18" rx="46.53" ry="18"/>
<text text-anchor="middle" x="1480.93" y="-15.8" font-family="Times,serif" font-size="9.00">Calling the nurse*</text>
</g>
<!-- Visiting Bob**&#45;&gt;Calling the nurse* -->
<g id="edge39" class="edge">
<title>Visiting Bob**&#45;&gt;Calling the nurse*</title>
<path fill="none" stroke="black" d="M1480.93,-71.7C1480.93,-64.41 1480.93,-55.73 1480.93,-47.54"/>
<polygon fill="black" stroke="black" points="1484.43,-47.62 1480.93,-37.62 1477.43,-47.62 1484.43,-47.62"/>
</g>
<!-- Going back to base** -->
<g id="node41" class="node">
<title>Going back to base**</title>
<ellipse fill="gray" stroke="black" cx="1599.93" cy="-18" rx="54.04" ry="18"/>
<text text-anchor="middle" x="1599.93" y="-15.8" font-family="Times,serif" font-size="9.00">Going back to base**</text>
</g>
<!-- Visiting Bob**&#45;&gt;Going back to base** -->
<g id="edge40" class="edge">
<title>Visiting Bob**&#45;&gt;Going back to base**</title>
<path fill="none" stroke="black" d="M1510.65,-71.52C1527,-61.9 1547.38,-49.91 1564.54,-39.82"/>
<polygon fill="black" stroke="black" points="1566.07,-42.98 1572.91,-34.89 1562.52,-36.95 1566.07,-42.98"/>
</g>
<!-- Going to Alice Room -->
<g id="node43" class="node">
<title>Going to Alice Room</title>
<ellipse fill="gray" stroke="black" cx="1343.93" cy="-306" rx="53.23" ry="18"/>
<text text-anchor="middle" x="1343.93" y="-303.8" font-family="Times,serif" font-size="9.00">Going to Alice Room</text>
</g>
<!-- Visiting Alice&#45;&gt;Going to Alice Room -->
<g id="edge42" class="edge">
<title>Visiting Alice&#45;&gt;Going to Alice Room</title>
<path fill="none" stroke="black" d="M1387.59,-359.7C1380.75,-351.44 1372.43,-341.39 1364.89,-332.3"/>
<polygon fill="black" stroke="black" points="1367.74,-330.25 1358.67,-324.79 1362.35,-334.72 1367.74,-330.25"/>
</g>
<!-- Alice, can I enter? -->
<g id="node44" class="node">
<title>Alice, can I enter?</title>
<ellipse fill="gray" stroke="black" cx="1460.93" cy="-306" rx="46.38" ry="18"/>
<text text-anchor="middle" x="1460.93" y="-303.8" font-family="Times,serif" font-size="9.00">Alice, can I enter?</text>
</g>
<!-- Visiting Alice&#45;&gt;Alice, can I enter? -->
<g id="edge43" class="edge">
<title>Visiting Alice&#45;&gt;Alice, can I enter?</title>
<path fill="none" stroke="black" d="M1416.52,-359.7C1423.48,-351.44 1431.94,-341.39 1439.61,-332.3"/>
<polygon fill="black" stroke="black" points="1442.18,-334.68 1445.95,-324.78 1436.82,-330.17 1442.18,-334.68"/>
</g>
<!-- Interacting with Alice -->
<g id="node45" class="node">
<title>Interacting with Alice</title>
<polygon fill="orange" stroke="black" points="1628.93,-324 1524.93,-324 1524.93,-288 1628.93,-288 1628.93,-324"/>
<text text-anchor="middle" x="1576.93" y="-303.8" font-family="Times,serif" font-size="9.00">Ⓜ Interacting with Alice</text>
</g>
<!-- Visiting Alice&#45;&gt;Interacting with Alice -->
<g id="edge44" class="edge">
<title>Visiting Alice&#45;&gt;Interacting with Alice</title>
<path fill="none" stroke="black" d="M1440.34,-361.64C1464.58,-351.94 1496.27,-339.26 1523.02,-328.56"/>
<polygon fill="black" stroke="black" points="1523.99,-331.95 1531.98,-324.98 1521.39,-325.45 1523.99,-331.95"/>
</g>
<!-- XOR** -->
<g id="node46" class="node">
<title>XOR**</title>
<ellipse fill="gray" stroke="black" cx="1576.93" cy="-234" rx="27" ry="18"/>
<text text-anchor="middle" x="1576.93" y="-231.8" font-family="Times,serif" font-size="9.00">XOR**</text>
</g>
<!-- Interacting with Alice&#45;&gt;XOR** -->
<g id="edge45" class="edge">
<title>Interacting with Alice&#45;&gt;XOR**</title>
<path fill="none" stroke="black" d="M1576.93,-287.7C1576.93,-280.41 1576.93,-271.73 1576.93,-263.54"/>
<polygon fill="black" stroke="black" points="1580.43,-263.62 1576.93,-253.62 1573.43,-263.62 1580.43,-263.62"/>
</g>
<!-- Chooser** -->
<g id="node47" class="node">
<title>Chooser**</title>
<polygon fill="cyan" stroke="black" points="1812.92,-226.54 1812.92,-241.46 1792.42,-252 1763.44,-252 1742.94,-241.46 1742.94,-226.54 1763.44,-216 1792.42,-216 1812.92,-226.54"/>
<text text-anchor="middle" x="1777.93" y="-231.8" font-family="Times,serif" font-size="9.00">Chooser**</text>
</g>
<!-- Interacting with Alice&#45;&gt;Chooser** -->
<g id="edge46" class="edge">
<title>Interacting with Alice&#45;&gt;Chooser**</title>
<path fill="none" stroke="black" d="M1627.13,-287.52C1661.56,-275.53 1706.6,-259.84 1738.47,-248.74"/>
<polygon fill="black" stroke="black" points="1739.43,-252.12 1747.72,-245.52 1737.12,-245.51 1739.43,-252.12"/>
</g>
<!-- Option 1** -->
<g id="node48" class="node">
<title>Option 1**</title>
<polygon fill="orange" stroke="black" points="1811.93,-180 1743.93,-180 1743.93,-144 1811.93,-144 1811.93,-180"/>
<text text-anchor="middle" x="1777.93" y="-159.8" font-family="Times,serif" font-size="9.00">Ⓜ Option 1**</text>
</g>
<!-- Chooser**&#45;&gt;Option 1** -->
<g id="edge47" class="edge">
<title>Chooser**&#45;&gt;Option 1**</title>
<path fill="none" stroke="black" d="M1777.93,-215.7C1777.93,-208.41 1777.93,-199.73 1777.93,-191.54"/>
<polygon fill="black" stroke="black" points="1781.43,-191.62 1777.93,-181.62 1774.43,-191.62 1781.43,-191.62"/>
</g>
<!-- Option 2** -->
<g id="node54" class="node">
<title>Option 2**</title>
<polygon fill="orange" stroke="black" points="1987.93,-180 1919.93,-180 1919.93,-144 1987.93,-144 1987.93,-180"/>
<text text-anchor="middle" x="1953.93" y="-159.8" font-family="Times,serif" font-size="9.00">Ⓜ Option 2**</text>
</g>
<!-- Chooser**&#45;&gt;Option 2** -->
<g id="edge53" class="edge">
<title>Chooser**&#45;&gt;Option 2**</title>
<path fill="none" stroke="black" d="M1805.05,-222.22C1832.68,-211.22 1876.03,-193.98 1908.84,-180.93"/>
<polygon fill="black" stroke="black" points="1910.12,-184.19 1918.12,-177.24 1907.53,-177.69 1910.12,-184.19"/>
</g>
<!-- Enabled?**** -->
<g id="node49" class="node">
<title>Enabled?****</title>
<ellipse fill="gray" stroke="black" cx="1729.93" cy="-90" rx="38.87" ry="18"/>
<text text-anchor="middle" x="1729.93" y="-87.8" font-family="Times,serif" font-size="9.00">Enabled?****</text>
</g>
<!-- Option 1**&#45;&gt;Enabled?**** -->
<g id="edge48" class="edge">
<title>Option 1**&#45;&gt;Enabled?****</title>
<path fill="none" stroke="black" d="M1766.07,-143.7C1760.52,-135.61 1753.8,-125.81 1747.67,-116.87"/>
<polygon fill="black" stroke="black" points="1750.73,-115.14 1742.19,-108.87 1744.95,-119.1 1750.73,-115.14"/>
</g>
<!-- Visiting Alice* -->
<g id="node50" class="node">
<title>Visiting Alice*</title>
<polygon fill="orange" stroke="black" points="1866.93,-108 1786.93,-108 1786.93,-72 1866.93,-72 1866.93,-108"/>
<text text-anchor="middle" x="1826.93" y="-87.8" font-family="Times,serif" font-size="9.00">Ⓜ Visiting Alice*</text>
</g>
<!-- Option 1**&#45;&gt;Visiting Alice* -->
<g id="edge49" class="edge">
<title>Option 1**&#45;&gt;Visiting Alice*</title>
<path fill="none" stroke="black" d="M1790.04,-143.7C1795.62,-135.73 1802.36,-126.1 1808.55,-117.26"/>
<polygon fill="black" stroke="black" points="1811.22,-119.54 1814.09,-109.34 1805.49,-115.53 1811.22,-119.54"/>
</g>
<!-- Give pill to Alice -->
<g id="node51" class="node">
<title>Give pill to Alice</title>
<ellipse fill="gray" stroke="black" cx="1716.93" cy="-18" rx="44.41" ry="18"/>
<text text-anchor="middle" x="1716.93" y="-15.8" font-family="Times,serif" font-size="9.00">Give pill to Alice</text>
</g>
<!-- Visiting Alice*&#45;&gt;Give pill to Alice -->
<g id="edge50" class="edge">
<title>Visiting Alice*&#45;&gt;Give pill to Alice</title>
<path fill="none" stroke="black" d="M1799.46,-71.52C1784.28,-61.86 1765.34,-49.8 1749.43,-39.68"/>
<polygon fill="black" stroke="black" points="1751.57,-36.89 1741.25,-34.48 1747.81,-42.8 1751.57,-36.89"/>
</g>
<!-- Alice takes the pill -->
<g id="node52" class="node">
<title>Alice takes the pill</title>
<ellipse fill="gray" stroke="black" cx="1826.93" cy="-18" rx="47.19" ry="18"/>
<text text-anchor="middle" x="1826.93" y="-15.8" font-family="Times,serif" font-size="9.00">Alice takes the pill</text>
</g>
<!-- Visiting Alice*&#45;&gt;Alice takes the pill -->
<g id="edge51" class="edge">
<title>Visiting Alice*&#45;&gt;Alice takes the pill</title>
<path fill="none" stroke="black" d="M1826.93,-71.7C1826.93,-64.41 1826.93,-55.73 1826.93,-47.54"/>
<polygon fill="black" stroke="black" points="1830.43,-47.62 1826.93,-37.62 1823.43,-47.62 1830.43,-47.62"/>
</g>
<!-- Exiting from Alice Room -->
<g id="node53" class="node">
<title>Exiting from Alice Room</title>
<ellipse fill="gray" stroke="black" cx="1953.93" cy="-18" rx="61.4" ry="18"/>
<text text-anchor="middle" x="1953.93" y="-15.8" font-family="Times,serif" font-size="9.00">Exiting from Alice Room</text>
</g>
<!-- Visiting Alice*&#45;&gt;Exiting from Alice Room -->
<g id="edge52" class="edge">
<title>Visiting Alice*&#45;&gt;Exiting from Alice Room</title>
<path fill="none" stroke="black" d="M1858.65,-71.52C1876.05,-61.93 1897.74,-49.97 1916.03,-39.89"/>
<polygon fill="black" stroke="black" points="1917.67,-42.98 1924.74,-35.09 1914.29,-36.85 1917.67,-42.98"/>
</g>
<!-- Enabled?***** -->
<g id="node55" class="node">
<title>Enabled?*****</title>
<ellipse fill="gray" stroke="black" cx="1953.93" cy="-90" rx="40.98" ry="18"/>
<text text-anchor="middle" x="1953.93" y="-87.8" font-family="Times,serif" font-size="9.00">Enabled?*****</text>
</g>
<!-- Option 2**&#45;&gt;Enabled?***** -->
<g id="edge54" class="edge">
<title>Option 2**&#45;&gt;Enabled?*****</title>
<path fill="none" stroke="black" d="M1953.93,-143.7C1953.93,-136.41 1953.93,-127.73 1953.93,-119.54"/>
<polygon fill="black" stroke="black" points="1957.43,-119.62 1953.93,-109.62 1950.43,-119.62 1957.43,-119.62"/>
</g>
<!-- Visiting Alice** -->
<g id="node56" class="node">
<title>Visiting Alice**</title>
<polygon fill="orange" stroke="black" points="2125.43,-108 2040.43,-108 2040.43,-72 2125.43,-72 2125.43,-108"/>
<text text-anchor="middle" x="2082.93" y="-87.8" font-family="Times,serif" font-size="9.00">Ⓜ Visiting Alice**</text>
</g>
<!-- Option 2**&#45;&gt;Visiting Alice** -->
<g id="edge55" class="edge">
<title>Option 2**&#45;&gt;Visiting Alice**</title>
<path fill="none" stroke="black" d="M1986.15,-143.52C2002.82,-134.47 2023.37,-123.32 2041.24,-113.62"/>
<polygon fill="black" stroke="black" points="2042.67,-116.83 2049.79,-108.98 2039.33,-110.68 2042.67,-116.83"/>
</g>
<!-- Calling the nurse** -->
<g id="node57" class="node">
<title>Calling the nurse**</title>
<ellipse fill="gray" stroke="black" cx="2082.93" cy="-18" rx="49.8" ry="18"/>
<text text-anchor="middle" x="2082.93" y="-15.8" font-family="Times,serif" font-size="9.00">Calling the nurse**</text>
</g>
<!-- Visiting Alice**&#45;&gt;Calling the nurse** -->
<g id="edge56" class="edge">
<title>Visiting Alice**&#45;&gt;Calling the nurse**</title>
<path fill="none" stroke="black" d="M2082.93,-71.7C2082.93,-64.41 2082.93,-55.73 2082.93,-47.54"/>
<polygon fill="black" stroke="black" points="2086.43,-47.62 2082.93,-37.62 2079.43,-47.62 2086.43,-47.62"/>
</g>
<!-- Going back to base*** -->
<g id="node58" class="node">
<title>Going back to base***</title>
<ellipse fill="gray" stroke="black" cx="2206.93" cy="-18" rx="56.66" ry="18"/>
<text text-anchor="middle" x="2206.93" y="-15.8" font-family="Times,serif" font-size="9.00">Going back to base***</text>
</g>
<!-- Visiting Alice**&#45;&gt;Going back to base*** -->
<g id="edge57" class="edge">
<title>Visiting Alice**&#45;&gt;Going back to base***</title>
<path fill="none" stroke="black" d="M2113.9,-71.52C2131.01,-61.86 2152.37,-49.8 2170.3,-39.68"/>
<polygon fill="black" stroke="black" points="2171.83,-42.83 2178.82,-34.87 2168.39,-36.74 2171.83,-42.83"/>
</g>
<!-- Going to the Base -->
<g id="node60" class="node">
<title>Going to the Base</title>
<ellipse fill="gray" stroke="black" cx="1692.93" cy="-306" rx="46.38" ry="18"/>
<text text-anchor="middle" x="1692.93" y="-303.8" font-family="Times,serif" font-size="9.00">Going to the Base</text>
</g>
<!-- Daily tasks completed&#45;&gt;Going to the Base -->
<g id="edge59" class="edge">
<title>Daily tasks completed&#45;&gt;Going to the Base</title>
<path fill="none" stroke="black" d="M1692.93,-359.7C1692.93,-352.41 1692.93,-343.73 1692.93,-335.54"/>
<polygon fill="black" stroke="black" points="1696.43,-335.62 1692.93,-325.62 1689.43,-335.62 1696.43,-335.62"/>
</g>
<!-- Going to sleep -->
<g id="node61" class="node">
<title>Going to sleep</title>
<ellipse fill="gray" stroke="black" cx="1795.93" cy="-306" rx="39.02" ry="18"/>
<text text-anchor="middle" x="1795.93" y="-303.8" font-family="Times,serif" font-size="9.00">Going to sleep</text>
</g>
<!-- Daily tasks completed&#45;&gt;Going to sleep -->
<g id="edge60" class="edge">
<title>Daily tasks completed&#45;&gt;Going to sleep</title>
<path fill="none" stroke="black" d="M1718.66,-359.52C1732.83,-349.88 1750.52,-337.86 1765.39,-327.76"/>
<polygon fill="black" stroke="black" points="1767.14,-330.8 1773.44,-322.29 1763.2,-325.01 1767.14,-330.8"/>
</g>
</g>
</svg>
