<?xml version="1.0" encoding="UTF-8" standalone="no"?>
<!DOCTYPE svg PUBLIC "-//W3C//DTD SVG 1.1//EN"
 "http://www.w3.org/Graphics/SVG/1.1/DTD/svg11.dtd">
<!-- Generated by graphviz version 7.0.4 (20221203.1631)
 -->
<!-- Title: pastafarianism Pages: 1 -->
<svg width="1780pt" height="476pt"
 viewBox="0.00 0.00 1780.20 476.00" xmlns="http://www.w3.org/2000/svg" xmlns:xlink="http://www.w3.org/1999/xlink">
<g id="graph0" class="graph" transform="scale(1 1) rotate(0) translate(4 472)">
<title>pastafarianism</title>
<polygon fill="white" stroke="none" points="-4,4 -4,-472 1776.2,-472 1776.2,4 -4,4"/>
<!-- Daily Jobs -->
<g id="node1" class="node">
<title>Daily Jobs</title>
<polygon fill="orange" stroke="black" points="1007.93,-468 941.93,-468 941.93,-432 1007.93,-432 1007.93,-468"/>
<text text-anchor="middle" x="974.93" y="-447.8" font-family="Times,serif" font-size="9.00">Ⓜ Daily Jobs</text>
</g>
<!-- Go to medical room -->
<g id="node2" class="node">
<title>Go to medical room</title>
<polygon fill="orange" stroke="black" points="427.93,-396 329.93,-396 329.93,-360 427.93,-360 427.93,-396"/>
<text text-anchor="middle" x="378.93" y="-375.8" font-family="Times,serif" font-size="9.00">Ⓜ Go to medical room</text>
</g>
<!-- Daily Jobs&#45;&gt;Go to medical room -->
<g id="edge1" class="edge">
<title>Daily Jobs&#45;&gt;Go to medical room</title>
<path fill="none" stroke="black" d="M941.61,-445.09C844.98,-433.74 563.61,-400.69 439.24,-386.08"/>
<polygon fill="black" stroke="black" points="439.91,-382.64 429.57,-384.95 439.09,-389.59 439.91,-382.64"/>
</g>
<!-- Visiting Bob -->
<g id="node8" class="node">
<title>Visiting Bob</title>
<polygon fill="orange" stroke="black" points="894.43,-396 821.43,-396 821.43,-360 894.43,-360 894.43,-396"/>
<text text-anchor="middle" x="857.93" y="-375.8" font-family="Times,serif" font-size="9.00">Ⓜ Visiting Bob</text>
</g>
<!-- Daily Jobs&#45;&gt;Visiting Bob -->
<g id="edge7" class="edge">
<title>Daily Jobs&#45;&gt;Visiting Bob</title>
<path fill="none" stroke="black" d="M945.71,-431.52C930.8,-422.6 912.47,-411.63 896.43,-402.03"/>
<polygon fill="black" stroke="black" points="898.46,-399.17 888.08,-397.04 894.86,-405.18 898.46,-399.17"/>
</g>
<!-- Visiting Alice -->
<g id="node25" class="node">
<title>Visiting Alice</title>
<polygon fill="orange" stroke="black" points="1132.93,-396 1056.93,-396 1056.93,-360 1132.93,-360 1132.93,-396"/>
<text text-anchor="middle" x="1094.93" y="-375.8" font-family="Times,serif" font-size="9.00">Ⓜ Visiting Alice</text>
</g>
<!-- Daily Jobs&#45;&gt;Visiting Alice -->
<g id="edge24" class="edge">
<title>Daily Jobs&#45;&gt;Visiting Alice</title>
<path fill="none" stroke="black" d="M1004.9,-431.52C1020.19,-422.6 1038.99,-411.63 1055.45,-402.03"/>
<polygon fill="black" stroke="black" points="1057.16,-405.09 1064.03,-397.02 1053.63,-399.04 1057.16,-405.09"/>
</g>
<!-- Daily tasks completed -->
<g id="node42" class="node">
<title>Daily tasks completed</title>
<polygon fill="orange" stroke="black" points="1438.93,-396 1332.93,-396 1332.93,-360 1438.93,-360 1438.93,-396"/>
<text text-anchor="middle" x="1385.93" y="-375.8" font-family="Times,serif" font-size="9.00">Ⓜ Daily tasks completed</text>
</g>
<!-- Daily Jobs&#45;&gt;Daily tasks completed -->
<g id="edge41" class="edge">
<title>Daily Jobs&#45;&gt;Daily tasks completed</title>
<path fill="none" stroke="black" d="M1008.22,-443.33C1076.32,-431.73 1232.62,-405.11 1321.33,-390"/>
<polygon fill="black" stroke="black" points="1321.84,-393.47 1331.11,-388.34 1320.66,-386.57 1321.84,-393.47"/>
</g>
<!-- Moving to Medical Room -->
<g id="node3" class="node">
<title>Moving to Medical Room</title>
<ellipse fill="gray" stroke="black" cx="62.93" cy="-306" rx="62.86" ry="18"/>
<text text-anchor="middle" x="62.93" y="-303.8" font-family="Times,serif" font-size="9.00">Moving to Medical Room</text>
</g>
<!-- Go to medical room&#45;&gt;Moving to Medical Room -->
<g id="edge2" class="edge">
<title>Go to medical room&#45;&gt;Moving to Medical Room</title>
<path fill="none" stroke="black" d="M329.8,-366.6C280.49,-356.1 202.36,-339.28 134.93,-324 130.42,-322.98 125.76,-321.91 121.07,-320.82"/>
<polygon fill="black" stroke="black" points="122.16,-317.48 111.63,-318.62 120.57,-324.3 122.16,-317.48"/>
</g>
<!-- Moving to Medical Room* -->
<g id="node4" class="node">
<title>Moving to Medical Room*</title>
<ellipse fill="gray" stroke="black" cx="208.93" cy="-306" rx="65.48" ry="18"/>
<text text-anchor="middle" x="208.93" y="-303.8" font-family="Times,serif" font-size="9.00">Moving to Medical Room*</text>
</g>
<!-- Go to medical room&#45;&gt;Moving to Medical Room* -->
<g id="edge3" class="edge">
<title>Go to medical room&#45;&gt;Moving to Medical Room*</title>
<path fill="none" stroke="black" d="M336.47,-359.52C311.6,-349.28 280.19,-336.34 254.76,-325.87"/>
<polygon fill="black" stroke="black" points="256.24,-322.7 245.66,-322.13 253.58,-329.17 256.24,-322.7"/>
</g>
<!-- Take Pills -->
<g id="node5" class="node">
<title>Take Pills</title>
<ellipse fill="gray" stroke="black" cx="321.93" cy="-306" rx="29.39" ry="18"/>
<text text-anchor="middle" x="321.93" y="-303.8" font-family="Times,serif" font-size="9.00">Take Pills</text>
</g>
<!-- Go to medical room&#45;&gt;Take Pills -->
<g id="edge4" class="edge">
<title>Go to medical room&#45;&gt;Take Pills</title>
<path fill="none" stroke="black" d="M364.84,-359.7C357.92,-351.19 349.46,-340.8 341.88,-331.5"/>
<polygon fill="black" stroke="black" points="344.68,-329.39 335.65,-323.84 339.25,-333.81 344.68,-329.39"/>
</g>
<!-- Exiting from Medical Room -->
<g id="node6" class="node">
<title>Exiting from Medical Room</title>
<ellipse fill="gray" stroke="black" cx="435.93" cy="-306" rx="66.95" ry="18"/>
<text text-anchor="middle" x="435.93" y="-303.8" font-family="Times,serif" font-size="9.00">Exiting from Medical Room</text>
</g>
<!-- Go to medical room&#45;&gt;Exiting from Medical Room -->
<g id="edge5" class="edge">
<title>Go to medical room&#45;&gt;Exiting from Medical Room</title>
<path fill="none" stroke="black" d="M393.02,-359.7C399.75,-351.44 407.92,-341.39 415.33,-332.3"/>
<polygon fill="black" stroke="black" points="417.84,-334.76 421.44,-324.8 412.41,-330.34 417.84,-334.76"/>
</g>
<!-- Going back to base -->
<g id="node7" class="node">
<title>Going back to base</title>
<ellipse fill="gray" stroke="black" cx="569.93" cy="-306" rx="49.15" ry="18"/>
<text text-anchor="middle" x="569.93" y="-303.8" font-family="Times,serif" font-size="9.00">Going back to base</text>
</g>
<!-- Go to medical room&#45;&gt;Going back to base -->
<g id="edge6" class="edge">
<title>Go to medical room&#45;&gt;Going back to base</title>
<path fill="none" stroke="black" d="M426.64,-359.52C456.95,-348.41 495.91,-334.13 525.55,-323.26"/>
<polygon fill="black" stroke="black" points="526.42,-326.68 534.6,-319.95 524.01,-320.1 526.42,-326.68"/>
</g>
<!-- Going to Bob Room -->
<g id="node9" class="node">
<title>Going to Bob Room</title>
<ellipse fill="gray" stroke="black" cx="687.93" cy="-306" rx="51.27" ry="18"/>
<text text-anchor="middle" x="687.93" y="-303.8" font-family="Times,serif" font-size="9.00">Going to Bob Room</text>
</g>
<!-- Visiting Bob&#45;&gt;Going to Bob Room -->
<g id="edge8" class="edge">
<title>Visiting Bob&#45;&gt;Going to Bob Room</title>
<path fill="none" stroke="black" d="M821.04,-361.81C794.58,-350.91 758.83,-336.19 731.05,-324.75"/>
<polygon fill="black" stroke="black" points="732.42,-321.53 721.84,-320.96 729.76,-328.01 732.42,-321.53"/>
</g>
<!-- Bob, can I enter? -->
<g id="node10" class="node">
<title>Bob, can I enter?</title>
<ellipse fill="gray" stroke="black" cx="801.93" cy="-306" rx="44.41" ry="18"/>
<text text-anchor="middle" x="801.93" y="-303.8" font-family="Times,serif" font-size="9.00">Bob, can I enter?</text>
</g>
<!-- Visiting Bob&#45;&gt;Bob, can I enter? -->
<g id="edge9" class="edge">
<title>Visiting Bob&#45;&gt;Bob, can I enter?</title>
<path fill="none" stroke="black" d="M844.09,-359.7C837.55,-351.52 829.61,-341.6 822.4,-332.58"/>
<polygon fill="black" stroke="black" points="825.15,-330.43 816.17,-324.8 819.69,-334.8 825.15,-330.43"/>
</g>
<!-- Interacting with Bob -->
<g id="node11" class="node">
<title>Interacting with Bob</title>
<polygon fill="orange" stroke="black" points="965.43,-324 864.43,-324 864.43,-288 965.43,-288 965.43,-324"/>
<text text-anchor="middle" x="914.93" y="-303.8" font-family="Times,serif" font-size="9.00">Ⓜ Interacting with Bob</text>
</g>
<!-- Visiting Bob&#45;&gt;Interacting with Bob -->
<g id="edge10" class="edge">
<title>Visiting Bob&#45;&gt;Interacting with Bob</title>
<path fill="none" stroke="black" d="M872.02,-359.7C878.58,-351.64 886.52,-341.89 893.77,-332.98"/>
<polygon fill="black" stroke="black" points="896.45,-335.24 900.05,-325.28 891.02,-330.82 896.45,-335.24"/>
</g>
<!-- XOR -->
<g id="node12" class="node">
<title>XOR</title>
<ellipse fill="gray" stroke="black" cx="840.93" cy="-234" rx="27" ry="18"/>
<text text-anchor="middle" x="840.93" y="-231.8" font-family="Times,serif" font-size="9.00">XOR</text>
</g>
<!-- Interacting with Bob&#45;&gt;XOR -->
<g id="edge11" class="edge">
<title>Interacting with Bob&#45;&gt;XOR</title>
<path fill="none" stroke="black" d="M896.64,-287.7C886.88,-278.46 874.75,-266.99 864.31,-257.12"/>
<polygon fill="black" stroke="black" points="866.8,-254.65 857.13,-250.32 861.99,-259.73 866.8,-254.65"/>
</g>
<!-- Chooser -->
<g id="node13" class="node">
<title>Chooser</title>
<polygon fill="cyan" stroke="black" points="944.17,-226.54 944.17,-241.46 927.04,-252 902.82,-252 885.69,-241.46 885.69,-226.54 902.82,-216 927.04,-216 944.17,-226.54"/>
<text text-anchor="middle" x="914.93" y="-231.8" font-family="Times,serif" font-size="9.00">Chooser</text>
</g>
<!-- Interacting with Bob&#45;&gt;Chooser -->
<g id="edge12" class="edge">
<title>Interacting with Bob&#45;&gt;Chooser</title>
<path fill="none" stroke="black" d="M914.93,-287.7C914.93,-280.41 914.93,-271.73 914.93,-263.54"/>
<polygon fill="black" stroke="black" points="918.43,-263.62 914.93,-253.62 911.43,-263.62 918.43,-263.62"/>
</g>
<!-- Option 1 -->
<g id="node14" class="node">
<title>Option 1</title>
<polygon fill="orange" stroke="black" points="823.43,-180 764.43,-180 764.43,-144 823.43,-144 823.43,-180"/>
<text text-anchor="middle" x="793.93" y="-159.8" font-family="Times,serif" font-size="9.00">Ⓜ Option 1</text>
</g>
<!-- Chooser&#45;&gt;Option 1 -->
<g id="edge13" class="edge">
<title>Chooser&#45;&gt;Option 1</title>
<path fill="none" stroke="black" d="M894.13,-220.97C877.48,-211.34 853.66,-197.55 833.41,-185.84"/>
<polygon fill="black" stroke="black" points="835.23,-182.85 824.82,-180.87 831.73,-188.91 835.23,-182.85"/>
</g>
<!-- Option 2 -->
<g id="node20" class="node">
<title>Option 2</title>
<polygon fill="orange" stroke="black" points="944.43,-180 885.43,-180 885.43,-144 944.43,-144 944.43,-180"/>
<text text-anchor="middle" x="914.93" y="-159.8" font-family="Times,serif" font-size="9.00">Ⓜ Option 2</text>
</g>
<!-- Chooser&#45;&gt;Option 2 -->
<g id="edge19" class="edge">
<title>Chooser&#45;&gt;Option 2</title>
<path fill="none" stroke="black" d="M914.93,-215.7C914.93,-208.41 914.93,-199.73 914.93,-191.54"/>
<polygon fill="black" stroke="black" points="918.43,-191.62 914.93,-181.62 911.43,-191.62 918.43,-191.62"/>
</g>
<!-- Enabled? -->
<g id="node15" class="node">
<title>Enabled?</title>
<ellipse fill="gray" stroke="black" cx="708.93" cy="-90" rx="28.08" ry="18"/>
<text text-anchor="middle" x="708.93" y="-87.8" font-family="Times,serif" font-size="9.00">Enabled?</text>
</g>
<!-- Option 1&#45;&gt;Enabled? -->
<g id="edge14" class="edge">
<title>Option 1&#45;&gt;Enabled?</title>
<path fill="none" stroke="black" d="M772.92,-143.7C761.32,-134.15 746.83,-122.21 734.57,-112.12"/>
<polygon fill="black" stroke="black" points="736.83,-109.44 726.89,-105.79 732.38,-114.85 736.83,-109.44"/>
</g>
<!-- Visiting Bob* -->
<g id="node16" class="node">
<title>Visiting Bob*</title>
<polygon fill="orange" stroke="black" points="832.43,-108 755.43,-108 755.43,-72 832.43,-72 832.43,-108"/>
<text text-anchor="middle" x="793.93" y="-87.8" font-family="Times,serif" font-size="9.00">Ⓜ Visiting Bob*</text>
</g>
<!-- Option 1&#45;&gt;Visiting Bob* -->
<g id="edge15" class="edge">
<title>Option 1&#45;&gt;Visiting Bob*</title>
<path fill="none" stroke="black" d="M793.93,-143.7C793.93,-136.41 793.93,-127.73 793.93,-119.54"/>
<polygon fill="black" stroke="black" points="797.43,-119.62 793.93,-109.62 790.43,-119.62 797.43,-119.62"/>
</g>
<!-- Give pill to Bob -->
<g id="node17" class="node">
<title>Give pill to Bob</title>
<ellipse fill="gray" stroke="black" cx="654.93" cy="-18" rx="42.95" ry="18"/>
<text text-anchor="middle" x="654.93" y="-15.8" font-family="Times,serif" font-size="9.00">Give pill to Bob</text>
</g>
<!-- Visiting Bob*&#45;&gt;Give pill to Bob -->
<g id="edge16" class="edge">
<title>Visiting Bob*&#45;&gt;Give pill to Bob</title>
<path fill="none" stroke="black" d="M759.21,-71.52C738.71,-61.19 712.78,-48.13 691.9,-37.62"/>
<polygon fill="black" stroke="black" points="693.65,-34.58 683.15,-33.21 690.51,-40.83 693.65,-34.58"/>
</g>
<!-- Bob takes the pill -->
<g id="node18" class="node">
<title>Bob takes the pill</title>
<ellipse fill="gray" stroke="black" cx="760.93" cy="-18" rx="45.07" ry="18"/>
<text text-anchor="middle" x="760.93" y="-15.8" font-family="Times,serif" font-size="9.00">Bob takes the pill</text>
</g>
<!-- Visiting Bob*&#45;&gt;Bob takes the pill -->
<g id="edge17" class="edge">
<title>Visiting Bob*&#45;&gt;Bob takes the pill</title>
<path fill="none" stroke="black" d="M785.77,-71.7C782.18,-64.07 777.86,-54.92 773.85,-46.4"/>
<polygon fill="black" stroke="black" points="777.07,-45.03 769.64,-37.47 770.74,-48.01 777.07,-45.03"/>
</g>
<!-- Exiting from Bob Room -->
<g id="node19" class="node">
<title>Exiting from Bob Room</title>
<ellipse fill="gray" stroke="black" cx="883.93" cy="-18" rx="59.43" ry="18"/>
<text text-anchor="middle" x="883.93" y="-15.8" font-family="Times,serif" font-size="9.00">Exiting from Bob Room</text>
</g>
<!-- Visiting Bob*&#45;&gt;Exiting from Bob Room -->
<g id="edge18" class="edge">
<title>Visiting Bob*&#45;&gt;Exiting from Bob Room</title>
<path fill="none" stroke="black" d="M816.18,-71.7C827.63,-62.79 841.74,-51.81 854.12,-42.19"/>
<polygon fill="black" stroke="black" points="856.23,-44.98 861.98,-36.07 851.94,-39.45 856.23,-44.98"/>
</g>
<!-- Enabled?* -->
<g id="node21" class="node">
<title>Enabled?*</title>
<ellipse fill="gray" stroke="black" cx="914.93" cy="-90" rx="30.7" ry="18"/>
<text text-anchor="middle" x="914.93" y="-87.8" font-family="Times,serif" font-size="9.00">Enabled?*</text>
</g>
<!-- Option 2&#45;&gt;Enabled?* -->
<g id="edge20" class="edge">
<title>Option 2&#45;&gt;Enabled?*</title>
<path fill="none" stroke="black" d="M914.93,-143.7C914.93,-136.41 914.93,-127.73 914.93,-119.54"/>
<polygon fill="black" stroke="black" points="918.43,-119.62 914.93,-109.62 911.43,-119.62 918.43,-119.62"/>
</g>
<!-- Visiting Bob** -->
<g id="node22" class="node">
<title>Visiting Bob**</title>
<polygon fill="orange" stroke="black" points="1046.93,-108 964.93,-108 964.93,-72 1046.93,-72 1046.93,-108"/>
<text text-anchor="middle" x="1005.93" y="-87.8" font-family="Times,serif" font-size="9.00">Ⓜ Visiting Bob**</text>
</g>
<!-- Option 2&#45;&gt;Visiting Bob** -->
<g id="edge21" class="edge">
<title>Option 2&#45;&gt;Visiting Bob**</title>
<path fill="none" stroke="black" d="M937.43,-143.7C948.58,-135.11 962.24,-124.61 974.42,-115.24"/>
<polygon fill="black" stroke="black" points="976.39,-118.14 982.18,-109.27 972.12,-112.59 976.39,-118.14"/>
</g>
<!-- Calling the nurse -->
<g id="node23" class="node">
<title>Calling the nurse</title>
<ellipse fill="gray" stroke="black" cx="1005.93" cy="-18" rx="44.41" ry="18"/>
<text text-anchor="middle" x="1005.93" y="-15.8" font-family="Times,serif" font-size="9.00">Calling the nurse</text>
</g>
<!-- Visiting Bob**&#45;&gt;Calling the nurse -->
<g id="edge22" class="edge">
<title>Visiting Bob**&#45;&gt;Calling the nurse</title>
<path fill="none" stroke="black" d="M1005.93,-71.7C1005.93,-64.41 1005.93,-55.73 1005.93,-47.54"/>
<polygon fill="black" stroke="black" points="1009.43,-47.62 1005.93,-37.62 1002.43,-47.62 1009.43,-47.62"/>
</g>
<!-- Going back to base* -->
<g id="node24" class="node">
<title>Going back to base*</title>
<ellipse fill="gray" stroke="black" cx="1119.93" cy="-18" rx="51.27" ry="18"/>
<text text-anchor="middle" x="1119.93" y="-15.8" font-family="Times,serif" font-size="9.00">Going back to base*</text>
</g>
<!-- Visiting Bob**&#45;&gt;Going back to base* -->
<g id="edge23" class="edge">
<title>Visiting Bob**&#45;&gt;Going back to base*</title>
<path fill="none" stroke="black" d="M1034.4,-71.52C1049.91,-61.99 1069.22,-50.14 1085.57,-40.1"/>
<polygon fill="black" stroke="black" points="1087.32,-43.13 1094.01,-34.92 1083.66,-37.17 1087.32,-43.13"/>
</g>
<!-- Going to Alice Room -->
<g id="node26" class="node">
<title>Going to Alice Room</title>
<ellipse fill="gray" stroke="black" cx="1036.93" cy="-306" rx="53.23" ry="18"/>
<text text-anchor="middle" x="1036.93" y="-303.8" font-family="Times,serif" font-size="9.00">Going to Alice Room</text>
</g>
<!-- Visiting Alice&#45;&gt;Going to Alice Room -->
<g id="edge25" class="edge">
<title>Visiting Alice&#45;&gt;Going to Alice Room</title>
<path fill="none" stroke="black" d="M1080.59,-359.7C1073.75,-351.44 1065.43,-341.39 1057.89,-332.3"/>
<polygon fill="black" stroke="black" points="1060.74,-330.25 1051.67,-324.79 1055.35,-334.72 1060.74,-330.25"/>
</g>
<!-- Alice, can I enter? -->
<g id="node27" class="node">
<title>Alice, can I enter?</title>
<ellipse fill="gray" stroke="black" cx="1153.93" cy="-306" rx="46.38" ry="18"/>
<text text-anchor="middle" x="1153.93" y="-303.8" font-family="Times,serif" font-size="9.00">Alice, can I enter?</text>
</g>
<!-- Visiting Alice&#45;&gt;Alice, can I enter? -->
<g id="edge26" class="edge">
<title>Visiting Alice&#45;&gt;Alice, can I enter?</title>
<path fill="none" stroke="black" d="M1109.52,-359.7C1116.48,-351.44 1124.94,-341.39 1132.61,-332.3"/>
<polygon fill="black" stroke="black" points="1135.18,-334.68 1138.95,-324.78 1129.82,-330.17 1135.18,-334.68"/>
</g>
<!-- Interacting with Alice -->
<g id="node28" class="node">
<title>Interacting with Alice</title>
<polygon fill="orange" stroke="black" points="1321.93,-324 1217.93,-324 1217.93,-288 1321.93,-288 1321.93,-324"/>
<text text-anchor="middle" x="1269.93" y="-303.8" font-family="Times,serif" font-size="9.00">Ⓜ Interacting with Alice</text>
</g>
<!-- Visiting Alice&#45;&gt;Interacting with Alice -->
<g id="edge27" class="edge">
<title>Visiting Alice&#45;&gt;Interacting with Alice</title>
<path fill="none" stroke="black" d="M1133.34,-361.64C1157.58,-351.94 1189.27,-339.26 1216.02,-328.56"/>
<polygon fill="black" stroke="black" points="1216.99,-331.95 1224.98,-324.98 1214.39,-325.45 1216.99,-331.95"/>
</g>
<!-- XOR* -->
<g id="node29" class="node">
<title>XOR*</title>
<ellipse fill="gray" stroke="black" cx="1268.93" cy="-234" rx="27" ry="18"/>
<text text-anchor="middle" x="1268.93" y="-231.8" font-family="Times,serif" font-size="9.00">XOR*</text>
</g>
<!-- Interacting with Alice&#45;&gt;XOR* -->
<g id="edge28" class="edge">
<title>Interacting with Alice&#45;&gt;XOR*</title>
<path fill="none" stroke="black" d="M1269.68,-287.7C1269.58,-280.41 1269.46,-271.73 1269.34,-263.54"/>
<polygon fill="black" stroke="black" points="1272.84,-263.57 1269.2,-253.62 1265.84,-263.67 1272.84,-263.57"/>
</g>
<!-- Chooser* -->
<g id="node30" class="node">
<title>Chooser*</title>
<polygon fill="cyan" stroke="black" points="1377.67,-226.54 1377.67,-241.46 1359.08,-252 1332.78,-252 1314.19,-241.46 1314.19,-226.54 1332.78,-216 1359.08,-216 1377.67,-226.54"/>
<text text-anchor="middle" x="1345.93" y="-231.8" font-family="Times,serif" font-size="9.00">Chooser*</text>
</g>
<!-- Interacting with Alice&#45;&gt;Chooser* -->
<g id="edge29" class="edge">
<title>Interacting with Alice&#45;&gt;Chooser*</title>
<path fill="none" stroke="black" d="M1288.72,-287.7C1298.4,-278.78 1310.35,-267.78 1320.81,-258.14"/>
<polygon fill="black" stroke="black" points="1323.07,-260.81 1328.06,-251.46 1318.33,-255.66 1323.07,-260.81"/>
</g>
<!-- Option 1* -->
<g id="node31" class="node">
<title>Option 1*</title>
<polygon fill="orange" stroke="black" points="1377.93,-180 1313.93,-180 1313.93,-144 1377.93,-144 1377.93,-180"/>
<text text-anchor="middle" x="1345.93" y="-159.8" font-family="Times,serif" font-size="9.00">Ⓜ Option 1*</text>
</g>
<!-- Chooser*&#45;&gt;Option 1* -->
<g id="edge30" class="edge">
<title>Chooser*&#45;&gt;Option 1*</title>
<path fill="none" stroke="black" d="M1345.93,-215.7C1345.93,-208.41 1345.93,-199.73 1345.93,-191.54"/>
<polygon fill="black" stroke="black" points="1349.43,-191.62 1345.93,-181.62 1342.43,-191.62 1349.43,-191.62"/>
</g>
<!-- Option 2* -->
<g id="node37" class="node">
<title>Option 2*</title>
<polygon fill="orange" stroke="black" points="1502.93,-180 1438.93,-180 1438.93,-144 1502.93,-144 1502.93,-180"/>
<text text-anchor="middle" x="1470.93" y="-159.8" font-family="Times,serif" font-size="9.00">Ⓜ Option 2*</text>
</g>
<!-- Chooser*&#45;&gt;Option 2* -->
<g id="edge36" class="edge">
<title>Chooser*&#45;&gt;Option 2*</title>
<path fill="none" stroke="black" d="M1367.99,-220.65C1385.1,-211.07 1409.29,-197.52 1429.92,-185.97"/>
<polygon fill="black" stroke="black" points="1431.38,-189.16 1438.39,-181.22 1427.96,-183.05 1431.38,-189.16"/>
</g>
<!-- Enabled?** -->
<g id="node32" class="node">
<title>Enabled?**</title>
<ellipse fill="gray" stroke="black" cx="1254.93" cy="-90" rx="33.47" ry="18"/>
<text text-anchor="middle" x="1254.93" y="-87.8" font-family="Times,serif" font-size="9.00">Enabled?**</text>
</g>
<!-- Option 1*&#45;&gt;Enabled?** -->
<g id="edge31" class="edge">
<title>Option 1*&#45;&gt;Enabled?**</title>
<path fill="none" stroke="black" d="M1323.44,-143.7C1311.07,-134.18 1295.63,-122.3 1282.53,-112.23"/>
<polygon fill="black" stroke="black" points="1284.75,-109.52 1274.69,-106.2 1280.49,-115.07 1284.75,-109.52"/>
</g>
<!-- Visiting Alice* -->
<g id="node33" class="node">
<title>Visiting Alice*</title>
<polygon fill="orange" stroke="black" points="1385.93,-108 1305.93,-108 1305.93,-72 1385.93,-72 1385.93,-108"/>
<text text-anchor="middle" x="1345.93" y="-87.8" font-family="Times,serif" font-size="9.00">Ⓜ Visiting Alice*</text>
</g>
<!-- Option 1*&#45;&gt;Visiting Alice* -->
<g id="edge32" class="edge">
<title>Option 1*&#45;&gt;Visiting Alice*</title>
<path fill="none" stroke="black" d="M1345.93,-143.7C1345.93,-136.41 1345.93,-127.73 1345.93,-119.54"/>
<polygon fill="black" stroke="black" points="1349.43,-119.62 1345.93,-109.62 1342.43,-119.62 1349.43,-119.62"/>
</g>
<!-- Give pill to Alice -->
<g id="node34" class="node">
<title>Give pill to Alice</title>
<ellipse fill="gray" stroke="black" cx="1235.93" cy="-18" rx="44.41" ry="18"/>
<text text-anchor="middle" x="1235.93" y="-15.8" font-family="Times,serif" font-size="9.00">Give pill to Alice</text>
</g>
<!-- Visiting Alice*&#45;&gt;Give pill to Alice -->
<g id="edge33" class="edge">
<title>Visiting Alice*&#45;&gt;Give pill to Alice</title>
<path fill="none" stroke="black" d="M1318.46,-71.52C1303.28,-61.86 1284.34,-49.8 1268.43,-39.68"/>
<polygon fill="black" stroke="black" points="1270.57,-36.89 1260.25,-34.48 1266.81,-42.8 1270.57,-36.89"/>
</g>
<!-- Alice takes the pill -->
<g id="node35" class="node">
<title>Alice takes the pill</title>
<ellipse fill="gray" stroke="black" cx="1345.93" cy="-18" rx="47.19" ry="18"/>
<text text-anchor="middle" x="1345.93" y="-15.8" font-family="Times,serif" font-size="9.00">Alice takes the pill</text>
</g>
<!-- Visiting Alice*&#45;&gt;Alice takes the pill -->
<g id="edge34" class="edge">
<title>Visiting Alice*&#45;&gt;Alice takes the pill</title>
<path fill="none" stroke="black" d="M1345.93,-71.7C1345.93,-64.41 1345.93,-55.73 1345.93,-47.54"/>
<polygon fill="black" stroke="black" points="1349.43,-47.62 1345.93,-37.62 1342.43,-47.62 1349.43,-47.62"/>
</g>
<!-- Exiting from Alice Room -->
<g id="node36" class="node">
<title>Exiting from Alice Room</title>
<ellipse fill="gray" stroke="black" cx="1472.93" cy="-18" rx="61.4" ry="18"/>
<text text-anchor="middle" x="1472.93" y="-15.8" font-family="Times,serif" font-size="9.00">Exiting from Alice Room</text>
</g>
<!-- Visiting Alice*&#45;&gt;Exiting from Alice Room -->
<g id="edge35" class="edge">
<title>Visiting Alice*&#45;&gt;Exiting from Alice Room</title>
<path fill="none" stroke="black" d="M1377.65,-71.52C1395.05,-61.93 1416.74,-49.97 1435.03,-39.89"/>
<polygon fill="black" stroke="black" points="1436.67,-42.98 1443.74,-35.09 1433.29,-36.85 1436.67,-42.98"/>
</g>
<!-- Enabled?*** -->
<g id="node38" class="node">
<title>Enabled?***</title>
<ellipse fill="gray" stroke="black" cx="1470.93" cy="-90" rx="35.59" ry="18"/>
<text text-anchor="middle" x="1470.93" y="-87.8" font-family="Times,serif" font-size="9.00">Enabled?***</text>
</g>
<!-- Option 2*&#45;&gt;Enabled?*** -->
<g id="edge37" class="edge">
<title>Option 2*&#45;&gt;Enabled?***</title>
<path fill="none" stroke="black" d="M1470.93,-143.7C1470.93,-136.41 1470.93,-127.73 1470.93,-119.54"/>
<polygon fill="black" stroke="black" points="1474.43,-119.62 1470.93,-109.62 1467.43,-119.62 1474.43,-119.62"/>
</g>
<!-- Visiting Alice** -->
<g id="node39" class="node">
<title>Visiting Alice**</title>
<polygon fill="orange" stroke="black" points="1641.43,-108 1556.43,-108 1556.43,-72 1641.43,-72 1641.43,-108"/>
<text text-anchor="middle" x="1598.93" y="-87.8" font-family="Times,serif" font-size="9.00">Ⓜ Visiting Alice**</text>
</g>
<!-- Option 2*&#45;&gt;Visiting Alice** -->
<g id="edge38" class="edge">
<title>Option 2*&#45;&gt;Visiting Alice**</title>
<path fill="none" stroke="black" d="M1502.9,-143.52C1519.37,-134.51 1539.64,-123.42 1557.31,-113.76"/>
<polygon fill="black" stroke="black" points="1558.95,-116.86 1566.04,-108.99 1555.59,-110.71 1558.95,-116.86"/>
</g>
<!-- Calling the nurse* -->
<g id="node40" class="node">
<title>Calling the nurse*</title>
<ellipse fill="gray" stroke="black" cx="1598.93" cy="-18" rx="46.53" ry="18"/>
<text text-anchor="middle" x="1598.93" y="-15.8" font-family="Times,serif" font-size="9.00">Calling the nurse*</text>
</g>
<!-- Visiting Alice**&#45;&gt;Calling the nurse* -->
<g id="edge39" class="edge">
<title>Visiting Alice**&#45;&gt;Calling the nurse*</title>
<path fill="none" stroke="black" d="M1598.93,-71.7C1598.93,-64.41 1598.93,-55.73 1598.93,-47.54"/>
<polygon fill="black" stroke="black" points="1602.43,-47.62 1598.93,-37.62 1595.43,-47.62 1602.43,-47.62"/>
</g>
<!-- Going back to base** -->
<g id="node41" class="node">
<title>Going back to base**</title>
<ellipse fill="gray" stroke="black" cx="1717.93" cy="-18" rx="54.04" ry="18"/>
<text text-anchor="middle" x="1717.93" y="-15.8" font-family="Times,serif" font-size="9.00">Going back to base**</text>
</g>
<!-- Visiting Alice**&#45;&gt;Going back to base** -->
<g id="edge40" class="edge">
<title>Visiting Alice**&#45;&gt;Going back to base**</title>
<path fill="none" stroke="black" d="M1628.65,-71.52C1645,-61.9 1665.38,-49.91 1682.54,-39.82"/>
<polygon fill="black" stroke="black" points="1684.07,-42.98 1690.91,-34.89 1680.52,-36.95 1684.07,-42.98"/>
</g>
<!-- Going to the Base -->
<g id="node43" class="node">
<title>Going to the Base</title>
<ellipse fill="gray" stroke="black" cx="1385.93" cy="-306" rx="46.38" ry="18"/>
<text text-anchor="middle" x="1385.93" y="-303.8" font-family="Times,serif" font-size="9.00">Going to the Base</text>
</g>
<!-- Daily tasks completed&#45;&gt;Going to the Base -->
<g id="edge42" class="edge">
<title>Daily tasks completed&#45;&gt;Going to the Base</title>
<path fill="none" stroke="black" d="M1385.93,-359.7C1385.93,-352.41 1385.93,-343.73 1385.93,-335.54"/>
<polygon fill="black" stroke="black" points="1389.43,-335.62 1385.93,-325.62 1382.43,-335.62 1389.43,-335.62"/>
</g>
<!-- Going to sleep -->
<g id="node44" class="node">
<title>Going to sleep</title>
<ellipse fill="gray" stroke="black" cx="1488.93" cy="-306" rx="39.02" ry="18"/>
<text text-anchor="middle" x="1488.93" y="-303.8" font-family="Times,serif" font-size="9.00">Going to sleep</text>
</g>
<!-- Daily tasks completed&#45;&gt;Going to sleep -->
<g id="edge43" class="edge">
<title>Daily tasks completed&#45;&gt;Going to sleep</title>
<path fill="none" stroke="black" d="M1411.66,-359.52C1425.83,-349.88 1443.52,-337.86 1458.39,-327.76"/>
<polygon fill="black" stroke="black" points="1460.14,-330.8 1466.44,-322.29 1456.2,-325.01 1460.14,-330.8"/>
</g>
</g>
</svg>
