<?xml version="1.0" encoding="UTF-8" standalone="no"?>
<!DOCTYPE svg PUBLIC "-//W3C//DTD SVG 1.1//EN"
 "http://www.w3.org/Graphics/SVG/1.1/DTD/svg11.dtd">
<!-- Generated by graphviz version 7.0.4 (20221203.1631)
 -->
<!-- Title: pastafarianism Pages: 1 -->
<svg width="1480pt" height="476pt"
 viewBox="0.00 0.00 1480.20 476.00" xmlns="http://www.w3.org/2000/svg" xmlns:xlink="http://www.w3.org/1999/xlink">
<g id="graph0" class="graph" transform="scale(1 1) rotate(0) translate(4 472)">
<title>pastafarianism</title>
<polygon fill="white" stroke="none" points="-4,4 -4,-472 1476.2,-472 1476.2,4 -4,4"/>
<!-- Daily Jobs -->
<g id="node1" class="node">
<title>Daily Jobs</title>
<polygon fill="orange" stroke="black" points="707.93,-468 641.93,-468 641.93,-432 707.93,-432 707.93,-468"/>
<text text-anchor="middle" x="674.93" y="-447.8" font-family="Times,serif" font-size="9.00">Ⓜ Daily Jobs</text>
</g>
<!-- Go to medical room -->
<g id="node2" class="node">
<title>Go to medical room</title>
<polygon fill="orange" stroke="black" points="270.93,-396 172.93,-396 172.93,-360 270.93,-360 270.93,-396"/>
<text text-anchor="middle" x="221.93" y="-375.8" font-family="Times,serif" font-size="9.00">Ⓜ Go to medical room</text>
</g>
<!-- Daily Jobs&#45;&gt;Go to medical room -->
<g id="edge1" class="edge">
<title>Daily Jobs&#45;&gt;Go to medical room</title>
<path fill="none" stroke="black" d="M641.62,-443.85C565.83,-432.14 379.59,-403.36 282.7,-388.39"/>
<polygon fill="black" stroke="black" points="283.26,-384.93 272.84,-386.87 282.19,-391.85 283.26,-384.93"/>
</g>
<!-- Visiting Bob -->
<g id="node6" class="node">
<title>Visiting Bob</title>
<polygon fill="orange" stroke="black" points="594.43,-396 521.43,-396 521.43,-360 594.43,-360 594.43,-396"/>
<text text-anchor="middle" x="557.93" y="-375.8" font-family="Times,serif" font-size="9.00">Ⓜ Visiting Bob</text>
</g>
<!-- Daily Jobs&#45;&gt;Visiting Bob -->
<g id="edge5" class="edge">
<title>Daily Jobs&#45;&gt;Visiting Bob</title>
<path fill="none" stroke="black" d="M645.71,-431.52C630.8,-422.6 612.47,-411.63 596.43,-402.03"/>
<polygon fill="black" stroke="black" points="598.46,-399.17 588.08,-397.04 594.86,-405.18 598.46,-399.17"/>
</g>
<!-- Visiting Alice -->
<g id="node23" class="node">
<title>Visiting Alice</title>
<polygon fill="orange" stroke="black" points="832.93,-396 756.93,-396 756.93,-360 832.93,-360 832.93,-396"/>
<text text-anchor="middle" x="794.93" y="-375.8" font-family="Times,serif" font-size="9.00">Ⓜ Visiting Alice</text>
</g>
<!-- Daily Jobs&#45;&gt;Visiting Alice -->
<g id="edge22" class="edge">
<title>Daily Jobs&#45;&gt;Visiting Alice</title>
<path fill="none" stroke="black" d="M704.9,-431.52C720.19,-422.6 738.99,-411.63 755.45,-402.03"/>
<polygon fill="black" stroke="black" points="757.16,-405.09 764.03,-397.02 753.63,-399.04 757.16,-405.09"/>
</g>
<!-- Daily tasks completed -->
<g id="node40" class="node">
<title>Daily tasks completed</title>
<polygon fill="orange" stroke="black" points="1138.93,-396 1032.93,-396 1032.93,-360 1138.93,-360 1138.93,-396"/>
<text text-anchor="middle" x="1085.93" y="-375.8" font-family="Times,serif" font-size="9.00">Ⓜ Daily tasks completed</text>
</g>
<!-- Daily Jobs&#45;&gt;Daily tasks completed -->
<g id="edge39" class="edge">
<title>Daily Jobs&#45;&gt;Daily tasks completed</title>
<path fill="none" stroke="black" d="M708.22,-443.33C776.32,-431.73 932.62,-405.11 1021.33,-390"/>
<polygon fill="black" stroke="black" points="1021.84,-393.47 1031.11,-388.34 1020.66,-386.57 1021.84,-393.47"/>
</g>
<!-- Moving to Medical Room -->
<g id="node3" class="node">
<title>Moving to Medical Room</title>
<ellipse fill="gray" stroke="black" cx="62.93" cy="-306" rx="62.86" ry="18"/>
<text text-anchor="middle" x="62.93" y="-303.8" font-family="Times,serif" font-size="9.00">Moving to Medical Room</text>
</g>
<!-- Go to medical room&#45;&gt;Moving to Medical Room -->
<g id="edge2" class="edge">
<title>Go to medical room&#45;&gt;Moving to Medical Room</title>
<path fill="none" stroke="black" d="M182.22,-359.52C159.25,-349.4 130.3,-336.66 106.68,-326.26"/>
<polygon fill="black" stroke="black" points="108.19,-323.1 97.62,-322.27 105.37,-329.51 108.19,-323.1"/>
</g>
<!-- Take Pills -->
<g id="node4" class="node">
<title>Take Pills</title>
<ellipse fill="gray" stroke="black" cx="172.93" cy="-306" rx="29.39" ry="18"/>
<text text-anchor="middle" x="172.93" y="-303.8" font-family="Times,serif" font-size="9.00">Take Pills</text>
</g>
<!-- Go to medical room&#45;&gt;Take Pills -->
<g id="edge3" class="edge">
<title>Go to medical room&#45;&gt;Take Pills</title>
<path fill="none" stroke="black" d="M209.82,-359.7C203.99,-351.37 196.89,-341.23 190.49,-332.08"/>
<polygon fill="black" stroke="black" points="193.37,-330.1 184.77,-323.91 187.64,-334.11 193.37,-330.1"/>
</g>
<!-- Going back to base -->
<g id="node5" class="node">
<title>Going back to base</title>
<ellipse fill="gray" stroke="black" cx="269.93" cy="-306" rx="49.15" ry="18"/>
<text text-anchor="middle" x="269.93" y="-303.8" font-family="Times,serif" font-size="9.00">Going back to base</text>
</g>
<!-- Go to medical room&#45;&gt;Going back to base -->
<g id="edge4" class="edge">
<title>Go to medical room&#45;&gt;Going back to base</title>
<path fill="none" stroke="black" d="M233.8,-359.7C239.34,-351.61 246.06,-341.81 252.19,-332.87"/>
<polygon fill="black" stroke="black" points="254.91,-335.1 257.68,-324.87 249.14,-331.14 254.91,-335.1"/>
</g>
<!-- Going to Bob Room -->
<g id="node7" class="node">
<title>Going to Bob Room</title>
<ellipse fill="gray" stroke="black" cx="387.93" cy="-306" rx="51.27" ry="18"/>
<text text-anchor="middle" x="387.93" y="-303.8" font-family="Times,serif" font-size="9.00">Going to Bob Room</text>
</g>
<!-- Visiting Bob&#45;&gt;Going to Bob Room -->
<g id="edge6" class="edge">
<title>Visiting Bob&#45;&gt;Going to Bob Room</title>
<path fill="none" stroke="black" d="M521.04,-361.81C494.58,-350.91 458.83,-336.19 431.05,-324.75"/>
<polygon fill="black" stroke="black" points="432.42,-321.53 421.84,-320.96 429.76,-328.01 432.42,-321.53"/>
</g>
<!-- Bob, can I enter? -->
<g id="node8" class="node">
<title>Bob, can I enter?</title>
<ellipse fill="gray" stroke="black" cx="501.93" cy="-306" rx="44.41" ry="18"/>
<text text-anchor="middle" x="501.93" y="-303.8" font-family="Times,serif" font-size="9.00">Bob, can I enter?</text>
</g>
<!-- Visiting Bob&#45;&gt;Bob, can I enter? -->
<g id="edge7" class="edge">
<title>Visiting Bob&#45;&gt;Bob, can I enter?</title>
<path fill="none" stroke="black" d="M544.09,-359.7C537.55,-351.52 529.61,-341.6 522.4,-332.58"/>
<polygon fill="black" stroke="black" points="525.15,-330.43 516.17,-324.8 519.69,-334.8 525.15,-330.43"/>
</g>
<!-- Interacting with Bob -->
<g id="node9" class="node">
<title>Interacting with Bob</title>
<polygon fill="orange" stroke="black" points="665.43,-324 564.43,-324 564.43,-288 665.43,-288 665.43,-324"/>
<text text-anchor="middle" x="614.93" y="-303.8" font-family="Times,serif" font-size="9.00">Ⓜ Interacting with Bob</text>
</g>
<!-- Visiting Bob&#45;&gt;Interacting with Bob -->
<g id="edge8" class="edge">
<title>Visiting Bob&#45;&gt;Interacting with Bob</title>
<path fill="none" stroke="black" d="M572.02,-359.7C578.58,-351.64 586.52,-341.89 593.77,-332.98"/>
<polygon fill="black" stroke="black" points="596.45,-335.24 600.05,-325.28 591.02,-330.82 596.45,-335.24"/>
</g>
<!-- XOR -->
<g id="node10" class="node">
<title>XOR</title>
<ellipse fill="gray" stroke="black" cx="540.93" cy="-234" rx="27" ry="18"/>
<text text-anchor="middle" x="540.93" y="-231.8" font-family="Times,serif" font-size="9.00">XOR</text>
</g>
<!-- Interacting with Bob&#45;&gt;XOR -->
<g id="edge9" class="edge">
<title>Interacting with Bob&#45;&gt;XOR</title>
<path fill="none" stroke="black" d="M596.64,-287.7C586.88,-278.46 574.75,-266.99 564.31,-257.12"/>
<polygon fill="black" stroke="black" points="566.8,-254.65 557.13,-250.32 561.99,-259.73 566.8,-254.65"/>
</g>
<!-- Chooser -->
<g id="node11" class="node">
<title>Chooser</title>
<polygon fill="cyan" stroke="black" points="644.17,-226.54 644.17,-241.46 627.04,-252 602.82,-252 585.69,-241.46 585.69,-226.54 602.82,-216 627.04,-216 644.17,-226.54"/>
<text text-anchor="middle" x="614.93" y="-231.8" font-family="Times,serif" font-size="9.00">Chooser</text>
</g>
<!-- Interacting with Bob&#45;&gt;Chooser -->
<g id="edge10" class="edge">
<title>Interacting with Bob&#45;&gt;Chooser</title>
<path fill="none" stroke="black" d="M614.93,-287.7C614.93,-280.41 614.93,-271.73 614.93,-263.54"/>
<polygon fill="black" stroke="black" points="618.43,-263.62 614.93,-253.62 611.43,-263.62 618.43,-263.62"/>
</g>
<!-- Option 1 -->
<g id="node12" class="node">
<title>Option 1</title>
<polygon fill="orange" stroke="black" points="523.43,-180 464.43,-180 464.43,-144 523.43,-144 523.43,-180"/>
<text text-anchor="middle" x="493.93" y="-159.8" font-family="Times,serif" font-size="9.00">Ⓜ Option 1</text>
</g>
<!-- Chooser&#45;&gt;Option 1 -->
<g id="edge11" class="edge">
<title>Chooser&#45;&gt;Option 1</title>
<path fill="none" stroke="black" d="M594.13,-220.97C577.48,-211.34 553.66,-197.55 533.41,-185.84"/>
<polygon fill="black" stroke="black" points="535.23,-182.85 524.82,-180.87 531.73,-188.91 535.23,-182.85"/>
</g>
<!-- Option 2 -->
<g id="node18" class="node">
<title>Option 2</title>
<polygon fill="orange" stroke="black" points="644.43,-180 585.43,-180 585.43,-144 644.43,-144 644.43,-180"/>
<text text-anchor="middle" x="614.93" y="-159.8" font-family="Times,serif" font-size="9.00">Ⓜ Option 2</text>
</g>
<!-- Chooser&#45;&gt;Option 2 -->
<g id="edge17" class="edge">
<title>Chooser&#45;&gt;Option 2</title>
<path fill="none" stroke="black" d="M614.93,-215.7C614.93,-208.41 614.93,-199.73 614.93,-191.54"/>
<polygon fill="black" stroke="black" points="618.43,-191.62 614.93,-181.62 611.43,-191.62 618.43,-191.62"/>
</g>
<!-- Enabled? -->
<g id="node13" class="node">
<title>Enabled?</title>
<ellipse fill="gray" stroke="black" cx="408.93" cy="-90" rx="28.08" ry="18"/>
<text text-anchor="middle" x="408.93" y="-87.8" font-family="Times,serif" font-size="9.00">Enabled?</text>
</g>
<!-- Option 1&#45;&gt;Enabled? -->
<g id="edge12" class="edge">
<title>Option 1&#45;&gt;Enabled?</title>
<path fill="none" stroke="black" d="M472.92,-143.7C461.32,-134.15 446.83,-122.21 434.57,-112.12"/>
<polygon fill="black" stroke="black" points="436.83,-109.44 426.89,-105.79 432.38,-114.85 436.83,-109.44"/>
</g>
<!-- Visiting Bob* -->
<g id="node14" class="node">
<title>Visiting Bob*</title>
<polygon fill="orange" stroke="black" points="532.43,-108 455.43,-108 455.43,-72 532.43,-72 532.43,-108"/>
<text text-anchor="middle" x="493.93" y="-87.8" font-family="Times,serif" font-size="9.00">Ⓜ Visiting Bob*</text>
</g>
<!-- Option 1&#45;&gt;Visiting Bob* -->
<g id="edge13" class="edge">
<title>Option 1&#45;&gt;Visiting Bob*</title>
<path fill="none" stroke="black" d="M493.93,-143.7C493.93,-136.41 493.93,-127.73 493.93,-119.54"/>
<polygon fill="black" stroke="black" points="497.43,-119.62 493.93,-109.62 490.43,-119.62 497.43,-119.62"/>
</g>
<!-- Give pill to Bob -->
<g id="node15" class="node">
<title>Give pill to Bob</title>
<ellipse fill="gray" stroke="black" cx="354.93" cy="-18" rx="42.95" ry="18"/>
<text text-anchor="middle" x="354.93" y="-15.8" font-family="Times,serif" font-size="9.00">Give pill to Bob</text>
</g>
<!-- Visiting Bob*&#45;&gt;Give pill to Bob -->
<g id="edge14" class="edge">
<title>Visiting Bob*&#45;&gt;Give pill to Bob</title>
<path fill="none" stroke="black" d="M459.21,-71.52C438.71,-61.19 412.78,-48.13 391.9,-37.62"/>
<polygon fill="black" stroke="black" points="393.65,-34.58 383.15,-33.21 390.51,-40.83 393.65,-34.58"/>
</g>
<!-- Bob takes the pill -->
<g id="node16" class="node">
<title>Bob takes the pill</title>
<ellipse fill="gray" stroke="black" cx="460.93" cy="-18" rx="45.07" ry="18"/>
<text text-anchor="middle" x="460.93" y="-15.8" font-family="Times,serif" font-size="9.00">Bob takes the pill</text>
</g>
<!-- Visiting Bob*&#45;&gt;Bob takes the pill -->
<g id="edge15" class="edge">
<title>Visiting Bob*&#45;&gt;Bob takes the pill</title>
<path fill="none" stroke="black" d="M485.77,-71.7C482.18,-64.07 477.86,-54.92 473.85,-46.4"/>
<polygon fill="black" stroke="black" points="477.07,-45.03 469.64,-37.47 470.74,-48.01 477.07,-45.03"/>
</g>
<!-- Exiting from Bob Room -->
<g id="node17" class="node">
<title>Exiting from Bob Room</title>
<ellipse fill="gray" stroke="black" cx="583.93" cy="-18" rx="59.43" ry="18"/>
<text text-anchor="middle" x="583.93" y="-15.8" font-family="Times,serif" font-size="9.00">Exiting from Bob Room</text>
</g>
<!-- Visiting Bob*&#45;&gt;Exiting from Bob Room -->
<g id="edge16" class="edge">
<title>Visiting Bob*&#45;&gt;Exiting from Bob Room</title>
<path fill="none" stroke="black" d="M516.18,-71.7C527.63,-62.79 541.74,-51.81 554.12,-42.19"/>
<polygon fill="black" stroke="black" points="556.23,-44.98 561.98,-36.07 551.94,-39.45 556.23,-44.98"/>
</g>
<!-- Enabled?* -->
<g id="node19" class="node">
<title>Enabled?*</title>
<ellipse fill="gray" stroke="black" cx="614.93" cy="-90" rx="30.7" ry="18"/>
<text text-anchor="middle" x="614.93" y="-87.8" font-family="Times,serif" font-size="9.00">Enabled?*</text>
</g>
<!-- Option 2&#45;&gt;Enabled?* -->
<g id="edge18" class="edge">
<title>Option 2&#45;&gt;Enabled?*</title>
<path fill="none" stroke="black" d="M614.93,-143.7C614.93,-136.41 614.93,-127.73 614.93,-119.54"/>
<polygon fill="black" stroke="black" points="618.43,-119.62 614.93,-109.62 611.43,-119.62 618.43,-119.62"/>
</g>
<!-- Visiting Bob** -->
<g id="node20" class="node">
<title>Visiting Bob**</title>
<polygon fill="orange" stroke="black" points="746.93,-108 664.93,-108 664.93,-72 746.93,-72 746.93,-108"/>
<text text-anchor="middle" x="705.93" y="-87.8" font-family="Times,serif" font-size="9.00">Ⓜ Visiting Bob**</text>
</g>
<!-- Option 2&#45;&gt;Visiting Bob** -->
<g id="edge19" class="edge">
<title>Option 2&#45;&gt;Visiting Bob**</title>
<path fill="none" stroke="black" d="M637.43,-143.7C648.58,-135.11 662.24,-124.61 674.42,-115.24"/>
<polygon fill="black" stroke="black" points="676.39,-118.14 682.18,-109.27 672.12,-112.59 676.39,-118.14"/>
</g>
<!-- Calling the nurse -->
<g id="node21" class="node">
<title>Calling the nurse</title>
<ellipse fill="gray" stroke="black" cx="705.93" cy="-18" rx="44.41" ry="18"/>
<text text-anchor="middle" x="705.93" y="-15.8" font-family="Times,serif" font-size="9.00">Calling the nurse</text>
</g>
<!-- Visiting Bob**&#45;&gt;Calling the nurse -->
<g id="edge20" class="edge">
<title>Visiting Bob**&#45;&gt;Calling the nurse</title>
<path fill="none" stroke="black" d="M705.93,-71.7C705.93,-64.41 705.93,-55.73 705.93,-47.54"/>
<polygon fill="black" stroke="black" points="709.43,-47.62 705.93,-37.62 702.43,-47.62 709.43,-47.62"/>
</g>
<!-- Going back to base* -->
<g id="node22" class="node">
<title>Going back to base*</title>
<ellipse fill="gray" stroke="black" cx="819.93" cy="-18" rx="51.27" ry="18"/>
<text text-anchor="middle" x="819.93" y="-15.8" font-family="Times,serif" font-size="9.00">Going back to base*</text>
</g>
<!-- Visiting Bob**&#45;&gt;Going back to base* -->
<g id="edge21" class="edge">
<title>Visiting Bob**&#45;&gt;Going back to base*</title>
<path fill="none" stroke="black" d="M734.4,-71.52C749.91,-61.99 769.22,-50.14 785.57,-40.1"/>
<polygon fill="black" stroke="black" points="787.32,-43.13 794.01,-34.92 783.66,-37.17 787.32,-43.13"/>
</g>
<!-- Going to Alice Room -->
<g id="node24" class="node">
<title>Going to Alice Room</title>
<ellipse fill="gray" stroke="black" cx="736.93" cy="-306" rx="53.23" ry="18"/>
<text text-anchor="middle" x="736.93" y="-303.8" font-family="Times,serif" font-size="9.00">Going to Alice Room</text>
</g>
<!-- Visiting Alice&#45;&gt;Going to Alice Room -->
<g id="edge23" class="edge">
<title>Visiting Alice&#45;&gt;Going to Alice Room</title>
<path fill="none" stroke="black" d="M780.59,-359.7C773.75,-351.44 765.43,-341.39 757.89,-332.3"/>
<polygon fill="black" stroke="black" points="760.74,-330.25 751.67,-324.79 755.35,-334.72 760.74,-330.25"/>
</g>
<!-- Alice, can I enter? -->
<g id="node25" class="node">
<title>Alice, can I enter?</title>
<ellipse fill="gray" stroke="black" cx="853.93" cy="-306" rx="46.38" ry="18"/>
<text text-anchor="middle" x="853.93" y="-303.8" font-family="Times,serif" font-size="9.00">Alice, can I enter?</text>
</g>
<!-- Visiting Alice&#45;&gt;Alice, can I enter? -->
<g id="edge24" class="edge">
<title>Visiting Alice&#45;&gt;Alice, can I enter?</title>
<path fill="none" stroke="black" d="M809.52,-359.7C816.48,-351.44 824.94,-341.39 832.61,-332.3"/>
<polygon fill="black" stroke="black" points="835.18,-334.68 838.95,-324.78 829.82,-330.17 835.18,-334.68"/>
</g>
<!-- Interacting with Alice -->
<g id="node26" class="node">
<title>Interacting with Alice</title>
<polygon fill="orange" stroke="black" points="1021.93,-324 917.93,-324 917.93,-288 1021.93,-288 1021.93,-324"/>
<text text-anchor="middle" x="969.93" y="-303.8" font-family="Times,serif" font-size="9.00">Ⓜ Interacting with Alice</text>
</g>
<!-- Visiting Alice&#45;&gt;Interacting with Alice -->
<g id="edge25" class="edge">
<title>Visiting Alice&#45;&gt;Interacting with Alice</title>
<path fill="none" stroke="black" d="M833.34,-361.64C857.58,-351.94 889.27,-339.26 916.02,-328.56"/>
<polygon fill="black" stroke="black" points="916.99,-331.95 924.98,-324.98 914.39,-325.45 916.99,-331.95"/>
</g>
<!-- XOR* -->
<g id="node27" class="node">
<title>XOR*</title>
<ellipse fill="gray" stroke="black" cx="968.93" cy="-234" rx="27" ry="18"/>
<text text-anchor="middle" x="968.93" y="-231.8" font-family="Times,serif" font-size="9.00">XOR*</text>
</g>
<!-- Interacting with Alice&#45;&gt;XOR* -->
<g id="edge26" class="edge">
<title>Interacting with Alice&#45;&gt;XOR*</title>
<path fill="none" stroke="black" d="M969.68,-287.7C969.58,-280.41 969.46,-271.73 969.34,-263.54"/>
<polygon fill="black" stroke="black" points="972.84,-263.57 969.2,-253.62 965.84,-263.67 972.84,-263.57"/>
</g>
<!-- Chooser* -->
<g id="node28" class="node">
<title>Chooser*</title>
<polygon fill="cyan" stroke="black" points="1077.67,-226.54 1077.67,-241.46 1059.08,-252 1032.78,-252 1014.19,-241.46 1014.19,-226.54 1032.78,-216 1059.08,-216 1077.67,-226.54"/>
<text text-anchor="middle" x="1045.93" y="-231.8" font-family="Times,serif" font-size="9.00">Chooser*</text>
</g>
<!-- Interacting with Alice&#45;&gt;Chooser* -->
<g id="edge27" class="edge">
<title>Interacting with Alice&#45;&gt;Chooser*</title>
<path fill="none" stroke="black" d="M988.72,-287.7C998.4,-278.78 1010.35,-267.78 1020.81,-258.14"/>
<polygon fill="black" stroke="black" points="1023.07,-260.81 1028.06,-251.46 1018.33,-255.66 1023.07,-260.81"/>
</g>
<!-- Option 1* -->
<g id="node29" class="node">
<title>Option 1*</title>
<polygon fill="orange" stroke="black" points="1077.93,-180 1013.93,-180 1013.93,-144 1077.93,-144 1077.93,-180"/>
<text text-anchor="middle" x="1045.93" y="-159.8" font-family="Times,serif" font-size="9.00">Ⓜ Option 1*</text>
</g>
<!-- Chooser*&#45;&gt;Option 1* -->
<g id="edge28" class="edge">
<title>Chooser*&#45;&gt;Option 1*</title>
<path fill="none" stroke="black" d="M1045.93,-215.7C1045.93,-208.41 1045.93,-199.73 1045.93,-191.54"/>
<polygon fill="black" stroke="black" points="1049.43,-191.62 1045.93,-181.62 1042.43,-191.62 1049.43,-191.62"/>
</g>
<!-- Option 2* -->
<g id="node35" class="node">
<title>Option 2*</title>
<polygon fill="orange" stroke="black" points="1202.93,-180 1138.93,-180 1138.93,-144 1202.93,-144 1202.93,-180"/>
<text text-anchor="middle" x="1170.93" y="-159.8" font-family="Times,serif" font-size="9.00">Ⓜ Option 2*</text>
</g>
<!-- Chooser*&#45;&gt;Option 2* -->
<g id="edge34" class="edge">
<title>Chooser*&#45;&gt;Option 2*</title>
<path fill="none" stroke="black" d="M1067.99,-220.65C1085.1,-211.07 1109.29,-197.52 1129.92,-185.97"/>
<polygon fill="black" stroke="black" points="1131.38,-189.16 1138.39,-181.22 1127.96,-183.05 1131.38,-189.16"/>
</g>
<!-- Enabled?** -->
<g id="node30" class="node">
<title>Enabled?**</title>
<ellipse fill="gray" stroke="black" cx="954.93" cy="-90" rx="33.47" ry="18"/>
<text text-anchor="middle" x="954.93" y="-87.8" font-family="Times,serif" font-size="9.00">Enabled?**</text>
</g>
<!-- Option 1*&#45;&gt;Enabled?** -->
<g id="edge29" class="edge">
<title>Option 1*&#45;&gt;Enabled?**</title>
<path fill="none" stroke="black" d="M1023.44,-143.7C1011.07,-134.18 995.63,-122.3 982.53,-112.23"/>
<polygon fill="black" stroke="black" points="984.75,-109.52 974.69,-106.2 980.49,-115.07 984.75,-109.52"/>
</g>
<!-- Visiting Alice* -->
<g id="node31" class="node">
<title>Visiting Alice*</title>
<polygon fill="orange" stroke="black" points="1085.93,-108 1005.93,-108 1005.93,-72 1085.93,-72 1085.93,-108"/>
<text text-anchor="middle" x="1045.93" y="-87.8" font-family="Times,serif" font-size="9.00">Ⓜ Visiting Alice*</text>
</g>
<!-- Option 1*&#45;&gt;Visiting Alice* -->
<g id="edge30" class="edge">
<title>Option 1*&#45;&gt;Visiting Alice*</title>
<path fill="none" stroke="black" d="M1045.93,-143.7C1045.93,-136.41 1045.93,-127.73 1045.93,-119.54"/>
<polygon fill="black" stroke="black" points="1049.43,-119.62 1045.93,-109.62 1042.43,-119.62 1049.43,-119.62"/>
</g>
<!-- Give pill to Alice -->
<g id="node32" class="node">
<title>Give pill to Alice</title>
<ellipse fill="gray" stroke="black" cx="935.93" cy="-18" rx="44.41" ry="18"/>
<text text-anchor="middle" x="935.93" y="-15.8" font-family="Times,serif" font-size="9.00">Give pill to Alice</text>
</g>
<!-- Visiting Alice*&#45;&gt;Give pill to Alice -->
<g id="edge31" class="edge">
<title>Visiting Alice*&#45;&gt;Give pill to Alice</title>
<path fill="none" stroke="black" d="M1018.46,-71.52C1003.28,-61.86 984.34,-49.8 968.43,-39.68"/>
<polygon fill="black" stroke="black" points="970.57,-36.89 960.25,-34.48 966.81,-42.8 970.57,-36.89"/>
</g>
<!-- Alice takes the pill -->
<g id="node33" class="node">
<title>Alice takes the pill</title>
<ellipse fill="gray" stroke="black" cx="1045.93" cy="-18" rx="47.19" ry="18"/>
<text text-anchor="middle" x="1045.93" y="-15.8" font-family="Times,serif" font-size="9.00">Alice takes the pill</text>
</g>
<!-- Visiting Alice*&#45;&gt;Alice takes the pill -->
<g id="edge32" class="edge">
<title>Visiting Alice*&#45;&gt;Alice takes the pill</title>
<path fill="none" stroke="black" d="M1045.93,-71.7C1045.93,-64.41 1045.93,-55.73 1045.93,-47.54"/>
<polygon fill="black" stroke="black" points="1049.43,-47.62 1045.93,-37.62 1042.43,-47.62 1049.43,-47.62"/>
</g>
<!-- Exiting from Alice Room -->
<g id="node34" class="node">
<title>Exiting from Alice Room</title>
<ellipse fill="gray" stroke="black" cx="1172.93" cy="-18" rx="61.4" ry="18"/>
<text text-anchor="middle" x="1172.93" y="-15.8" font-family="Times,serif" font-size="9.00">Exiting from Alice Room</text>
</g>
<!-- Visiting Alice*&#45;&gt;Exiting from Alice Room -->
<g id="edge33" class="edge">
<title>Visiting Alice*&#45;&gt;Exiting from Alice Room</title>
<path fill="none" stroke="black" d="M1077.65,-71.52C1095.05,-61.93 1116.74,-49.97 1135.03,-39.89"/>
<polygon fill="black" stroke="black" points="1136.67,-42.98 1143.74,-35.09 1133.29,-36.85 1136.67,-42.98"/>
</g>
<!-- Enabled?*** -->
<g id="node36" class="node">
<title>Enabled?***</title>
<ellipse fill="gray" stroke="black" cx="1170.93" cy="-90" rx="35.59" ry="18"/>
<text text-anchor="middle" x="1170.93" y="-87.8" font-family="Times,serif" font-size="9.00">Enabled?***</text>
</g>
<!-- Option 2*&#45;&gt;Enabled?*** -->
<g id="edge35" class="edge">
<title>Option 2*&#45;&gt;Enabled?***</title>
<path fill="none" stroke="black" d="M1170.93,-143.7C1170.93,-136.41 1170.93,-127.73 1170.93,-119.54"/>
<polygon fill="black" stroke="black" points="1174.43,-119.62 1170.93,-109.62 1167.43,-119.62 1174.43,-119.62"/>
</g>
<!-- Visiting Alice** -->
<g id="node37" class="node">
<title>Visiting Alice**</title>
<polygon fill="orange" stroke="black" points="1341.43,-108 1256.43,-108 1256.43,-72 1341.43,-72 1341.43,-108"/>
<text text-anchor="middle" x="1298.93" y="-87.8" font-family="Times,serif" font-size="9.00">Ⓜ Visiting Alice**</text>
</g>
<!-- Option 2*&#45;&gt;Visiting Alice** -->
<g id="edge36" class="edge">
<title>Option 2*&#45;&gt;Visiting Alice**</title>
<path fill="none" stroke="black" d="M1202.9,-143.52C1219.37,-134.51 1239.64,-123.42 1257.31,-113.76"/>
<polygon fill="black" stroke="black" points="1258.95,-116.86 1266.04,-108.99 1255.59,-110.71 1258.95,-116.86"/>
</g>
<!-- Calling the nurse* -->
<g id="node38" class="node">
<title>Calling the nurse*</title>
<ellipse fill="gray" stroke="black" cx="1298.93" cy="-18" rx="46.53" ry="18"/>
<text text-anchor="middle" x="1298.93" y="-15.8" font-family="Times,serif" font-size="9.00">Calling the nurse*</text>
</g>
<!-- Visiting Alice**&#45;&gt;Calling the nurse* -->
<g id="edge37" class="edge">
<title>Visiting Alice**&#45;&gt;Calling the nurse*</title>
<path fill="none" stroke="black" d="M1298.93,-71.7C1298.93,-64.41 1298.93,-55.73 1298.93,-47.54"/>
<polygon fill="black" stroke="black" points="1302.43,-47.62 1298.93,-37.62 1295.43,-47.62 1302.43,-47.62"/>
</g>
<!-- Going back to base** -->
<g id="node39" class="node">
<title>Going back to base**</title>
<ellipse fill="gray" stroke="black" cx="1417.93" cy="-18" rx="54.04" ry="18"/>
<text text-anchor="middle" x="1417.93" y="-15.8" font-family="Times,serif" font-size="9.00">Going back to base**</text>
</g>
<!-- Visiting Alice**&#45;&gt;Going back to base** -->
<g id="edge38" class="edge">
<title>Visiting Alice**&#45;&gt;Going back to base**</title>
<path fill="none" stroke="black" d="M1328.65,-71.52C1345,-61.9 1365.38,-49.91 1382.54,-39.82"/>
<polygon fill="black" stroke="black" points="1384.07,-42.98 1390.91,-34.89 1380.52,-36.95 1384.07,-42.98"/>
</g>
<!-- Going to the Base -->
<g id="node41" class="node">
<title>Going to the Base</title>
<ellipse fill="gray" stroke="black" cx="1085.93" cy="-306" rx="46.38" ry="18"/>
<text text-anchor="middle" x="1085.93" y="-303.8" font-family="Times,serif" font-size="9.00">Going to the Base</text>
</g>
<!-- Daily tasks completed&#45;&gt;Going to the Base -->
<g id="edge40" class="edge">
<title>Daily tasks completed&#45;&gt;Going to the Base</title>
<path fill="none" stroke="black" d="M1085.93,-359.7C1085.93,-352.41 1085.93,-343.73 1085.93,-335.54"/>
<polygon fill="black" stroke="black" points="1089.43,-335.62 1085.93,-325.62 1082.43,-335.62 1089.43,-335.62"/>
</g>
<!-- Going to sleep -->
<g id="node42" class="node">
<title>Going to sleep</title>
<ellipse fill="gray" stroke="black" cx="1188.93" cy="-306" rx="39.02" ry="18"/>
<text text-anchor="middle" x="1188.93" y="-303.8" font-family="Times,serif" font-size="9.00">Going to sleep</text>
</g>
<!-- Daily tasks completed&#45;&gt;Going to sleep -->
<g id="edge41" class="edge">
<title>Daily tasks completed&#45;&gt;Going to sleep</title>
<path fill="none" stroke="black" d="M1111.66,-359.52C1125.83,-349.88 1143.52,-337.86 1158.39,-327.76"/>
<polygon fill="black" stroke="black" points="1160.14,-330.8 1166.44,-322.29 1156.2,-325.01 1160.14,-330.8"/>
</g>
</g>
</svg>
